<?xml version="1.0" encoding="UTF-8"?><svg xmlns="http://www.w3.org/2000/svg" xmlns:xlink="http://www.w3.org/1999/xlink" fill-opacity="1" color-rendering="auto" color-interpolation="auto" text-rendering="auto" stroke="black" stroke-linecap="square" width="403" stroke-miterlimit="10" shape-rendering="auto" stroke-opacity="1" fill="black" stroke-dasharray="none" font-weight="normal" stroke-width="1" height="132" font-family="'Dialog'" font-style="normal" stroke-linejoin="miter" font-size="12px" stroke-dashoffset="0" image-rendering="auto">
  <!--Generated by ySVG 2.5-->
  <defs id="genericDefs"/>
  <g>
    <defs id="defs1">
      <clipPath clipPathUnits="userSpaceOnUse" id="clipPath1">
        <path d="M0 0 L403 0 L403 132 L0 132 L0 0 Z"/>
      </clipPath>
      <clipPath clipPathUnits="userSpaceOnUse" id="clipPath2">
        <path d="M-10 -10 L393 -10 L393 122 L-10 122 L-10 -10 Z"/>
      </clipPath>
      <clipPath clipPathUnits="userSpaceOnUse" id="clipPath3">
        <path d="M-10 -10.733 L393 -10.733 L393 121.267 L-10 121.267 L-10 -10.733 Z"/>
      </clipPath>
      <clipPath clipPathUnits="userSpaceOnUse" id="clipPath4">
        <path d="M0 0 L0 24 L24 24 L24 0 Z"/>
      </clipPath>
      <clipPath clipPathUnits="userSpaceOnUse" id="clipPath5">
        <path d="M-10 -10.3001 L393 -10.3001 L393 121.6999 L-10 121.6999 L-10 -10.3001 Z"/>
      </clipPath>
      <clipPath clipPathUnits="userSpaceOnUse" id="clipPath6">
        <path d="M-10 -10.9942 L393 -10.9942 L393 121.0058 L-10 121.0058 L-10 -10.9942 Z"/>
      </clipPath>
      <clipPath clipPathUnits="userSpaceOnUse" id="clipPath7">
        <path d="M-10 -10.0389 L393 -10.0389 L393 121.9611 L-10 121.9611 L-10 -10.0389 Z"/>
      </clipPath>
    </defs>
    <g fill="white" stroke="white">
      <path d="M14.4375 112.4375 Q16.1094 112.4375 16.875 113.0938 Q17.6406 113.75 17.6406 114.9531 Q17.6406 115.6562 17.3281 116.2812 Q17.0156 116.8906 16.2656 117.2812 Q15.5156 117.6562 14.2344 117.6562 L13.25 117.6562 L13.25 121 L12.1562 121 L12.1562 112.4375 L14.4375 112.4375 ZM14.3438 113.3594 L13.25 113.3594 L13.25 116.7344 L14.1094 116.7344 Q15.3281 116.7344 15.9219 116.3438 Q16.5312 115.9531 16.5312 115 Q16.5312 114.1719 16 113.7656 Q15.4688 113.3594 14.3438 113.3594 ZM24.8694 117.7656 Q24.8694 119.375 24.0569 120.25 Q23.2444 121.125 21.8694 121.125 Q21.0257 121.125 20.3538 120.7344 Q19.6819 120.3438 19.2913 119.5938 Q18.9163 118.8438 18.9163 117.7656 Q18.9163 116.1719 19.7132 115.3125 Q20.5257 114.4531 21.9007 114.4531 Q22.7913 114.4531 23.4476 114.8438 Q24.1194 115.2344 24.4944 115.9688 Q24.8694 116.7031 24.8694 117.7656 ZM20.0101 117.7656 Q20.0101 118.9062 20.4632 119.5781 Q20.9163 120.25 21.9007 120.25 Q22.8694 120.25 23.3226 119.5781 Q23.7757 118.9062 23.7757 117.7656 Q23.7757 116.625 23.3226 115.9844 Q22.8694 115.3438 21.8851 115.3438 Q20.9007 115.3438 20.4476 115.9844 Q20.0101 116.625 20.0101 117.7656 ZM30.692 117.3594 Q30.5357 116.875 30.4107 116.4062 Q30.3014 115.9219 30.2545 115.6562 L30.2076 115.6562 Q30.1451 115.9219 30.0357 116.4062 Q29.942 116.875 29.7701 117.375 L28.6139 120.9844 L27.4107 120.9844 L25.6451 114.5625 L26.7389 114.5625 L27.6295 117.9844 Q27.7701 118.5 27.8795 119.0312 Q28.0045 119.5625 28.0514 119.9062 L28.0982 119.9062 Q28.1451 119.7031 28.2076 119.4062 Q28.2857 119.1094 28.3639 118.7812 Q28.442 118.4375 28.5357 118.1875 L29.6764 114.5625 L30.817 114.5625 L31.9264 118.1875 Q32.067 118.5938 32.192 119.0781 Q32.317 119.5469 32.3639 119.8906 L32.4107 119.8906 Q32.442 119.5938 32.567 119.0781 Q32.692 118.5469 32.8326 117.9844 L33.7389 114.5625 L34.817 114.5625 L33.0357 120.9844 L31.8014 120.9844 L30.692 117.3594 ZM38.4522 114.4531 Q39.2803 114.4531 39.8741 114.8125 Q40.4678 115.1719 40.7803 115.8281 Q41.1084 116.4688 41.1084 117.3594 L41.1084 117.9844 L36.7022 117.9844 Q36.7334 119.0781 37.2647 119.6562 Q37.7959 120.2188 38.7491 120.2188 Q39.3741 120.2188 39.8428 120.1094 Q40.3116 119.9844 40.8272 119.7812 L40.8272 120.7031 Q40.3272 120.9219 39.8428 121.0156 Q39.3741 121.125 38.7022 121.125 Q37.7959 121.125 37.0928 120.75 Q36.3897 120.375 35.9991 119.6406 Q35.6084 118.9062 35.6084 117.8281 Q35.6084 116.7812 35.9678 116.0312 Q36.3272 115.2656 36.9678 114.8594 Q37.6084 114.4531 38.4522 114.4531 ZM38.4366 115.3125 Q37.6866 115.3125 37.2491 115.7969 Q36.8116 116.2812 36.7334 117.1406 L39.9991 117.1406 Q39.9991 116.3281 39.6241 115.8281 Q39.2491 115.3125 38.4366 115.3125 ZM45.7359 114.4531 Q45.9234 114.4531 46.1265 114.4688 Q46.3452 114.4844 46.5015 114.5156 L46.3609 115.4844 Q46.2046 115.4531 46.0171 115.4375 Q45.8296 115.4062 45.6734 115.4062 Q45.1734 115.4062 44.7359 115.6875 Q44.314 115.9531 44.0484 116.4375 Q43.7984 116.9219 43.7984 117.5625 L43.7984 121 L42.7359 121 L42.7359 114.5625 L43.6109 114.5625 L43.7202 115.75 L43.7671 115.75 Q44.0796 115.2188 44.564 114.8438 Q45.064 114.4531 45.7359 114.4531 ZM50.1763 114.4531 Q51.0044 114.4531 51.5981 114.8125 Q52.1919 115.1719 52.5044 115.8281 Q52.8325 116.4688 52.8325 117.3594 L52.8325 117.9844 L48.4263 117.9844 Q48.4575 119.0781 48.9888 119.6562 Q49.52 120.2188 50.4731 120.2188 Q51.0981 120.2188 51.5669 120.1094 Q52.0356 119.9844 52.5513 119.7812 L52.5513 120.7031 Q52.0513 120.9219 51.5669 121.0156 Q51.0981 121.125 50.4263 121.125 Q49.52 121.125 48.8169 120.75 Q48.1138 120.375 47.7231 119.6406 Q47.3325 118.9062 47.3325 117.8281 Q47.3325 116.7812 47.6919 116.0312 Q48.0513 115.2656 48.6919 114.8594 Q49.3325 114.4531 50.1763 114.4531 ZM50.1606 115.3125 Q49.4106 115.3125 48.9731 115.7969 Q48.5356 116.2812 48.4575 117.1406 L51.7231 117.1406 Q51.7231 116.3281 51.3481 115.8281 Q50.9731 115.3125 50.1606 115.3125 ZM56.7412 121.125 Q55.5381 121.125 54.8193 120.2969 Q54.1006 119.4531 54.1006 117.7969 Q54.1006 116.1406 54.8193 115.2969 Q55.5537 114.4531 56.7568 114.4531 Q57.5068 114.4531 57.9756 114.7344 Q58.4443 115 58.7412 115.3906 L58.8193 115.3906 Q58.8037 115.2344 58.7724 114.9375 Q58.7412 114.625 58.7412 114.4531 L58.7412 111.875 L59.8037 111.875 L59.8037 121 L58.9599 121 L58.8037 120.1406 L58.7412 120.1406 Q58.4599 120.5469 57.9756 120.8438 Q57.5068 121.125 56.7412 121.125 ZM56.9131 120.25 Q57.9287 120.25 58.3349 119.6875 Q58.7568 119.125 58.7568 118 L58.7568 117.8125 Q58.7568 116.6094 58.3662 115.9688 Q57.9756 115.3281 56.8974 115.3281 Q56.0537 115.3281 55.6162 116.0156 Q55.1943 116.6875 55.1943 117.8125 Q55.1943 118.9688 55.6162 119.6094 Q56.0537 120.25 56.9131 120.25 ZM66.0225 114.0938 Q66.0225 114.5156 66.0069 114.875 Q65.9913 115.2188 65.96 115.4219 L66.0225 115.4219 Q66.3038 115.0156 66.7725 114.7344 Q67.2569 114.4531 68.0069 114.4531 Q69.21 114.4531 69.9288 115.2969 Q70.6631 116.125 70.6631 117.7812 Q70.6631 119.4375 69.9288 120.2812 Q69.1944 121.125 68.0069 121.125 Q67.2569 121.125 66.7725 120.8438 Q66.3038 120.5625 66.0225 120.1875 L65.9288 120.1875 L65.7256 121 L64.96 121 L64.96 111.875 L66.0225 111.875 L66.0225 114.0938 ZM67.835 115.3438 Q66.8194 115.3438 66.4131 115.9375 Q66.0225 116.5156 66.0225 117.75 L66.0225 117.7969 Q66.0225 118.9844 66.4131 119.625 Q66.8038 120.25 67.8506 120.25 Q68.7256 120.25 69.1475 119.6094 Q69.5694 118.9688 69.5694 117.7656 Q69.5694 115.3438 67.835 115.3438 ZM71.3401 114.5625 L72.4651 114.5625 L73.8557 118.2344 Q74.0432 118.7031 74.1838 119.1406 Q74.3244 119.5781 74.4026 119.9844 L74.4494 119.9844 Q74.5119 119.6875 74.6682 119.2031 Q74.8244 118.7031 74.9963 118.2188 L76.3088 114.5625 L77.4494 114.5625 L74.6682 121.8906 Q74.3401 122.7969 73.7932 123.3281 Q73.2619 123.875 72.3401 123.875 Q72.0432 123.875 71.8244 123.8438 Q71.6057 123.8125 71.4494 123.7812 L71.4494 122.9375 Q71.5901 122.9688 71.7776 122.9844 Q71.9651 123.0156 72.1682 123.0156 Q72.7151 123.0156 73.0588 122.7031 Q73.4026 122.3906 73.5901 121.875 L73.9338 121.0312 L71.3401 114.5625 ZM80.5801 114.5625 L81.7051 114.5625 L83.0958 118.2344 Q83.2833 118.7031 83.4239 119.1406 Q83.5645 119.5781 83.6426 119.9844 L83.6895 119.9844 Q83.752 119.6875 83.9083 119.2031 Q84.0645 118.7031 84.2364 118.2188 L85.5489 114.5625 L86.6895 114.5625 L83.9083 121.8906 Q83.5801 122.7969 83.0333 123.3281 Q82.502 123.875 81.5801 123.875 Q81.2833 123.875 81.0645 123.8438 Q80.8458 123.8125 80.6895 123.7812 L80.6895 122.9375 Q80.8301 122.9688 81.0176 122.9844 Q81.2051 123.0156 81.4083 123.0156 Q81.9551 123.0156 82.2989 122.7031 Q82.6426 122.3906 82.8301 121.875 L83.1739 121.0312 L80.5801 114.5625 ZM88.9346 121 L87.8408 121 L87.8408 112.4375 L92.6377 112.4375 L92.6377 113.375 L88.9346 113.375 L88.9346 116.4219 L92.4033 116.4219 L92.4033 117.3594 L88.9346 117.3594 L88.9346 121 ZM94.4751 112.1562 Q94.7095 112.1562 94.897 112.3281 Q95.0845 112.4844 95.0845 112.8281 Q95.0845 113.1562 94.897 113.3281 Q94.7095 113.5 94.4751 113.5 Q94.2095 113.5 94.022 113.3281 Q93.8501 113.1562 93.8501 112.8281 Q93.8501 112.4844 94.022 112.3281 Q94.2095 112.1562 94.4751 112.1562 ZM94.9907 114.5625 L94.9907 121 L93.9282 121 L93.9282 114.5625 L94.9907 114.5625 ZM98.0867 121 L97.0242 121 L97.0242 111.875 L98.0867 111.875 L98.0867 121 ZM102.6046 114.4531 Q103.4328 114.4531 104.0265 114.8125 Q104.6203 115.1719 104.9328 115.8281 Q105.2609 116.4688 105.2609 117.3594 L105.2609 117.9844 L100.8546 117.9844 Q100.8859 119.0781 101.4171 119.6562 Q101.9484 120.2188 102.9015 120.2188 Q103.5265 120.2188 103.9953 120.1094 Q104.464 119.9844 104.9796 119.7812 L104.9796 120.7031 Q104.4796 120.9219 103.9953 121.0156 Q103.5265 121.125 102.8546 121.125 Q101.9484 121.125 101.2453 120.75 Q100.5421 120.375 100.1515 119.6406 Q99.7609 118.9062 99.7609 117.8281 Q99.7609 116.7812 100.1203 116.0312 Q100.4796 115.2656 101.1203 114.8594 Q101.7609 114.4531 102.6046 114.4531 ZM102.589 115.3125 Q101.839 115.3125 101.4015 115.7969 Q100.964 116.2812 100.8859 117.1406 L104.1515 117.1406 Q104.1515 116.3281 103.7765 115.8281 Q103.4015 115.3125 102.589 115.3125 ZM111.0758 119.2188 Q111.0758 120.1562 110.3727 120.6406 Q109.6852 121.125 108.5133 121.125 Q107.8414 121.125 107.3571 121.0156 Q106.8727 120.9062 106.4977 120.7188 L106.4977 119.75 Q106.8883 119.9375 107.4196 120.1094 Q107.9664 120.2656 108.5289 120.2656 Q109.3414 120.2656 109.7008 120.0156 Q110.0602 119.75 110.0602 119.3125 Q110.0602 119.0781 109.9196 118.8906 Q109.7946 118.7031 109.4508 118.5156 Q109.1071 118.3125 108.4821 118.0781 Q107.8571 117.8281 107.4039 117.5938 Q106.9664 117.3594 106.7164 117.0312 Q106.4821 116.6875 106.4821 116.1562 Q106.4821 115.3438 107.1383 114.9062 Q107.8102 114.4531 108.9039 114.4531 Q109.4821 114.4531 109.9821 114.5625 Q110.4977 114.6719 110.9508 114.875 L110.5914 115.7188 Q110.1852 115.5469 109.7321 115.4375 Q109.2946 115.3125 108.8258 115.3125 Q108.1696 115.3125 107.8258 115.5312 Q107.4977 115.7344 107.4977 116.0938 Q107.4977 116.3594 107.6539 116.5469 Q107.8102 116.7344 108.1696 116.9062 Q108.5289 117.0781 109.1539 117.3125 Q109.7633 117.5469 110.1852 117.7969 Q110.6227 118.0312 110.8414 118.375 Q111.0758 118.7031 111.0758 119.2188 Z" stroke="none" clip-path="url(#clipPath1)"/>
    </g>
    <g fill="silver" stroke="silver">
      <path d="M13.4375 111.4375 Q15.1094 111.4375 15.875 112.0938 Q16.6406 112.75 16.6406 113.9531 Q16.6406 114.6562 16.3281 115.2812 Q16.0156 115.8906 15.2656 116.2812 Q14.5156 116.6562 13.2344 116.6562 L12.25 116.6562 L12.25 120 L11.1562 120 L11.1562 111.4375 L13.4375 111.4375 ZM13.3438 112.3594 L12.25 112.3594 L12.25 115.7344 L13.1094 115.7344 Q14.3281 115.7344 14.9219 115.3438 Q15.5312 114.9531 15.5312 114 Q15.5312 113.1719 15 112.7656 Q14.4688 112.3594 13.3438 112.3594 ZM23.8694 116.7656 Q23.8694 118.375 23.0569 119.25 Q22.2444 120.125 20.8694 120.125 Q20.0257 120.125 19.3538 119.7344 Q18.6819 119.3438 18.2913 118.5938 Q17.9163 117.8438 17.9163 116.7656 Q17.9163 115.1719 18.7132 114.3125 Q19.5257 113.4531 20.9007 113.4531 Q21.7913 113.4531 22.4476 113.8438 Q23.1194 114.2344 23.4944 114.9688 Q23.8694 115.7031 23.8694 116.7656 ZM19.0101 116.7656 Q19.0101 117.9062 19.4632 118.5781 Q19.9163 119.25 20.9007 119.25 Q21.8694 119.25 22.3226 118.5781 Q22.7757 117.9062 22.7757 116.7656 Q22.7757 115.625 22.3226 114.9844 Q21.8694 114.3438 20.8851 114.3438 Q19.9007 114.3438 19.4476 114.9844 Q19.0101 115.625 19.0101 116.7656 ZM29.692 116.3594 Q29.5357 115.875 29.4107 115.4062 Q29.3014 114.9219 29.2545 114.6562 L29.2076 114.6562 Q29.1451 114.9219 29.0357 115.4062 Q28.942 115.875 28.7701 116.375 L27.6139 119.9844 L26.4107 119.9844 L24.6451 113.5625 L25.7389 113.5625 L26.6295 116.9844 Q26.7701 117.5 26.8795 118.0312 Q27.0045 118.5625 27.0514 118.9062 L27.0982 118.9062 Q27.1451 118.7031 27.2076 118.4062 Q27.2857 118.1094 27.3639 117.7812 Q27.442 117.4375 27.5357 117.1875 L28.6764 113.5625 L29.817 113.5625 L30.9264 117.1875 Q31.067 117.5938 31.192 118.0781 Q31.317 118.5469 31.3639 118.8906 L31.4107 118.8906 Q31.442 118.5938 31.567 118.0781 Q31.692 117.5469 31.8326 116.9844 L32.7389 113.5625 L33.817 113.5625 L32.0357 119.9844 L30.8014 119.9844 L29.692 116.3594 ZM37.4522 113.4531 Q38.2803 113.4531 38.8741 113.8125 Q39.4678 114.1719 39.7803 114.8281 Q40.1084 115.4688 40.1084 116.3594 L40.1084 116.9844 L35.7022 116.9844 Q35.7334 118.0781 36.2647 118.6562 Q36.7959 119.2188 37.7491 119.2188 Q38.3741 119.2188 38.8428 119.1094 Q39.3116 118.9844 39.8272 118.7812 L39.8272 119.7031 Q39.3272 119.9219 38.8428 120.0156 Q38.3741 120.125 37.7022 120.125 Q36.7959 120.125 36.0928 119.75 Q35.3897 119.375 34.9991 118.6406 Q34.6084 117.9062 34.6084 116.8281 Q34.6084 115.7812 34.9678 115.0312 Q35.3272 114.2656 35.9678 113.8594 Q36.6084 113.4531 37.4522 113.4531 ZM37.4366 114.3125 Q36.6866 114.3125 36.2491 114.7969 Q35.8116 115.2812 35.7334 116.1406 L38.9991 116.1406 Q38.9991 115.3281 38.6241 114.8281 Q38.2491 114.3125 37.4366 114.3125 ZM44.7359 113.4531 Q44.9234 113.4531 45.1265 113.4688 Q45.3452 113.4844 45.5015 113.5156 L45.3609 114.4844 Q45.2046 114.4531 45.0171 114.4375 Q44.8296 114.4062 44.6734 114.4062 Q44.1734 114.4062 43.7359 114.6875 Q43.314 114.9531 43.0484 115.4375 Q42.7984 115.9219 42.7984 116.5625 L42.7984 120 L41.7359 120 L41.7359 113.5625 L42.6109 113.5625 L42.7202 114.75 L42.7671 114.75 Q43.0796 114.2188 43.564 113.8438 Q44.064 113.4531 44.7359 113.4531 ZM49.1763 113.4531 Q50.0044 113.4531 50.5981 113.8125 Q51.1919 114.1719 51.5044 114.8281 Q51.8325 115.4688 51.8325 116.3594 L51.8325 116.9844 L47.4263 116.9844 Q47.4575 118.0781 47.9888 118.6562 Q48.52 119.2188 49.4731 119.2188 Q50.0981 119.2188 50.5669 119.1094 Q51.0356 118.9844 51.5513 118.7812 L51.5513 119.7031 Q51.0513 119.9219 50.5669 120.0156 Q50.0981 120.125 49.4263 120.125 Q48.52 120.125 47.8169 119.75 Q47.1138 119.375 46.7231 118.6406 Q46.3325 117.9062 46.3325 116.8281 Q46.3325 115.7812 46.6919 115.0312 Q47.0513 114.2656 47.6919 113.8594 Q48.3325 113.4531 49.1763 113.4531 ZM49.1606 114.3125 Q48.4106 114.3125 47.9731 114.7969 Q47.5356 115.2812 47.4575 116.1406 L50.7231 116.1406 Q50.7231 115.3281 50.3481 114.8281 Q49.9731 114.3125 49.1606 114.3125 ZM55.7412 120.125 Q54.5381 120.125 53.8193 119.2969 Q53.1006 118.4531 53.1006 116.7969 Q53.1006 115.1406 53.8193 114.2969 Q54.5537 113.4531 55.7568 113.4531 Q56.5068 113.4531 56.9756 113.7344 Q57.4443 114 57.7412 114.3906 L57.8193 114.3906 Q57.8037 114.2344 57.7724 113.9375 Q57.7412 113.625 57.7412 113.4531 L57.7412 110.875 L58.8037 110.875 L58.8037 120 L57.9599 120 L57.8037 119.1406 L57.7412 119.1406 Q57.4599 119.5469 56.9756 119.8438 Q56.5068 120.125 55.7412 120.125 ZM55.9131 119.25 Q56.9287 119.25 57.3349 118.6875 Q57.7568 118.125 57.7568 117 L57.7568 116.8125 Q57.7568 115.6094 57.3662 114.9688 Q56.9756 114.3281 55.8974 114.3281 Q55.0537 114.3281 54.6162 115.0156 Q54.1943 115.6875 54.1943 116.8125 Q54.1943 117.9688 54.6162 118.6094 Q55.0537 119.25 55.9131 119.25 ZM65.0225 113.0938 Q65.0225 113.5156 65.0069 113.875 Q64.9913 114.2188 64.96 114.4219 L65.0225 114.4219 Q65.3038 114.0156 65.7725 113.7344 Q66.2569 113.4531 67.0069 113.4531 Q68.21 113.4531 68.9288 114.2969 Q69.6631 115.125 69.6631 116.7812 Q69.6631 118.4375 68.9288 119.2812 Q68.1944 120.125 67.0069 120.125 Q66.2569 120.125 65.7725 119.8438 Q65.3038 119.5625 65.0225 119.1875 L64.9288 119.1875 L64.7256 120 L63.96 120 L63.96 110.875 L65.0225 110.875 L65.0225 113.0938 ZM66.835 114.3438 Q65.8194 114.3438 65.4131 114.9375 Q65.0225 115.5156 65.0225 116.75 L65.0225 116.7969 Q65.0225 117.9844 65.4131 118.625 Q65.8038 119.25 66.8506 119.25 Q67.7256 119.25 68.1475 118.6094 Q68.5694 117.9688 68.5694 116.7656 Q68.5694 114.3438 66.835 114.3438 ZM70.3401 113.5625 L71.4651 113.5625 L72.8557 117.2344 Q73.0432 117.7031 73.1838 118.1406 Q73.3244 118.5781 73.4026 118.9844 L73.4494 118.9844 Q73.5119 118.6875 73.6682 118.2031 Q73.8244 117.7031 73.9963 117.2188 L75.3088 113.5625 L76.4494 113.5625 L73.6682 120.8906 Q73.3401 121.7969 72.7932 122.3281 Q72.2619 122.875 71.3401 122.875 Q71.0432 122.875 70.8244 122.8438 Q70.6057 122.8125 70.4494 122.7812 L70.4494 121.9375 Q70.5901 121.9688 70.7776 121.9844 Q70.9651 122.0156 71.1682 122.0156 Q71.7151 122.0156 72.0588 121.7031 Q72.4026 121.3906 72.5901 120.875 L72.9338 120.0312 L70.3401 113.5625 ZM79.5801 113.5625 L80.7051 113.5625 L82.0958 117.2344 Q82.2833 117.7031 82.4239 118.1406 Q82.5645 118.5781 82.6426 118.9844 L82.6895 118.9844 Q82.752 118.6875 82.9083 118.2031 Q83.0645 117.7031 83.2364 117.2188 L84.5489 113.5625 L85.6895 113.5625 L82.9083 120.8906 Q82.5801 121.7969 82.0333 122.3281 Q81.502 122.875 80.5801 122.875 Q80.2833 122.875 80.0645 122.8438 Q79.8458 122.8125 79.6895 122.7812 L79.6895 121.9375 Q79.8301 121.9688 80.0176 121.9844 Q80.2051 122.0156 80.4083 122.0156 Q80.9551 122.0156 81.2989 121.7031 Q81.6426 121.3906 81.8301 120.875 L82.1739 120.0312 L79.5801 113.5625 ZM87.9346 120 L86.8408 120 L86.8408 111.4375 L91.6377 111.4375 L91.6377 112.375 L87.9346 112.375 L87.9346 115.4219 L91.4033 115.4219 L91.4033 116.3594 L87.9346 116.3594 L87.9346 120 ZM93.4751 111.1562 Q93.7095 111.1562 93.897 111.3281 Q94.0845 111.4844 94.0845 111.8281 Q94.0845 112.1562 93.897 112.3281 Q93.7095 112.5 93.4751 112.5 Q93.2095 112.5 93.022 112.3281 Q92.8501 112.1562 92.8501 111.8281 Q92.8501 111.4844 93.022 111.3281 Q93.2095 111.1562 93.4751 111.1562 ZM93.9907 113.5625 L93.9907 120 L92.9282 120 L92.9282 113.5625 L93.9907 113.5625 ZM97.0867 120 L96.0242 120 L96.0242 110.875 L97.0867 110.875 L97.0867 120 ZM101.6046 113.4531 Q102.4328 113.4531 103.0265 113.8125 Q103.6203 114.1719 103.9328 114.8281 Q104.2609 115.4688 104.2609 116.3594 L104.2609 116.9844 L99.8546 116.9844 Q99.8859 118.0781 100.4171 118.6562 Q100.9484 119.2188 101.9015 119.2188 Q102.5265 119.2188 102.9953 119.1094 Q103.464 118.9844 103.9796 118.7812 L103.9796 119.7031 Q103.4796 119.9219 102.9953 120.0156 Q102.5265 120.125 101.8546 120.125 Q100.9484 120.125 100.2453 119.75 Q99.5421 119.375 99.1515 118.6406 Q98.7609 117.9062 98.7609 116.8281 Q98.7609 115.7812 99.1203 115.0312 Q99.4796 114.2656 100.1203 113.8594 Q100.7609 113.4531 101.6046 113.4531 ZM101.589 114.3125 Q100.839 114.3125 100.4015 114.7969 Q99.964 115.2812 99.8859 116.1406 L103.1515 116.1406 Q103.1515 115.3281 102.7765 114.8281 Q102.4015 114.3125 101.589 114.3125 ZM110.0758 118.2188 Q110.0758 119.1562 109.3727 119.6406 Q108.6852 120.125 107.5133 120.125 Q106.8414 120.125 106.3571 120.0156 Q105.8727 119.9062 105.4977 119.7188 L105.4977 118.75 Q105.8883 118.9375 106.4196 119.1094 Q106.9664 119.2656 107.5289 119.2656 Q108.3414 119.2656 108.7008 119.0156 Q109.0602 118.75 109.0602 118.3125 Q109.0602 118.0781 108.9196 117.8906 Q108.7946 117.7031 108.4508 117.5156 Q108.1071 117.3125 107.4821 117.0781 Q106.8571 116.8281 106.4039 116.5938 Q105.9664 116.3594 105.7164 116.0312 Q105.4821 115.6875 105.4821 115.1562 Q105.4821 114.3438 106.1383 113.9062 Q106.8102 113.4531 107.9039 113.4531 Q108.4821 113.4531 108.9821 113.5625 Q109.4977 113.6719 109.9508 113.875 L109.5914 114.7188 Q109.1852 114.5469 108.7321 114.4375 Q108.2946 114.3125 107.8258 114.3125 Q107.1696 114.3125 106.8258 114.5312 Q106.4977 114.7344 106.4977 115.0938 Q106.4977 115.3594 106.6539 115.5469 Q106.8102 115.7344 107.1696 115.9062 Q107.5289 116.0781 108.1539 116.3125 Q108.7633 116.5469 109.1852 116.7969 Q109.6227 117.0312 109.8414 117.375 Q110.0758 117.7031 110.0758 118.2188 Z" stroke="none" clip-path="url(#clipPath1)"/>
    </g>
    <g fill="rgb(255,255,204)" transform="matrix(1,0,0,1,10,10)" stroke="rgb(255,255,204)">
      <rect x="0" width="162" height="111.8225" y="0" clip-path="url(#clipPath2)" stroke="none"/>
    </g>
    <g fill="gray" stroke-miterlimit="1.45" transform="matrix(1,0,0,1,10,10)" stroke-linecap="butt" stroke="gray">
      <rect fill="none" x="0" width="162" height="111.8225" y="0" clip-path="url(#clipPath2)"/>
    </g>
    <g stroke-miterlimit="1.45" font-size="13px" font-family="'Inter'" transform="matrix(1,0,0,1,10,10)" stroke-linecap="butt">
      <text x="50" xml:space="preserve" y="18.5938" clip-path="url(#clipPath2)" stroke="none">questions</text>
    </g>
    <g fill="gray" transform="matrix(1,0,0,1,10,10)" stroke="gray">
      <line y2="25" fill="none" x1="1" clip-path="url(#clipPath2)" x2="161" y1="25"/>
    </g>
    <g stroke-linecap="round" transform="matrix(0.6667,0,0,0.6667,14,38.733)" fill="silver" image-rendering="optimizeQuality" stroke-linejoin="round" stroke="silver" stroke-width="2" stroke-miterlimit="4">
      <path fill="none" d="M12.4 2.7 C13.3 1.8 14.9 1.8 15.8 2.7 L21.3 8.2 C22.2 9.1 22.2 10.7 21.3 11.6 L17.6 15.3 C16.7 16.2 15.1 16.2 14.2 15.3 L8.7 9.8 C7.8 8.9 7.8 7.3 8.7 6.4 Z" clip-path="url(#clipPath4)"/>
    </g>
    <g stroke-linecap="round" transform="matrix(0.6667,0,0,0.6667,14,38.733)" fill="silver" image-rendering="optimizeQuality" stroke-linejoin="round" stroke="silver" stroke-width="2" stroke-miterlimit="4">
      <path fill="none" d="M14 7 L17 10" clip-path="url(#clipPath4)"/>
    </g>
    <g stroke-linecap="round" transform="matrix(0.6667,0,0,0.6667,14,38.733)" fill="silver" image-rendering="optimizeQuality" stroke-linejoin="round" stroke="silver" stroke-width="2" stroke-miterlimit="4">
      <path fill="none" d="M9.4 10.6 L2 18 L2 21 C2 21.6 2.4 22 3 22 L7 22 L7 19 L10 19 L10 16 L12 16 L13.4 14.6" clip-path="url(#clipPath4)"/>
    </g>
    <g stroke-miterlimit="1.45" font-weight="bold" font-family="'Inter'" transform="matrix(1,0,0,1,10,10)" stroke-linecap="butt">
      <text x="26" xml:space="preserve" y="43.3577" clip-path="url(#clipPath2)" stroke="none">id</text>
    </g>
    <g stroke-miterlimit="1.45" font-family="'Inter'" transform="matrix(1,0,0,1,10,10)" stroke-linecap="butt">
      <text x="102" xml:space="preserve" y="43.3577" clip-path="url(#clipPath2)" stroke="none">serial</text>
      <text x="26" xml:space="preserve" y="63.8801" clip-path="url(#clipPath2)" font-weight="bold" stroke="none">question</text>
      <text x="102" xml:space="preserve" y="63.8801" clip-path="url(#clipPath2)" stroke="none">text</text>
      <text x="26" xml:space="preserve" y="84.4025" clip-path="url(#clipPath2)" font-weight="bold" stroke="none">answer</text>
      <text x="102" xml:space="preserve" y="84.4025" clip-path="url(#clipPath2)" stroke="none">text</text>
      <text x="26" xml:space="preserve" y="104.9248" clip-path="url(#clipPath2)" font-weight="bold" stroke="none">category_id</text>
      <text x="102" xml:space="preserve" y="104.9248" clip-path="url(#clipPath2)" stroke="none">int4</text>
    </g>
    <g stroke-linecap="round" transform="matrix(0.6667,0,0,0.6667,150,100.3001)" fill="silver" image-rendering="optimizeQuality" stroke-linejoin="round" stroke="silver" stroke-width="2" stroke-miterlimit="4">
      <path fill="none" d="M7 7 L17 7 L17 17" clip-path="url(#clipPath4)"/>
    </g>
    <g stroke-linecap="round" transform="matrix(0.6667,0,0,0.6667,150,100.3001)" fill="silver" image-rendering="optimizeQuality" stroke-linejoin="round" stroke="silver" stroke-width="2" stroke-miterlimit="4">
      <path fill="none" d="M7 17 L17 7" clip-path="url(#clipPath4)"/>
    </g>
    <g fill="rgb(255,255,204)" transform="matrix(1,0,0,1,10,10)" stroke="rgb(255,255,204)">
      <rect x="222" width="161" height="91.3001" y="10.2612" clip-path="url(#clipPath2)" stroke="none"/>
    </g>
    <g fill="gray" stroke-miterlimit="1.45" transform="matrix(1,0,0,1,10,10)" stroke-linecap="butt" stroke="gray">
      <rect fill="none" x="222" width="161" height="91.3001" y="10.2612" clip-path="url(#clipPath2)"/>
    </g>
    <g stroke-miterlimit="1.45" font-size="13px" font-family="'Inter'" transform="matrix(1,0,0,1,10,10)" stroke-linecap="butt">
      <text x="269.5" xml:space="preserve" y="28.855" clip-path="url(#clipPath2)" stroke="none">categories</text>
    </g>
    <g fill="gray" transform="matrix(1,0,0,1,10,10)" stroke="gray">
      <line y2="35" fill="none" x1="223" clip-path="url(#clipPath2)" x2="382" y1="35"/>
    </g>
    <g stroke-linecap="round" transform="matrix(0.6667,0,0,0.6667,236,48.9942)" fill="silver" image-rendering="optimizeQuality" stroke-linejoin="round" stroke="silver" stroke-width="2" stroke-miterlimit="4">
      <path fill="none" d="M12.4 2.7 C13.3 1.8 14.9 1.8 15.8 2.7 L21.3 8.2 C22.2 9.1 22.2 10.7 21.3 11.6 L17.6 15.3 C16.7 16.2 15.1 16.2 14.2 15.3 L8.7 9.8 C7.8 8.9 7.8 7.3 8.7 6.4 Z" clip-path="url(#clipPath4)"/>
    </g>
    <g stroke-linecap="round" transform="matrix(0.6667,0,0,0.6667,236,48.9942)" fill="silver" image-rendering="optimizeQuality" stroke-linejoin="round" stroke="silver" stroke-width="2" stroke-miterlimit="4">
      <path fill="none" d="M14 7 L17 10" clip-path="url(#clipPath4)"/>
    </g>
    <g stroke-linecap="round" transform="matrix(0.6667,0,0,0.6667,236,48.9942)" fill="silver" image-rendering="optimizeQuality" stroke-linejoin="round" stroke="silver" stroke-width="2" stroke-miterlimit="4">
      <path fill="none" d="M9.4 10.6 L2 18 L2 21 C2 21.6 2.4 22 3 22 L7 22 L7 19 L10 19 L10 16 L12 16 L13.4 14.6" clip-path="url(#clipPath4)"/>
    </g>
    <g stroke-miterlimit="1.45" font-weight="bold" font-family="'Inter'" transform="matrix(1,0,0,1,10,10)" stroke-linecap="butt">
      <text x="248" xml:space="preserve" y="53.6189" clip-path="url(#clipPath2)" stroke="none">id</text>
    </g>
    <g stroke-miterlimit="1.45" font-family="'Inter'" transform="matrix(1,0,0,1,10,10)" stroke-linecap="butt">
      <text x="310" xml:space="preserve" y="53.6189" clip-path="url(#clipPath2)" stroke="none">serial</text>
      <text x="248" xml:space="preserve" y="74.1413" clip-path="url(#clipPath2)" font-weight="bold" stroke="none">title</text>
      <text x="310" xml:space="preserve" y="74.1413" clip-path="url(#clipPath2)" stroke="none">varchar</text>
      <text x="248" xml:space="preserve" y="94.6636" clip-path="url(#clipPath2)" font-weight="bold" stroke="none">parent_id</text>
      <text x="310" xml:space="preserve" y="94.6636" clip-path="url(#clipPath2)" stroke="none">int4</text>
    </g>
    <g stroke-linecap="round" transform="matrix(0.6667,0,0,0.6667,371,90.0389)" fill="silver" image-rendering="optimizeQuality" stroke-linejoin="round" stroke="silver" stroke-width="2" stroke-miterlimit="4">
      <path fill="none" d="M7 7 L17 7 L17 17" clip-path="url(#clipPath4)"/>
    </g>
    <g stroke-linecap="round" transform="matrix(0.6667,0,0,0.6667,371,90.0389)" fill="silver" image-rendering="optimizeQuality" stroke-linejoin="round" stroke="silver" stroke-width="2" stroke-miterlimit="4">
      <path fill="none" d="M7 17 L17 7" clip-path="url(#clipPath4)"/>
    </g>
    <g fill="gray" stroke-miterlimit="1.45" transform="matrix(1,0,0,1,10,10)" stroke-linecap="butt" stroke="gray">
      <path fill="none" d="M162.0293 55.9112 L213.9707 55.9112" clip-path="url(#clipPath2)"/>
    </g>
    <g fill="gray" stroke-miterlimit="1.45" transform="matrix(1,0,0,1,10,10)" stroke-linecap="butt" stroke="gray">
      <path d="M221.9707 55.9112 L209.9707 50.9112 L212.9707 55.9112 L209.9707 60.9112 Z" stroke="none" clip-path="url(#clipPath2)"/>
    </g>
  </g>
</svg>
