<?xml version="1.0" encoding="UTF-8" standalone="no"?>
<svg
   fill-opacity="1"
   color-rendering="auto"
   color-interpolation="auto"
   text-rendering="auto"
   stroke="black"
   stroke-linecap="square"
   width="787"
   stroke-miterlimit="10"
   shape-rendering="auto"
   stroke-opacity="1"
   fill="black"
   stroke-dasharray="none"
   font-weight="normal"
   stroke-width="1"
   height="362"
   font-family="'Dialog'"
   font-style="normal"
   stroke-linejoin="miter"
   font-size="12px"
   stroke-dashoffset="0"
   image-rendering="auto"
   version="1.1"
   id="svg101"
   sodipodi:docname="Full.svg"
   inkscape:version="1.4.2 (ebf0e940d0, 2025-05-08)"
   xmlns:inkscape="http://www.inkscape.org/namespaces/inkscape"
   xmlns:sodipodi="http://sodipodi.sourceforge.net/DTD/sodipodi-0.dtd"
   xmlns="http://www.w3.org/2000/svg"
   xmlns:svg="http://www.w3.org/2000/svg">
  <sodipodi:namedview
     id="namedview101"
     pagecolor="#505050"
     bordercolor="#ffffff"
     borderopacity="1"
     inkscape:showpageshadow="0"
     inkscape:pageopacity="0"
     inkscape:pagecheckerboard="1"
     inkscape:deskcolor="#505050"
     inkscape:zoom="2.0861603"
     inkscape:cx="121.03576"
     inkscape:cy="231.04648"
     inkscape:window-width="1366"
     inkscape:window-height="736"
     inkscape:window-x="0"
     inkscape:window-y="0"
     inkscape:window-maximized="1"
     inkscape:current-layer="svg101" />
  <!--Generated by ySVG 2.5-->
  <defs
     id="genericDefs" />
  <g
     id="g101">
    <defs
       id="defs1">
      <clipPath
         clipPathUnits="userSpaceOnUse"
         id="clipPath1">
        <path
           d="M0 0 L787 0 L787 362 L0 362 L0 0 Z"
           id="path1" />
      </clipPath>
      <clipPath
         clipPathUnits="userSpaceOnUse"
         id="clipPath2">
        <path
           d="M-11.9453 -9.4844 L811.9453 -9.4844 L811.9453 369.4844 L-11.9453 369.4844 L-11.9453 -9.4844 Z"
           id="path2" />
      </clipPath>
    </defs>
    <g
       fill="white"
       stroke="white"
       id="g3" />
    <g
       fill="silver"
       stroke="silver"
       id="g4" />
    <g
       fill="rgb(255,255,204)"
       transform="matrix(0.9552,0,0,0.9552,11.4104,9.0597)"
       stroke="rgb(255,255,204)"
       id="g5">
      <rect
         x="278.2858"
         width="117"
         height="29.733"
         y="313.3441"
         clip-path="url(#clipPath2)"
         stroke="none"
         id="rect4" />
    </g>
    <g
       fill="gray"
       stroke-miterlimit="1.45"
       transform="matrix(0.9552,0,0,0.9552,11.4104,9.0597)"
       stroke-linecap="butt"
       stroke="gray"
       id="g6">
      <rect
         fill="none"
         x="278.2858"
         width="117"
         height="29.733"
         y="313.3441"
         clip-path="url(#clipPath2)"
         id="rect5" />
    </g>
    <g
       stroke-miterlimit="1.45"
       font-size="13px"
       font-family="'Inter'"
       transform="matrix(0.9552,0,0,0.9552,11.4104,9.0597)"
       stroke-linecap="butt"
       id="g7">
      <text
         x="287.2858"
         xml:space="preserve"
         y="331.9379"
         clip-path="url(#clipPath2)"
         stroke="none"
         id="text6">alembic_version</text>
    </g>
    <g
       fill="rgb(255,255,204)"
       transform="matrix(0.9552,0,0,0.9552,11.4104,9.0597)"
       stroke="rgb(255,255,204)"
       id="g8">
      <rect
         x="138.7858"
         width="84"
         height="29.733"
         y="320.7773"
         clip-path="url(#clipPath2)"
         stroke="none"
         id="rect7" />
    </g>
    <g
       fill="gray"
       stroke-miterlimit="1.45"
       transform="matrix(0.9552,0,0,0.9552,11.4104,9.0597)"
       stroke-linecap="butt"
       stroke="gray"
       id="g9">
      <rect
         fill="none"
         x="138.7858"
         width="84"
         height="29.733"
         y="320.7773"
         clip-path="url(#clipPath2)"
         id="rect8" />
    </g>
    <g
       stroke-miterlimit="1.45"
       font-size="13px"
       font-family="'Inter'"
       transform="matrix(0.9552,0,0,0.9552,11.4104,9.0597)"
       stroke-linecap="butt"
       id="g10">
      <text
         x="147.7858"
         xml:space="preserve"
         y="339.3712"
         clip-path="url(#clipPath2)"
         stroke="none"
         id="text9">categories</text>
    </g>
    <g
       fill="rgb(255,255,204)"
       transform="matrix(0.9552,0,0,0.9552,11.4104,9.0597)"
       stroke="rgb(255,255,204)"
       id="g11">
      <rect
         x="-1.2142"
         width="80"
         height="29.733"
         y="313.3441"
         clip-path="url(#clipPath2)"
         stroke="none"
         id="rect10" />
    </g>
    <g
       fill="gray"
       stroke-miterlimit="1.45"
       transform="matrix(0.9552,0,0,0.9552,11.4104,9.0597)"
       stroke-linecap="butt"
       stroke="gray"
       id="g12">
      <rect
         fill="none"
         x="-1.2142"
         width="80"
         height="29.733"
         y="313.3441"
         clip-path="url(#clipPath2)"
         id="rect11" />
    </g>
    <g
       stroke-miterlimit="1.45"
       font-size="13px"
       font-family="'Inter'"
       transform="matrix(0.9552,0,0,0.9552,11.4104,9.0597)"
       stroke-linecap="butt"
       id="g13">
      <text
         x="7.7858"
         xml:space="preserve"
         y="331.9379"
         clip-path="url(#clipPath2)"
         stroke="none"
         id="text12">questions</text>
    </g>
    <g
       fill="rgb(255,255,204)"
       transform="matrix(0.9552,0,0,0.9552,11.4104,9.0597)"
       stroke="rgb(255,255,204)"
       id="g14">
      <rect
         x="488.5"
         width="100"
         height="29.733"
         y="57.1663"
         clip-path="url(#clipPath2)"
         stroke="none"
         id="rect13" />
    </g>
    <g
       fill="gray"
       stroke-miterlimit="1.45"
       transform="matrix(0.9552,0,0,0.9552,11.4104,9.0597)"
       stroke-linecap="butt"
       stroke="gray"
       id="g15">
      <rect
         fill="none"
         x="488.5"
         width="100"
         height="29.733"
         y="57.1663"
         clip-path="url(#clipPath2)"
         id="rect14" />
    </g>
    <g
       stroke-miterlimit="1.45"
       font-size="13px"
       font-family="'Inter'"
       transform="matrix(0.9552,0,0,0.9552,11.4104,9.0597)"
       stroke-linecap="butt"
       id="g16">
      <text
         x="497.5"
         xml:space="preserve"
         y="75.7601"
         clip-path="url(#clipPath2)"
         stroke="none"
         id="text15">contest_type</text>
    </g>
    <g
       fill="rgb(255,255,204)"
       transform="matrix(0.9552,0,0,0.9552,11.4104,9.0597)"
       stroke="rgb(255,255,204)"
       id="g17">
      <rect
         x="223"
         width="163"
         height="29.733"
         y="57.1663"
         clip-path="url(#clipPath2)"
         stroke="none"
         id="rect16" />
    </g>
    <g
       fill="gray"
       stroke-miterlimit="1.45"
       transform="matrix(0.9552,0,0,0.9552,11.4104,9.0597)"
       stroke-linecap="butt"
       stroke="gray"
       id="g18">
      <rect
         fill="none"
         x="223"
         width="163"
         height="29.733"
         y="57.1663"
         clip-path="url(#clipPath2)"
         id="rect17" />
    </g>
    <g
       stroke-miterlimit="1.45"
       font-size="13px"
       font-family="'Inter'"
       transform="matrix(0.9552,0,0,0.9552,11.4104,9.0597)"
       stroke-linecap="butt"
       id="g19">
      <text
         x="232"
         xml:space="preserve"
         y="75.7601"
         clip-path="url(#clipPath2)"
         stroke="none"
         id="text18">program_contest_exam</text>
    </g>
    <g
       fill="rgb(255,255,204)"
       transform="matrix(0.9552,0,0,0.9552,11.4104,9.0597)"
       stroke="rgb(255,255,204)"
       id="g20">
      <rect
         x="687"
         width="115"
         height="29.733"
         y="206.7664"
         clip-path="url(#clipPath2)"
         stroke="none"
         id="rect19" />
    </g>
    <g
       fill="gray"
       stroke-miterlimit="1.45"
       transform="matrix(0.9552,0,0,0.9552,11.4104,9.0597)"
       stroke-linecap="butt"
       stroke="gray"
       id="g21">
      <rect
         fill="none"
         x="687"
         width="115"
         height="29.733"
         y="206.7664"
         clip-path="url(#clipPath2)"
         id="rect20" />
    </g>
    <g
       stroke-miterlimit="1.45"
       font-size="13px"
       font-family="'Inter'"
       transform="matrix(0.9552,0,0,0.9552,11.4104,9.0597)"
       stroke-linecap="butt"
       id="g22">
      <text
         x="696"
         xml:space="preserve"
         y="225.3602"
         clip-path="url(#clipPath2)"
         stroke="none"
         id="text21">education_level</text>
    </g>
    <g
       fill="rgb(255,255,204)"
       transform="matrix(0.9552,0,0,0.9552,11.4104,9.0597)"
       stroke="rgb(255,255,204)"
       id="g23">
      <rect
         x="503.5"
         width="70"
         height="29.733"
         y="106.8993"
         clip-path="url(#clipPath2)"
         stroke="none"
         id="rect22" />
    </g>
    <g
       fill="gray"
       stroke-miterlimit="1.45"
       transform="matrix(0.9552,0,0,0.9552,11.4104,9.0597)"
       stroke-linecap="butt"
       stroke="gray"
       id="g24">
      <rect
         fill="none"
         x="503.5"
         width="70"
         height="29.733"
         y="106.8993"
         clip-path="url(#clipPath2)"
         id="rect23" />
    </g>
    <g
       stroke-miterlimit="1.45"
       font-size="13px"
       font-family="'Inter'"
       transform="matrix(0.9552,0,0,0.9552,11.4104,9.0597)"
       stroke-linecap="butt"
       id="g25">
      <text
         x="512.5"
         xml:space="preserve"
         y="125.4931"
         clip-path="url(#clipPath2)"
         stroke="none"
         id="text24">program</text>
    </g>
    <g
       fill="rgb(255,255,204)"
       transform="matrix(0.9552,0,0,0.9552,11.4104,9.0597)"
       stroke="rgb(255,255,204)"
       id="g26">
      <rect
         x="450"
         width="177"
         height="29.733"
         y="206.3654"
         clip-path="url(#clipPath2)"
         stroke="none"
         id="rect25" />
    </g>
    <g
       fill="gray"
       stroke-miterlimit="1.45"
       transform="matrix(0.9552,0,0,0.9552,11.4104,9.0597)"
       stroke-linecap="butt"
       stroke="gray"
       id="g27">
      <rect
         fill="none"
         x="450"
         width="177"
         height="29.733"
         y="206.3654"
         clip-path="url(#clipPath2)"
         id="rect26" />
    </g>
    <g
       stroke-miterlimit="1.45"
       font-size="13px"
       font-family="'Inter'"
       transform="matrix(0.9552,0,0,0.9552,11.4104,9.0597)"
       stroke-linecap="butt"
       id="g28">
      <text
         x="459"
         xml:space="preserve"
         y="224.9592"
         clip-path="url(#clipPath2)"
         stroke="none"
         id="text27">program_timeline_binding</text>
    </g>
    <g
       fill="rgb(255,255,204)"
       transform="matrix(0.9552,0,0,0.9552,11.4104,9.0597)"
       stroke="rgb(255,255,204)"
       id="g29">
      <rect
         x="219"
         width="171"
         height="29.733"
         y="164.4666"
         clip-path="url(#clipPath2)"
         stroke="none"
         id="rect28" />
    </g>
    <g
       fill="gray"
       stroke-miterlimit="1.45"
       transform="matrix(0.9552,0,0,0.9552,11.4104,9.0597)"
       stroke-linecap="butt"
       stroke="gray"
       id="g30">
      <rect
         fill="none"
         x="219"
         width="171"
         height="29.733"
         y="164.4666"
         clip-path="url(#clipPath2)"
         id="rect29" />
    </g>
    <g
       stroke-miterlimit="1.45"
       font-size="13px"
       font-family="'Inter'"
       transform="matrix(0.9552,0,0,0.9552,11.4104,9.0597)"
       stroke-linecap="butt"
       id="g31">
      <text
         x="228"
         xml:space="preserve"
         y="183.0604"
         clip-path="url(#clipPath2)"
         stroke="none"
         id="text30">notification_subscription</text>
    </g>
    <g
       fill="rgb(255,255,204)"
       transform="matrix(0.9552,0,0,0.9552,11.4104,9.0597)"
       stroke="rgb(255,255,204)"
       id="g32">
      <rect
         x="0"
         width="159"
         height="29.733"
         y="223.1663"
         clip-path="url(#clipPath2)"
         stroke="none"
         id="rect31" />
    </g>
    <g
       fill="gray"
       stroke-miterlimit="1.45"
       transform="matrix(0.9552,0,0,0.9552,11.4104,9.0597)"
       stroke-linecap="butt"
       stroke="gray"
       id="g33">
      <rect
         fill="none"
         x="0"
         width="159"
         height="29.733"
         y="223.1663"
         clip-path="url(#clipPath2)"
         id="rect32" />
    </g>
    <g
       stroke-miterlimit="1.45"
       font-size="13px"
       font-family="'Inter'"
       transform="matrix(0.9552,0,0,0.9552,11.4104,9.0597)"
       stroke-linecap="butt"
       id="g34">
      <text
         x="9"
         xml:space="preserve"
         y="241.7601"
         clip-path="url(#clipPath2)"
         stroke="none"
         id="text33">scheduled_notification</text>
    </g>
    <g
       fill="rgb(255,255,204)"
       transform="matrix(0.9552,0,0,0.9552,11.4104,9.0597)"
       stroke="rgb(255,255,204)"
       id="g35">
      <rect
         x="263"
         width="83"
         height="29.733"
         y="106.8993"
         clip-path="url(#clipPath2)"
         stroke="none"
         id="rect34" />
    </g>
    <g
       fill="gray"
       stroke-miterlimit="1.45"
       transform="matrix(0.9552,0,0,0.9552,11.4104,9.0597)"
       stroke-linecap="butt"
       stroke="gray"
       id="g36">
      <rect
         fill="none"
         x="263"
         width="83"
         height="29.733"
         y="106.8993"
         clip-path="url(#clipPath2)"
         id="rect35" />
    </g>
    <g
       stroke-miterlimit="1.45"
       font-size="13px"
       font-family="'Inter'"
       transform="matrix(0.9552,0,0,0.9552,11.4104,9.0597)"
       stroke-linecap="butt"
       id="g37">
      <text
         x="272"
         xml:space="preserve"
         y="125.4931"
         clip-path="url(#clipPath2)"
         stroke="none"
         id="text36">score_stat</text>
    </g>
    <g
       fill="rgb(255,255,204)"
       transform="matrix(0.9552,0,0,0.9552,11.4104,9.0597)"
       stroke="rgb(255,255,204)"
       id="g38">
      <rect
         x="250"
         width="109"
         height="29.733"
         y="251.7494"
         clip-path="url(#clipPath2)"
         stroke="none"
         id="rect37" />
    </g>
    <g
       fill="gray"
       stroke-miterlimit="1.45"
       transform="matrix(0.9552,0,0,0.9552,11.4104,9.0597)"
       stroke-linecap="butt"
       stroke="gray"
       id="g39">
      <rect
         fill="none"
         x="250"
         width="109"
         height="29.733"
         y="251.7494"
         clip-path="url(#clipPath2)"
         id="rect38" />
    </g>
    <g
       stroke-miterlimit="1.45"
       font-size="13px"
       font-family="'Inter'"
       transform="matrix(0.9552,0,0,0.9552,11.4104,9.0597)"
       stroke-linecap="butt"
       id="g40">
      <text
         x="259"
         xml:space="preserve"
         y="270.3432"
         clip-path="url(#clipPath2)"
         stroke="none"
         id="text39">timeline_event</text>
    </g>
    <g
       fill="rgb(255,255,204)"
       transform="matrix(0.9552,0,0,0.9552,11.4104,9.0597)"
       stroke="rgb(255,255,204)"
       id="g41">
      <rect
         x="689"
         width="111"
         height="29.733"
         y="72.4338"
         clip-path="url(#clipPath2)"
         stroke="none"
         id="rect40" />
    </g>
    <g
       fill="gray"
       stroke-miterlimit="1.45"
       transform="matrix(0.9552,0,0,0.9552,11.4104,9.0597)"
       stroke-linecap="butt"
       stroke="gray"
       id="g42">
      <rect
         fill="none"
         x="689"
         width="111"
         height="29.733"
         y="72.4338"
         clip-path="url(#clipPath2)"
         id="rect41" />
    </g>
    <g
       stroke-miterlimit="1.45"
       font-size="13px"
       font-family="'Inter'"
       transform="matrix(0.9552,0,0,0.9552,11.4104,9.0597)"
       stroke-linecap="butt"
       id="g43">
      <text
         x="698"
         xml:space="preserve"
         y="91.0276"
         clip-path="url(#clipPath2)"
         stroke="none"
         id="text42">study_duration</text>
    </g>
    <g
       fill="rgb(255,255,204)"
       transform="matrix(0.9552,0,0,0.9552,11.4104,9.0597)"
       stroke="rgb(255,255,204)"
       id="g44">
      <rect
         x="700.5"
         width="88"
         height="29.733"
         y="122.1668"
         clip-path="url(#clipPath2)"
         stroke="none"
         id="rect43" />
    </g>
    <g
       fill="gray"
       stroke-miterlimit="1.45"
       transform="matrix(0.9552,0,0,0.9552,11.4104,9.0597)"
       stroke-linecap="butt"
       stroke="gray"
       id="g45">
      <rect
         fill="none"
         x="700.5"
         width="88"
         height="29.733"
         y="122.1668"
         clip-path="url(#clipPath2)"
         id="rect44" />
    </g>
    <g
       stroke-miterlimit="1.45"
       font-size="13px"
       font-family="'Inter'"
       transform="matrix(0.9552,0,0,0.9552,11.4104,9.0597)"
       stroke-linecap="butt"
       id="g46">
      <text
         x="709.5"
         xml:space="preserve"
         y="140.7607"
         clip-path="url(#clipPath2)"
         stroke="none"
         id="text45">study_form</text>
    </g>
    <g
       fill="rgb(255,255,204)"
       transform="matrix(0.9552,0,0,0.9552,11.4104,9.0597)"
       stroke="rgb(255,255,204)"
       id="g47">
      <rect
         x="506.5"
         width="64"
         height="29.733"
         y="7.4333"
         clip-path="url(#clipPath2)"
         stroke="none"
         id="rect46" />
    </g>
    <g
       fill="gray"
       stroke-miterlimit="1.45"
       transform="matrix(0.9552,0,0,0.9552,11.4104,9.0597)"
       stroke-linecap="butt"
       stroke="gray"
       id="g48">
      <rect
         fill="none"
         x="506.5"
         width="64"
         height="29.733"
         y="7.4333"
         clip-path="url(#clipPath2)"
         id="rect47" />
    </g>
    <g
       stroke-miterlimit="1.45"
       font-size="13px"
       font-family="'Inter'"
       transform="matrix(0.9552,0,0,0.9552,11.4104,9.0597)"
       stroke-linecap="butt"
       id="g49">
      <text
         x="515.5"
         xml:space="preserve"
         y="26.0271"
         clip-path="url(#clipPath2)"
         stroke="none"
         id="text48">subject</text>
    </g>
    <g
       fill="rgb(255,255,204)"
       transform="matrix(0.9552,0,0,0.9552,11.4104,9.0597)"
       stroke="rgb(255,255,204)"
       id="g50">
      <rect
         x="256"
         width="97"
         height="29.733"
         y="0"
         clip-path="url(#clipPath2)"
         stroke="none"
         id="rect49" />
    </g>
    <g
       fill="gray"
       stroke-miterlimit="1.45"
       transform="matrix(0.9552,0,0,0.9552,11.4104,9.0597)"
       stroke-linecap="butt"
       stroke="gray"
       id="g51">
      <rect
         fill="none"
         x="256"
         width="97"
         height="29.733"
         y="0"
         clip-path="url(#clipPath2)"
         id="rect50" />
    </g>
    <g
       stroke-miterlimit="1.45"
       font-size="13px"
       font-family="'Inter'"
       transform="matrix(0.9552,0,0,0.9552,11.4104,9.0597)"
       stroke-linecap="butt"
       id="g52">
      <text
         x="265"
         xml:space="preserve"
         y="18.5938"
         clip-path="url(#clipPath2)"
         stroke="none"
         id="text51">subject_alias</text>
    </g>
    <g
       fill="rgb(255,255,204)"
       transform="matrix(0.9552,0,0,0.9552,11.4104,9.0597)"
       stroke="rgb(255,255,204)"
       id="g53">
      <rect
         x="464"
         width="149"
         height="29.733"
         y="295.6782"
         clip-path="url(#clipPath2)"
         stroke="none"
         id="rect52" />
    </g>
    <g
       fill="gray"
       stroke-miterlimit="1.45"
       transform="matrix(0.9552,0,0,0.9552,11.4104,9.0597)"
       stroke-linecap="butt"
       stroke="gray"
       id="g54">
      <rect
         fill="none"
         x="464"
         width="149"
         height="29.733"
         y="295.6782"
         clip-path="url(#clipPath2)"
         id="rect53" />
    </g>
    <g
       stroke-miterlimit="1.45"
       font-size="13px"
       font-family="'Inter'"
       transform="matrix(0.9552,0,0,0.9552,11.4104,9.0597)"
       stroke-linecap="butt"
       id="g55">
      <text
         x="473"
         xml:space="preserve"
         y="314.272"
         clip-path="url(#clipPath2)"
         stroke="none"
         id="text54">timeline_event_name</text>
    </g>
    <g
       fill="rgb(255,255,204)"
       transform="matrix(0.9552,0,0,0.9552,11.4104,9.0597)"
       stroke="rgb(255,255,204)"
       id="g56">
      <rect
         x="694"
         width="101"
         height="29.733"
         y="256.4994"
         clip-path="url(#clipPath2)"
         stroke="none"
         id="rect55" />
    </g>
    <g
       fill="gray"
       stroke-miterlimit="1.45"
       transform="matrix(0.9552,0,0,0.9552,11.4104,9.0597)"
       stroke-linecap="butt"
       stroke="gray"
       id="g57">
      <rect
         fill="none"
         x="694"
         width="101"
         height="29.733"
         y="256.4994"
         clip-path="url(#clipPath2)"
         id="rect56" />
    </g>
    <g
       stroke-miterlimit="1.45"
       font-size="13px"
       font-family="'Inter'"
       transform="matrix(0.9552,0,0,0.9552,11.4104,9.0597)"
       stroke-linecap="butt"
       id="g58">
      <text
         x="703"
         xml:space="preserve"
         y="275.0932"
         clip-path="url(#clipPath2)"
         stroke="none"
         id="text57">timeline_type</text>
    </g>
    <g
       fill="rgb(255,255,204)"
       transform="matrix(0.9552,0,0,0.9552,11.4104,9.0597)"
       stroke="rgb(255,255,204)"
       id="g59">
      <rect
         x="512"
         width="53"
         height="29.733"
         y="156.6323"
         clip-path="url(#clipPath2)"
         stroke="none"
         id="rect58" />
    </g>
    <g
       fill="gray"
       stroke-miterlimit="1.45"
       transform="matrix(0.9552,0,0,0.9552,11.4104,9.0597)"
       stroke-linecap="butt"
       stroke="gray"
       id="g60">
      <rect
         fill="none"
         x="512"
         width="53"
         height="29.733"
         y="156.6323"
         clip-path="url(#clipPath2)"
         id="rect59" />
    </g>
    <g
       stroke-miterlimit="1.45"
       font-size="13px"
       font-family="'Inter'"
       transform="matrix(0.9552,0,0,0.9552,11.4104,9.0597)"
       stroke-linecap="butt"
       id="g61">
      <text
         x="521"
         xml:space="preserve"
         y="175.2262"
         clip-path="url(#clipPath2)"
         stroke="none"
         id="text60">users</text>
    </g>
    <g
       fill="gray"
       stroke-miterlimit="1.45"
       transform="matrix(0.9552,0,0,0.9552,11.4104,9.0597)"
       stroke-linecap="butt"
       stroke="gray"
       id="g62">
      <path
         fill="none"
         d="M386.025 72.0328 L480.475 72.0328"
         clip-path="url(#clipPath2)"
         id="path61" />
    </g>
    <g
       fill="gray"
       stroke-miterlimit="1.45"
       transform="matrix(0.9552,0,0,0.9552,11.4104,9.0597)"
       stroke-linecap="butt"
       stroke="gray"
       id="g100">
      <path
         d="M488.475 72.0328 L476.475 67.0328 L479.475 72.0328 L476.475 77.0328 Z"
         stroke="none"
         clip-path="url(#clipPath2)"
         id="path62" />
      <path
         fill="none"
         d="M573.5408 131.6768 L657 131.6768 L657 214.1996 L678.9707 214.1996"
         clip-path="url(#clipPath2)"
         id="path63" />
      <path
         d="M686.9707 214.1996 L674.9707 209.1996 L677.9707 214.1996 L674.9707 219.1996 Z"
         clip-path="url(#clipPath2)"
         stroke="none"
         id="path64" />
      <path
         fill="none"
         d="M627.0293 221.2319 L657 221.2319 L657 229.0662 L678.9707 229.0662"
         clip-path="url(#clipPath2)"
         id="path65" />
      <path
         d="M686.9707 229.0662 L674.9707 224.0662 L677.9707 229.0662 L674.9707 234.0662 Z"
         clip-path="url(#clipPath2)"
         stroke="none"
         id="path66" />
      <path
         fill="none"
         d="M159.0293 230.5995 L189 230.5995 L189 179.3331 L210.9707 179.3331"
         clip-path="url(#clipPath2)"
         id="path67" />
      <path
         d="M218.9707 179.3331 L206.9707 174.3331 L209.9707 179.3331 L206.9707 184.3331 Z"
         clip-path="url(#clipPath2)"
         stroke="none"
         id="path68" />
      <path
         fill="none"
         d="M390.0488 169.4221 L415 169.4221 L415 131.6768 L495.4568 131.6768"
         clip-path="url(#clipPath2)"
         id="path69" />
      <path
         d="M503.4568 131.6768 L491.4568 126.6768 L494.4568 131.6768 L491.4568 136.6768 Z"
         clip-path="url(#clipPath2)"
         stroke="none"
         id="path70" />
      <path
         fill="none"
         d="M386.0283 81.9438 L415 81.9438 L415 111.8548 L495.4568 111.8548"
         clip-path="url(#clipPath2)"
         id="path71" />
      <path
         d="M503.4568 111.8548 L491.4568 106.8548 L494.4568 111.8548 L491.4568 116.8548 Z"
         clip-path="url(#clipPath2)"
         stroke="none"
         id="path72" />
      <path
         fill="none"
         d="M346.0385 121.7658 L495.4615 121.7658"
         clip-path="url(#clipPath2)"
         id="path73" />
      <path
         d="M503.4615 121.7658 L491.4615 116.7658 L494.4615 121.7658 L491.4615 126.7658 Z"
         clip-path="url(#clipPath2)"
         stroke="none"
         id="path74" />
      <path
         fill="none"
         d="M359.0273 259.1827 L415 259.1827 L415 221.2319 L441.9658 221.2319"
         clip-path="url(#clipPath2)"
         id="path75" />
      <path
         d="M449.9658 221.2319 L437.9658 216.2319 L440.9658 221.2319 L437.9658 226.2319 Z"
         clip-path="url(#clipPath2)"
         stroke="none"
         id="path76" />
      <path
         fill="none"
         d="M573.5359 111.8548 L647 111.8548 L647 87.3003 L680.959 87.3003"
         clip-path="url(#clipPath2)"
         id="path77" />
      <path
         d="M688.959 87.3003 L676.959 82.3003 L679.959 87.3003 L676.959 92.3003 Z"
         clip-path="url(#clipPath2)"
         stroke="none"
         id="path78" />
      <path
         fill="none"
         d="M573.5457 121.7658 L667 121.7658 L667 129.6001 L692.4673 129.6001"
         clip-path="url(#clipPath2)"
         id="path79" />
      <path
         d="M700.4673 129.6001 L688.4673 124.6001 L691.4673 129.6001 L688.4673 134.6001 Z"
         clip-path="url(#clipPath2)"
         stroke="none"
         id="path80" />
      <path
         fill="none"
         d="M627.0391 211.3209 L647 211.3209 L647 144.4666 L652 144.4666 Q652 139.4666 657 139.4666 Q662 139.4666 662 144.4666 L692.4739 144.4666"
         clip-path="url(#clipPath2)"
         id="path81" />
      <path
         d="M700.4739 144.4666 L688.4739 139.4666 L691.4739 144.4666 L688.4739 149.4666 Z"
         clip-path="url(#clipPath2)"
         stroke="none"
         id="path82" />
      <path
         fill="none"
         d="M386.0283 62.1218 L415 62.1218 L415 29.733 L498.4553 29.733"
         clip-path="url(#clipPath2)"
         id="path83" />
      <path
         d="M506.4553 29.733 L494.4553 24.733 L497.4553 29.733 L494.4553 34.733 Z"
         clip-path="url(#clipPath2)"
         stroke="none"
         id="path84" />
      <path
         fill="none"
         d="M353.0375 14.8665 L498.4625 14.8665"
         clip-path="url(#clipPath2)"
         id="path85" />
      <path
         d="M506.4625 14.8665 L494.4625 9.8665 L497.4625 14.8665 L494.4625 19.8665 Z"
         clip-path="url(#clipPath2)"
         stroke="none"
         id="path86" />
      <path
         fill="none"
         d="M159.0293 245.466 L189 245.466 L189 266.6159 L241.9702 266.6159"
         clip-path="url(#clipPath2)"
         id="path87" />
      <path
         d="M249.9702 266.6159 L237.9702 261.6159 L240.9702 266.6159 L237.9702 271.6159 Z"
         clip-path="url(#clipPath2)"
         stroke="none"
         id="path88" />
      <path
         fill="none"
         d="M359.0273 274.0492 L415 274.0492 L415 310.5447 L455.9521 310.5447"
         clip-path="url(#clipPath2)"
         id="path89" />
      <path
         d="M463.9521 310.5447 L451.9521 305.5447 L454.9521 310.5447 L451.9521 315.5447 Z"
         clip-path="url(#clipPath2)"
         stroke="none"
         id="path90" />
      <path
         fill="none"
         d="M390.0342 189.2441 L425 189.2441 L425 216.2319 Q430 216.2319 430 221.2319 Q430 226.2319 425 226.2319 L425 278.7992 L685.9672 278.7992"
         clip-path="url(#clipPath2)"
         id="path91" />
      <path
         d="M693.9672 278.7992 L681.9672 273.7992 L684.9672 278.7992 L681.9672 283.7992 Z"
         clip-path="url(#clipPath2)"
         stroke="none"
         id="path92" />
      <path
         fill="none"
         d="M627.0391 231.1429 L647 231.1429 L647 263.9327 L685.9541 263.9327"
         clip-path="url(#clipPath2)"
         id="path93" />
      <path
         d="M693.9541 263.9327 L681.9541 258.9327 L684.9541 263.9327 L681.9541 268.9327 Z"
         clip-path="url(#clipPath2)"
         stroke="none"
         id="path94" />
      <path
         fill="none"
         d="M390.0342 179.3331 L425 179.3331 L425 171.4989 L503.9575 171.4989"
         clip-path="url(#clipPath2)"
         id="path95" />
      <path
         d="M511.9575 171.4989 L499.9575 166.4989 L502.9575 171.4989 L499.9575 176.4989 Z"
         clip-path="url(#clipPath2)"
         stroke="none"
         id="path96" />
      <path
         fill="none"
         d="M180 350.5475 L180 360 L250 360 L250 330 L230.8124 330"
         clip-path="url(#clipPath2)"
         id="path97" />
      <path
         d="M222.8124 330 L234.8124 335 L231.8124 330 L234.8124 325 Z"
         clip-path="url(#clipPath2)"
         stroke="none"
         id="path98" />
      <path
         fill="none"
         d="M78.8151 330 L130.7565 330"
         clip-path="url(#clipPath2)"
         id="path99" />
      <path
         d="M138.7565 330 L126.7565 325 L129.7565 330 L126.7565 335 Z"
         clip-path="url(#clipPath2)"
         stroke="none"
         id="path100" />
    </g>
  </g>
</svg>
