<?xml version="1.0" encoding="UTF-8"?><svg xmlns="http://www.w3.org/2000/svg" xmlns:xlink="http://www.w3.org/1999/xlink" fill-opacity="1" color-rendering="auto" color-interpolation="auto" text-rendering="auto" stroke="black" stroke-linecap="square" width="518" stroke-miterlimit="10" shape-rendering="auto" stroke-opacity="1" fill="black" stroke-dasharray="none" font-weight="normal" stroke-width="1" height="474" font-family="'Dialog'" font-style="normal" stroke-linejoin="miter" font-size="12px" stroke-dashoffset="0" image-rendering="auto">
  <!--Generated by ySVG 2.5-->
  <defs id="genericDefs"/>
  <g>
    <defs id="defs1">
      <clipPath clipPathUnits="userSpaceOnUse" id="clipPath1">
        <path d="M0 0 L518 0 L518 474 L0 474 L0 0 Z"/>
      </clipPath>
      <clipPath clipPathUnits="userSpaceOnUse" id="clipPath2">
        <path d="M-9.5607 -9.7119 L469.5607 -9.7119 L469.5607 428.7119 L-9.5607 428.7119 L-9.5607 -9.7119 Z"/>
      </clipPath>
      <clipPath clipPathUnits="userSpaceOnUse" id="clipPath3">
        <path d="M-9.5607 -10.2227 L469.5607 -10.2227 L469.5607 428.2011 L-9.5607 428.2011 L-9.5607 -10.2227 Z"/>
      </clipPath>
      <clipPath clipPathUnits="userSpaceOnUse" id="clipPath4">
        <path d="M0 -0 L0 24 L24 24 L24 -0 Z"/>
      </clipPath>
      <clipPath clipPathUnits="userSpaceOnUse" id="clipPath5">
        <path d="M-9.5607 -9.7898 L469.5607 -9.7898 L469.5607 428.6341 L-9.5607 428.6341 L-9.5607 -9.7898 Z"/>
      </clipPath>
      <clipPath clipPathUnits="userSpaceOnUse" id="clipPath6">
        <path d="M0 0 L0 24 L24 24 L24 0 Z"/>
      </clipPath>
      <clipPath clipPathUnits="userSpaceOnUse" id="clipPath7">
        <path d="M-9.5607 -10.3121 L469.5607 -10.3121 L469.5607 428.1117 L-9.5607 428.1117 L-9.5607 -10.3121 Z"/>
      </clipPath>
      <clipPath clipPathUnits="userSpaceOnUse" id="clipPath8">
        <path d="M-9.5607 -9.8345 L469.5607 -9.8345 L469.5607 428.5894 L-9.5607 428.5894 L-9.5607 -9.8345 Z"/>
      </clipPath>
      <clipPath clipPathUnits="userSpaceOnUse" id="clipPath9">
        <path d="M-9.5607 -10.4449 L469.5607 -10.4449 L469.5607 427.9789 L-9.5607 427.9789 L-9.5607 -10.4449 Z"/>
      </clipPath>
      <clipPath clipPathUnits="userSpaceOnUse" id="clipPath10">
        <path d="M-9.5607 -10.1346 L469.5607 -10.1346 L469.5607 428.2892 L-9.5607 428.2892 L-9.5607 -10.1346 Z"/>
      </clipPath>
      <clipPath clipPathUnits="userSpaceOnUse" id="clipPath11">
        <path d="M-10.0607 -9.9596 L469.0607 -9.9596 L469.0607 428.4642 L-10.0607 428.4642 L-10.0607 -9.9596 Z"/>
      </clipPath>
      <clipPath clipPathUnits="userSpaceOnUse" id="clipPath12">
        <path d="M-0 -0 L-0 24 L24 24 L24 -0 Z"/>
      </clipPath>
      <clipPath clipPathUnits="userSpaceOnUse" id="clipPath13">
        <path d="M-10.0607 -10.0043 L469.0607 -10.0043 L469.0607 428.4195 L-10.0607 428.4195 L-10.0607 -10.0043 Z"/>
      </clipPath>
      <clipPath clipPathUnits="userSpaceOnUse" id="clipPath14">
        <path d="M-0 0 L-0 24 L24 24 L24 0 Z"/>
      </clipPath>
      <clipPath clipPathUnits="userSpaceOnUse" id="clipPath15">
        <path d="M-9.5607 -10.0062 L469.5607 -10.0062 L469.5607 428.4176 L-9.5607 428.4176 L-9.5607 -10.0062 Z"/>
      </clipPath>
      <clipPath clipPathUnits="userSpaceOnUse" id="clipPath16">
        <path d="M-9.5607 -10.5286 L469.5607 -10.5286 L469.5607 427.8953 L-9.5607 427.8953 L-9.5607 -10.5286 Z"/>
      </clipPath>
      <clipPath clipPathUnits="userSpaceOnUse" id="clipPath17">
        <path d="M-9.5607 -10.0509 L469.5607 -10.0509 L469.5607 428.3729 L-9.5607 428.3729 L-9.5607 -10.0509 Z"/>
      </clipPath>
      <clipPath clipPathUnits="userSpaceOnUse" id="clipPath18">
        <path d="M-9.5607 -10.5733 L469.5607 -10.5733 L469.5607 427.8505 L-9.5607 427.8505 L-9.5607 -10.5733 Z"/>
      </clipPath>
    </defs>
    <g fill="white" stroke="white">
      <path d="M14.4375 454.4375 Q16.1094 454.4375 16.875 455.0938 Q17.6406 455.75 17.6406 456.9531 Q17.6406 457.6562 17.3281 458.2812 Q17.0156 458.8906 16.2656 459.2812 Q15.5156 459.6562 14.2344 459.6562 L13.25 459.6562 L13.25 463 L12.1562 463 L12.1562 454.4375 L14.4375 454.4375 ZM14.3438 455.3594 L13.25 455.3594 L13.25 458.7344 L14.1094 458.7344 Q15.3281 458.7344 15.9219 458.3438 Q16.5312 457.9531 16.5312 457 Q16.5312 456.1719 16 455.7656 Q15.4688 455.3594 14.3438 455.3594 ZM24.8694 459.7656 Q24.8694 461.375 24.0569 462.25 Q23.2444 463.125 21.8694 463.125 Q21.0257 463.125 20.3538 462.7344 Q19.6819 462.3438 19.2913 461.5938 Q18.9163 460.8438 18.9163 459.7656 Q18.9163 458.1719 19.7132 457.3125 Q20.5257 456.4531 21.9007 456.4531 Q22.7913 456.4531 23.4476 456.8438 Q24.1194 457.2344 24.4944 457.9688 Q24.8694 458.7031 24.8694 459.7656 ZM20.0101 459.7656 Q20.0101 460.9062 20.4632 461.5781 Q20.9163 462.25 21.9007 462.25 Q22.8694 462.25 23.3226 461.5781 Q23.7757 460.9062 23.7757 459.7656 Q23.7757 458.625 23.3226 457.9844 Q22.8694 457.3438 21.8851 457.3438 Q20.9007 457.3438 20.4476 457.9844 Q20.0101 458.625 20.0101 459.7656 ZM30.692 459.3594 Q30.5357 458.875 30.4107 458.4062 Q30.3014 457.9219 30.2545 457.6562 L30.2076 457.6562 Q30.1451 457.9219 30.0357 458.4062 Q29.942 458.875 29.7701 459.375 L28.6139 462.9844 L27.4107 462.9844 L25.6451 456.5625 L26.7389 456.5625 L27.6295 459.9844 Q27.7701 460.5 27.8795 461.0312 Q28.0045 461.5625 28.0514 461.9062 L28.0982 461.9062 Q28.1451 461.7031 28.2076 461.4062 Q28.2857 461.1094 28.3639 460.7812 Q28.442 460.4375 28.5357 460.1875 L29.6764 456.5625 L30.817 456.5625 L31.9264 460.1875 Q32.067 460.5938 32.192 461.0781 Q32.317 461.5469 32.3639 461.8906 L32.4107 461.8906 Q32.442 461.5938 32.567 461.0781 Q32.692 460.5469 32.8326 459.9844 L33.7389 456.5625 L34.817 456.5625 L33.0357 462.9844 L31.8014 462.9844 L30.692 459.3594 ZM38.4522 456.4531 Q39.2803 456.4531 39.8741 456.8125 Q40.4678 457.1719 40.7803 457.8281 Q41.1084 458.4688 41.1084 459.3594 L41.1084 459.9844 L36.7022 459.9844 Q36.7334 461.0781 37.2647 461.6562 Q37.7959 462.2188 38.7491 462.2188 Q39.3741 462.2188 39.8428 462.1094 Q40.3116 461.9844 40.8272 461.7812 L40.8272 462.7031 Q40.3272 462.9219 39.8428 463.0156 Q39.3741 463.125 38.7022 463.125 Q37.7959 463.125 37.0928 462.75 Q36.3897 462.375 35.9991 461.6406 Q35.6084 460.9062 35.6084 459.8281 Q35.6084 458.7812 35.9678 458.0312 Q36.3272 457.2656 36.9678 456.8594 Q37.6084 456.4531 38.4522 456.4531 ZM38.4366 457.3125 Q37.6866 457.3125 37.2491 457.7969 Q36.8116 458.2812 36.7334 459.1406 L39.9991 459.1406 Q39.9991 458.3281 39.6241 457.8281 Q39.2491 457.3125 38.4366 457.3125 ZM45.7359 456.4531 Q45.9234 456.4531 46.1265 456.4688 Q46.3452 456.4844 46.5015 456.5156 L46.3609 457.4844 Q46.2046 457.4531 46.0171 457.4375 Q45.8296 457.4062 45.6734 457.4062 Q45.1734 457.4062 44.7359 457.6875 Q44.314 457.9531 44.0484 458.4375 Q43.7984 458.9219 43.7984 459.5625 L43.7984 463 L42.7359 463 L42.7359 456.5625 L43.6109 456.5625 L43.7202 457.75 L43.7671 457.75 Q44.0796 457.2188 44.564 456.8438 Q45.064 456.4531 45.7359 456.4531 ZM50.1763 456.4531 Q51.0044 456.4531 51.5981 456.8125 Q52.1919 457.1719 52.5044 457.8281 Q52.8325 458.4688 52.8325 459.3594 L52.8325 459.9844 L48.4263 459.9844 Q48.4575 461.0781 48.9888 461.6562 Q49.52 462.2188 50.4731 462.2188 Q51.0981 462.2188 51.5669 462.1094 Q52.0356 461.9844 52.5513 461.7812 L52.5513 462.7031 Q52.0513 462.9219 51.5669 463.0156 Q51.0981 463.125 50.4263 463.125 Q49.52 463.125 48.8169 462.75 Q48.1138 462.375 47.7231 461.6406 Q47.3325 460.9062 47.3325 459.8281 Q47.3325 458.7812 47.6919 458.0312 Q48.0513 457.2656 48.6919 456.8594 Q49.3325 456.4531 50.1763 456.4531 ZM50.1606 457.3125 Q49.4106 457.3125 48.9731 457.7969 Q48.5356 458.2812 48.4575 459.1406 L51.7231 459.1406 Q51.7231 458.3281 51.3481 457.8281 Q50.9731 457.3125 50.1606 457.3125 ZM56.7412 463.125 Q55.5381 463.125 54.8193 462.2969 Q54.1006 461.4531 54.1006 459.7969 Q54.1006 458.1406 54.8193 457.2969 Q55.5537 456.4531 56.7568 456.4531 Q57.5068 456.4531 57.9756 456.7344 Q58.4443 457 58.7412 457.3906 L58.8193 457.3906 Q58.8037 457.2344 58.7724 456.9375 Q58.7412 456.625 58.7412 456.4531 L58.7412 453.875 L59.8037 453.875 L59.8037 463 L58.9599 463 L58.8037 462.1406 L58.7412 462.1406 Q58.4599 462.5469 57.9756 462.8438 Q57.5068 463.125 56.7412 463.125 ZM56.9131 462.25 Q57.9287 462.25 58.3349 461.6875 Q58.7568 461.125 58.7568 460 L58.7568 459.8125 Q58.7568 458.6094 58.3662 457.9688 Q57.9756 457.3281 56.8974 457.3281 Q56.0537 457.3281 55.6162 458.0156 Q55.1943 458.6875 55.1943 459.8125 Q55.1943 460.9688 55.6162 461.6094 Q56.0537 462.25 56.9131 462.25 ZM66.0225 456.0938 Q66.0225 456.5156 66.0069 456.875 Q65.9913 457.2188 65.96 457.4219 L66.0225 457.4219 Q66.3038 457.0156 66.7725 456.7344 Q67.2569 456.4531 68.0069 456.4531 Q69.21 456.4531 69.9288 457.2969 Q70.6631 458.125 70.6631 459.7812 Q70.6631 461.4375 69.9288 462.2812 Q69.1944 463.125 68.0069 463.125 Q67.2569 463.125 66.7725 462.8438 Q66.3038 462.5625 66.0225 462.1875 L65.9288 462.1875 L65.7256 463 L64.96 463 L64.96 453.875 L66.0225 453.875 L66.0225 456.0938 ZM67.835 457.3438 Q66.8194 457.3438 66.4131 457.9375 Q66.0225 458.5156 66.0225 459.75 L66.0225 459.7969 Q66.0225 460.9844 66.4131 461.625 Q66.8038 462.25 67.8506 462.25 Q68.7256 462.25 69.1475 461.6094 Q69.5694 460.9688 69.5694 459.7656 Q69.5694 457.3438 67.835 457.3438 ZM71.3401 456.5625 L72.4651 456.5625 L73.8557 460.2344 Q74.0432 460.7031 74.1838 461.1406 Q74.3244 461.5781 74.4026 461.9844 L74.4494 461.9844 Q74.5119 461.6875 74.6682 461.2031 Q74.8244 460.7031 74.9963 460.2188 L76.3088 456.5625 L77.4494 456.5625 L74.6682 463.8906 Q74.3401 464.7969 73.7932 465.3281 Q73.2619 465.875 72.3401 465.875 Q72.0432 465.875 71.8244 465.8438 Q71.6057 465.8125 71.4494 465.7812 L71.4494 464.9375 Q71.5901 464.9688 71.7776 464.9844 Q71.9651 465.0156 72.1682 465.0156 Q72.7151 465.0156 73.0588 464.7031 Q73.4026 464.3906 73.5901 463.875 L73.9338 463.0312 L71.3401 456.5625 ZM80.5801 456.5625 L81.7051 456.5625 L83.0958 460.2344 Q83.2833 460.7031 83.4239 461.1406 Q83.5645 461.5781 83.6426 461.9844 L83.6895 461.9844 Q83.752 461.6875 83.9083 461.2031 Q84.0645 460.7031 84.2364 460.2188 L85.5489 456.5625 L86.6895 456.5625 L83.9083 463.8906 Q83.5801 464.7969 83.0333 465.3281 Q82.502 465.875 81.5801 465.875 Q81.2833 465.875 81.0645 465.8438 Q80.8458 465.8125 80.6895 465.7812 L80.6895 464.9375 Q80.8301 464.9688 81.0176 464.9844 Q81.2051 465.0156 81.4083 465.0156 Q81.9551 465.0156 82.2989 464.7031 Q82.6426 464.3906 82.8301 463.875 L83.1739 463.0312 L80.5801 456.5625 ZM88.9346 463 L87.8408 463 L87.8408 454.4375 L92.6377 454.4375 L92.6377 455.375 L88.9346 455.375 L88.9346 458.4219 L92.4033 458.4219 L92.4033 459.3594 L88.9346 459.3594 L88.9346 463 ZM94.4751 454.1562 Q94.7095 454.1562 94.897 454.3281 Q95.0845 454.4844 95.0845 454.8281 Q95.0845 455.1562 94.897 455.3281 Q94.7095 455.5 94.4751 455.5 Q94.2095 455.5 94.022 455.3281 Q93.8501 455.1562 93.8501 454.8281 Q93.8501 454.4844 94.022 454.3281 Q94.2095 454.1562 94.4751 454.1562 ZM94.9907 456.5625 L94.9907 463 L93.9282 463 L93.9282 456.5625 L94.9907 456.5625 ZM98.0867 463 L97.0242 463 L97.0242 453.875 L98.0867 453.875 L98.0867 463 ZM102.6046 456.4531 Q103.4328 456.4531 104.0265 456.8125 Q104.6203 457.1719 104.9328 457.8281 Q105.2609 458.4688 105.2609 459.3594 L105.2609 459.9844 L100.8546 459.9844 Q100.8859 461.0781 101.4171 461.6562 Q101.9484 462.2188 102.9015 462.2188 Q103.5265 462.2188 103.9953 462.1094 Q104.464 461.9844 104.9796 461.7812 L104.9796 462.7031 Q104.4796 462.9219 103.9953 463.0156 Q103.5265 463.125 102.8546 463.125 Q101.9484 463.125 101.2453 462.75 Q100.5421 462.375 100.1515 461.6406 Q99.7609 460.9062 99.7609 459.8281 Q99.7609 458.7812 100.1203 458.0312 Q100.4796 457.2656 101.1203 456.8594 Q101.7609 456.4531 102.6046 456.4531 ZM102.589 457.3125 Q101.839 457.3125 101.4015 457.7969 Q100.964 458.2812 100.8859 459.1406 L104.1515 459.1406 Q104.1515 458.3281 103.7765 457.8281 Q103.4015 457.3125 102.589 457.3125 ZM111.0758 461.2188 Q111.0758 462.1562 110.3727 462.6406 Q109.6852 463.125 108.5133 463.125 Q107.8414 463.125 107.3571 463.0156 Q106.8727 462.9062 106.4977 462.7188 L106.4977 461.75 Q106.8883 461.9375 107.4196 462.1094 Q107.9664 462.2656 108.5289 462.2656 Q109.3414 462.2656 109.7008 462.0156 Q110.0602 461.75 110.0602 461.3125 Q110.0602 461.0781 109.9196 460.8906 Q109.7946 460.7031 109.4508 460.5156 Q109.1071 460.3125 108.4821 460.0781 Q107.8571 459.8281 107.4039 459.5938 Q106.9664 459.3594 106.7164 459.0312 Q106.4821 458.6875 106.4821 458.1562 Q106.4821 457.3438 107.1383 456.9062 Q107.8102 456.4531 108.9039 456.4531 Q109.4821 456.4531 109.9821 456.5625 Q110.4977 456.6719 110.9508 456.875 L110.5914 457.7188 Q110.1852 457.5469 109.7321 457.4375 Q109.2946 457.3125 108.8258 457.3125 Q108.1696 457.3125 107.8258 457.5312 Q107.4977 457.7344 107.4977 458.0938 Q107.4977 458.3594 107.6539 458.5469 Q107.8102 458.7344 108.1696 458.9062 Q108.5289 459.0781 109.1539 459.3125 Q109.7633 459.5469 110.1852 459.7969 Q110.6227 460.0312 110.8414 460.375 Q111.0758 460.7031 111.0758 461.2188 Z" stroke="none" clip-path="url(#clipPath1)"/>
    </g>
    <g fill="silver" stroke="silver">
      <path d="M13.4375 453.4375 Q15.1094 453.4375 15.875 454.0938 Q16.6406 454.75 16.6406 455.9531 Q16.6406 456.6562 16.3281 457.2812 Q16.0156 457.8906 15.2656 458.2812 Q14.5156 458.6562 13.2344 458.6562 L12.25 458.6562 L12.25 462 L11.1562 462 L11.1562 453.4375 L13.4375 453.4375 ZM13.3438 454.3594 L12.25 454.3594 L12.25 457.7344 L13.1094 457.7344 Q14.3281 457.7344 14.9219 457.3438 Q15.5312 456.9531 15.5312 456 Q15.5312 455.1719 15 454.7656 Q14.4688 454.3594 13.3438 454.3594 ZM23.8694 458.7656 Q23.8694 460.375 23.0569 461.25 Q22.2444 462.125 20.8694 462.125 Q20.0257 462.125 19.3538 461.7344 Q18.6819 461.3438 18.2913 460.5938 Q17.9163 459.8438 17.9163 458.7656 Q17.9163 457.1719 18.7132 456.3125 Q19.5257 455.4531 20.9007 455.4531 Q21.7913 455.4531 22.4476 455.8438 Q23.1194 456.2344 23.4944 456.9688 Q23.8694 457.7031 23.8694 458.7656 ZM19.0101 458.7656 Q19.0101 459.9062 19.4632 460.5781 Q19.9163 461.25 20.9007 461.25 Q21.8694 461.25 22.3226 460.5781 Q22.7757 459.9062 22.7757 458.7656 Q22.7757 457.625 22.3226 456.9844 Q21.8694 456.3438 20.8851 456.3438 Q19.9007 456.3438 19.4476 456.9844 Q19.0101 457.625 19.0101 458.7656 ZM29.692 458.3594 Q29.5357 457.875 29.4107 457.4062 Q29.3014 456.9219 29.2545 456.6562 L29.2076 456.6562 Q29.1451 456.9219 29.0357 457.4062 Q28.942 457.875 28.7701 458.375 L27.6139 461.9844 L26.4107 461.9844 L24.6451 455.5625 L25.7389 455.5625 L26.6295 458.9844 Q26.7701 459.5 26.8795 460.0312 Q27.0045 460.5625 27.0514 460.9062 L27.0982 460.9062 Q27.1451 460.7031 27.2076 460.4062 Q27.2857 460.1094 27.3639 459.7812 Q27.442 459.4375 27.5357 459.1875 L28.6764 455.5625 L29.817 455.5625 L30.9264 459.1875 Q31.067 459.5938 31.192 460.0781 Q31.317 460.5469 31.3639 460.8906 L31.4107 460.8906 Q31.442 460.5938 31.567 460.0781 Q31.692 459.5469 31.8326 458.9844 L32.7389 455.5625 L33.817 455.5625 L32.0357 461.9844 L30.8014 461.9844 L29.692 458.3594 ZM37.4522 455.4531 Q38.2803 455.4531 38.8741 455.8125 Q39.4678 456.1719 39.7803 456.8281 Q40.1084 457.4688 40.1084 458.3594 L40.1084 458.9844 L35.7022 458.9844 Q35.7334 460.0781 36.2647 460.6562 Q36.7959 461.2188 37.7491 461.2188 Q38.3741 461.2188 38.8428 461.1094 Q39.3116 460.9844 39.8272 460.7812 L39.8272 461.7031 Q39.3272 461.9219 38.8428 462.0156 Q38.3741 462.125 37.7022 462.125 Q36.7959 462.125 36.0928 461.75 Q35.3897 461.375 34.9991 460.6406 Q34.6084 459.9062 34.6084 458.8281 Q34.6084 457.7812 34.9678 457.0312 Q35.3272 456.2656 35.9678 455.8594 Q36.6084 455.4531 37.4522 455.4531 ZM37.4366 456.3125 Q36.6866 456.3125 36.2491 456.7969 Q35.8116 457.2812 35.7334 458.1406 L38.9991 458.1406 Q38.9991 457.3281 38.6241 456.8281 Q38.2491 456.3125 37.4366 456.3125 ZM44.7359 455.4531 Q44.9234 455.4531 45.1265 455.4688 Q45.3452 455.4844 45.5015 455.5156 L45.3609 456.4844 Q45.2046 456.4531 45.0171 456.4375 Q44.8296 456.4062 44.6734 456.4062 Q44.1734 456.4062 43.7359 456.6875 Q43.314 456.9531 43.0484 457.4375 Q42.7984 457.9219 42.7984 458.5625 L42.7984 462 L41.7359 462 L41.7359 455.5625 L42.6109 455.5625 L42.7202 456.75 L42.7671 456.75 Q43.0796 456.2188 43.564 455.8438 Q44.064 455.4531 44.7359 455.4531 ZM49.1763 455.4531 Q50.0044 455.4531 50.5981 455.8125 Q51.1919 456.1719 51.5044 456.8281 Q51.8325 457.4688 51.8325 458.3594 L51.8325 458.9844 L47.4263 458.9844 Q47.4575 460.0781 47.9888 460.6562 Q48.52 461.2188 49.4731 461.2188 Q50.0981 461.2188 50.5669 461.1094 Q51.0356 460.9844 51.5513 460.7812 L51.5513 461.7031 Q51.0513 461.9219 50.5669 462.0156 Q50.0981 462.125 49.4263 462.125 Q48.52 462.125 47.8169 461.75 Q47.1138 461.375 46.7231 460.6406 Q46.3325 459.9062 46.3325 458.8281 Q46.3325 457.7812 46.6919 457.0312 Q47.0513 456.2656 47.6919 455.8594 Q48.3325 455.4531 49.1763 455.4531 ZM49.1606 456.3125 Q48.4106 456.3125 47.9731 456.7969 Q47.5356 457.2812 47.4575 458.1406 L50.7231 458.1406 Q50.7231 457.3281 50.3481 456.8281 Q49.9731 456.3125 49.1606 456.3125 ZM55.7412 462.125 Q54.5381 462.125 53.8193 461.2969 Q53.1006 460.4531 53.1006 458.7969 Q53.1006 457.1406 53.8193 456.2969 Q54.5537 455.4531 55.7568 455.4531 Q56.5068 455.4531 56.9756 455.7344 Q57.4443 456 57.7412 456.3906 L57.8193 456.3906 Q57.8037 456.2344 57.7724 455.9375 Q57.7412 455.625 57.7412 455.4531 L57.7412 452.875 L58.8037 452.875 L58.8037 462 L57.9599 462 L57.8037 461.1406 L57.7412 461.1406 Q57.4599 461.5469 56.9756 461.8438 Q56.5068 462.125 55.7412 462.125 ZM55.9131 461.25 Q56.9287 461.25 57.3349 460.6875 Q57.7568 460.125 57.7568 459 L57.7568 458.8125 Q57.7568 457.6094 57.3662 456.9688 Q56.9756 456.3281 55.8974 456.3281 Q55.0537 456.3281 54.6162 457.0156 Q54.1943 457.6875 54.1943 458.8125 Q54.1943 459.9688 54.6162 460.6094 Q55.0537 461.25 55.9131 461.25 ZM65.0225 455.0938 Q65.0225 455.5156 65.0069 455.875 Q64.9913 456.2188 64.96 456.4219 L65.0225 456.4219 Q65.3038 456.0156 65.7725 455.7344 Q66.2569 455.4531 67.0069 455.4531 Q68.21 455.4531 68.9288 456.2969 Q69.6631 457.125 69.6631 458.7812 Q69.6631 460.4375 68.9288 461.2812 Q68.1944 462.125 67.0069 462.125 Q66.2569 462.125 65.7725 461.8438 Q65.3038 461.5625 65.0225 461.1875 L64.9288 461.1875 L64.7256 462 L63.96 462 L63.96 452.875 L65.0225 452.875 L65.0225 455.0938 ZM66.835 456.3438 Q65.8194 456.3438 65.4131 456.9375 Q65.0225 457.5156 65.0225 458.75 L65.0225 458.7969 Q65.0225 459.9844 65.4131 460.625 Q65.8038 461.25 66.8506 461.25 Q67.7256 461.25 68.1475 460.6094 Q68.5694 459.9688 68.5694 458.7656 Q68.5694 456.3438 66.835 456.3438 ZM70.3401 455.5625 L71.4651 455.5625 L72.8557 459.2344 Q73.0432 459.7031 73.1838 460.1406 Q73.3244 460.5781 73.4026 460.9844 L73.4494 460.9844 Q73.5119 460.6875 73.6682 460.2031 Q73.8244 459.7031 73.9963 459.2188 L75.3088 455.5625 L76.4494 455.5625 L73.6682 462.8906 Q73.3401 463.7969 72.7932 464.3281 Q72.2619 464.875 71.3401 464.875 Q71.0432 464.875 70.8244 464.8438 Q70.6057 464.8125 70.4494 464.7812 L70.4494 463.9375 Q70.5901 463.9688 70.7776 463.9844 Q70.9651 464.0156 71.1682 464.0156 Q71.7151 464.0156 72.0588 463.7031 Q72.4026 463.3906 72.5901 462.875 L72.9338 462.0312 L70.3401 455.5625 ZM79.5801 455.5625 L80.7051 455.5625 L82.0958 459.2344 Q82.2833 459.7031 82.4239 460.1406 Q82.5645 460.5781 82.6426 460.9844 L82.6895 460.9844 Q82.752 460.6875 82.9083 460.2031 Q83.0645 459.7031 83.2364 459.2188 L84.5489 455.5625 L85.6895 455.5625 L82.9083 462.8906 Q82.5801 463.7969 82.0333 464.3281 Q81.502 464.875 80.5801 464.875 Q80.2833 464.875 80.0645 464.8438 Q79.8458 464.8125 79.6895 464.7812 L79.6895 463.9375 Q79.8301 463.9688 80.0176 463.9844 Q80.2051 464.0156 80.4083 464.0156 Q80.9551 464.0156 81.2989 463.7031 Q81.6426 463.3906 81.8301 462.875 L82.1739 462.0312 L79.5801 455.5625 ZM87.9346 462 L86.8408 462 L86.8408 453.4375 L91.6377 453.4375 L91.6377 454.375 L87.9346 454.375 L87.9346 457.4219 L91.4033 457.4219 L91.4033 458.3594 L87.9346 458.3594 L87.9346 462 ZM93.4751 453.1562 Q93.7095 453.1562 93.897 453.3281 Q94.0845 453.4844 94.0845 453.8281 Q94.0845 454.1562 93.897 454.3281 Q93.7095 454.5 93.4751 454.5 Q93.2095 454.5 93.022 454.3281 Q92.8501 454.1562 92.8501 453.8281 Q92.8501 453.4844 93.022 453.3281 Q93.2095 453.1562 93.4751 453.1562 ZM93.9907 455.5625 L93.9907 462 L92.9282 462 L92.9282 455.5625 L93.9907 455.5625 ZM97.0867 462 L96.0242 462 L96.0242 452.875 L97.0867 452.875 L97.0867 462 ZM101.6046 455.4531 Q102.4328 455.4531 103.0265 455.8125 Q103.6203 456.1719 103.9328 456.8281 Q104.2609 457.4688 104.2609 458.3594 L104.2609 458.9844 L99.8546 458.9844 Q99.8859 460.0781 100.4171 460.6562 Q100.9484 461.2188 101.9015 461.2188 Q102.5265 461.2188 102.9953 461.1094 Q103.464 460.9844 103.9796 460.7812 L103.9796 461.7031 Q103.4796 461.9219 102.9953 462.0156 Q102.5265 462.125 101.8546 462.125 Q100.9484 462.125 100.2453 461.75 Q99.5421 461.375 99.1515 460.6406 Q98.7609 459.9062 98.7609 458.8281 Q98.7609 457.7812 99.1203 457.0312 Q99.4796 456.2656 100.1203 455.8594 Q100.7609 455.4531 101.6046 455.4531 ZM101.589 456.3125 Q100.839 456.3125 100.4015 456.7969 Q99.964 457.2812 99.8859 458.1406 L103.1515 458.1406 Q103.1515 457.3281 102.7765 456.8281 Q102.4015 456.3125 101.589 456.3125 ZM110.0758 460.2188 Q110.0758 461.1562 109.3727 461.6406 Q108.6852 462.125 107.5133 462.125 Q106.8414 462.125 106.3571 462.0156 Q105.8727 461.9062 105.4977 461.7188 L105.4977 460.75 Q105.8883 460.9375 106.4196 461.1094 Q106.9664 461.2656 107.5289 461.2656 Q108.3414 461.2656 108.7008 461.0156 Q109.0602 460.75 109.0602 460.3125 Q109.0602 460.0781 108.9196 459.8906 Q108.7946 459.7031 108.4508 459.5156 Q108.1071 459.3125 107.4821 459.0781 Q106.8571 458.8281 106.4039 458.5938 Q105.9664 458.3594 105.7164 458.0312 Q105.4821 457.6875 105.4821 457.1562 Q105.4821 456.3438 106.1383 455.9062 Q106.8102 455.4531 107.9039 455.4531 Q108.4821 455.4531 108.9821 455.5625 Q109.4977 455.6719 109.9508 455.875 L109.5914 456.7188 Q109.1852 456.5469 108.7321 456.4375 Q108.2946 456.3125 107.8258 456.3125 Q107.1696 456.3125 106.8258 456.5312 Q106.4977 456.7344 106.4977 457.0938 Q106.4977 457.3594 106.6539 457.5469 Q106.8102 457.7344 107.1696 457.9062 Q107.5289 458.0781 108.1539 458.3125 Q108.7633 458.5469 109.1852 458.7969 Q109.6227 459.0312 109.8414 459.375 Q110.0758 459.7031 110.0758 460.2188 Z" stroke="none" clip-path="url(#clipPath1)"/>
    </g>
    <g fill="rgb(255,255,204)" transform="matrix(1.0811,0,0,1.0811,10.3365,10.5)" stroke="rgb(255,255,204)">
      <rect x="247" width="213" height="193.9119" y="90.7777" clip-path="url(#clipPath2)" stroke="none"/>
    </g>
    <g fill="gray" stroke-miterlimit="1.45" transform="matrix(1.0811,0,0,1.0811,10.3365,10.5)" stroke-linecap="butt" stroke="gray">
      <rect fill="none" x="247" width="213" height="193.9119" y="90.7777" clip-path="url(#clipPath2)"/>
    </g>
    <g stroke-miterlimit="1.45" font-size="13px" font-family="'Inter'" transform="matrix(1.0811,0,0,1.0811,10.3365,10.5)" stroke-linecap="butt">
      <text x="327.5" xml:space="preserve" y="109.3716" clip-path="url(#clipPath2)" stroke="none">program</text>
    </g>
    <g fill="gray" transform="matrix(1.0811,0,0,1.0811,10.3365,10.5)" stroke="gray">
      <line y2="116" fill="none" x1="248" clip-path="url(#clipPath2)" x2="459" y1="116"/>
    </g>
    <g stroke-linecap="round" transform="matrix(0.7208,0,0,0.7208,281.7041,139.7085)" fill="silver" image-rendering="optimizeQuality" stroke-linejoin="round" stroke="silver" stroke-width="2" stroke-miterlimit="4">
      <path fill="none" d="M12.4 2.7 C13.3 1.8 14.9 1.8 15.8 2.7 L21.3 8.2 C22.2 9.1 22.2 10.7 21.3 11.6 L17.6 15.3 C16.7 16.2 15.1 16.2 14.2 15.3 L8.7 9.8 C7.8 8.9 7.8 7.3 8.7 6.4 Z" clip-path="url(#clipPath4)"/>
    </g>
    <g stroke-linecap="round" transform="matrix(0.7208,0,0,0.7208,281.7041,139.7085)" fill="silver" image-rendering="optimizeQuality" stroke-linejoin="round" stroke="silver" stroke-width="2" stroke-miterlimit="4">
      <path fill="none" d="M14 7 L17 10" clip-path="url(#clipPath4)"/>
    </g>
    <g stroke-linecap="round" transform="matrix(0.7208,0,0,0.7208,281.7041,139.7085)" fill="silver" image-rendering="optimizeQuality" stroke-linejoin="round" stroke="silver" stroke-width="2" stroke-miterlimit="4">
      <path fill="none" d="M9.4 10.6 L2 18 L2 21 C2 21.6 2.4 22 3 22 L7 22 L7 19 L10 19 L10 16 L12 16 L13.4 14.6" clip-path="url(#clipPath4)"/>
    </g>
    <g stroke-miterlimit="1.45" font-weight="bold" font-family="'Inter'" transform="matrix(1.0811,0,0,1.0811,10.3365,10.5)" stroke-linecap="butt">
      <text x="273" xml:space="preserve" y="134.1355" clip-path="url(#clipPath2)" stroke="none">id</text>
    </g>
    <g stroke-miterlimit="1.45" font-family="'Inter'" transform="matrix(1.0811,0,0,1.0811,10.3365,10.5)" stroke-linecap="butt">
      <text x="387" xml:space="preserve" y="134.1355" clip-path="url(#clipPath2)" stroke="none">serial</text>
      <text x="273" xml:space="preserve" y="154.6578" clip-path="url(#clipPath2)" font-weight="bold" stroke="none">title</text>
      <text x="387" xml:space="preserve" y="154.6578" clip-path="url(#clipPath2)" stroke="none">varchar</text>
      <text x="273" xml:space="preserve" y="175.1802" clip-path="url(#clipPath2)" font-weight="bold" stroke="none">url</text>
      <text x="387" xml:space="preserve" y="175.1802" clip-path="url(#clipPath2)" stroke="none">varchar</text>
      <text x="273" xml:space="preserve" y="195.7025" clip-path="url(#clipPath2)" font-weight="bold" stroke="none">education_level_id</text>
      <text x="387" xml:space="preserve" y="195.7025" clip-path="url(#clipPath2)" stroke="none">int4</text>
    </g>
    <g stroke-linecap="round" transform="matrix(0.7208,0,0,0.7208,483.8783,206.2715)" fill="silver" image-rendering="optimizeQuality" stroke-linejoin="round" stroke="silver" stroke-width="2" stroke-miterlimit="4">
      <path fill="none" d="M7 7 L17 7 L17 17" clip-path="url(#clipPath6)"/>
    </g>
    <g stroke-linecap="round" transform="matrix(0.7208,0,0,0.7208,483.8783,206.2715)" fill="silver" image-rendering="optimizeQuality" stroke-linejoin="round" stroke="silver" stroke-width="2" stroke-miterlimit="4">
      <path fill="none" d="M7 17 L17 7" clip-path="url(#clipPath6)"/>
    </g>
    <g stroke-miterlimit="1.45" font-weight="bold" font-family="'Inter'" transform="matrix(1.0811,0,0,1.0811,10.3365,10.5)" stroke-linecap="butt">
      <text x="273" xml:space="preserve" y="216.2249" clip-path="url(#clipPath2)" stroke="none">study_form_id</text>
    </g>
    <g stroke-miterlimit="1.45" font-family="'Inter'" transform="matrix(1.0811,0,0,1.0811,10.3365,10.5)" stroke-linecap="butt">
      <text x="387" xml:space="preserve" y="216.2249" clip-path="url(#clipPath2)" stroke="none">int4</text>
    </g>
    <g stroke-linecap="round" transform="matrix(0.7208,0,0,0.7208,483.8783,228.4592)" fill="silver" image-rendering="optimizeQuality" stroke-linejoin="round" stroke="silver" stroke-width="2" stroke-miterlimit="4">
      <path fill="none" d="M7 7 L17 7 L17 17" clip-path="url(#clipPath4)"/>
    </g>
    <g stroke-linecap="round" transform="matrix(0.7208,0,0,0.7208,483.8783,228.4592)" fill="silver" image-rendering="optimizeQuality" stroke-linejoin="round" stroke="silver" stroke-width="2" stroke-miterlimit="4">
      <path fill="none" d="M7 17 L17 7" clip-path="url(#clipPath4)"/>
    </g>
    <g stroke-miterlimit="1.45" font-weight="bold" font-family="'Inter'" transform="matrix(1.0811,0,0,1.0811,10.3365,10.5)" stroke-linecap="butt">
      <text x="273" xml:space="preserve" y="236.7473" clip-path="url(#clipPath2)" stroke="none">study_duration_id</text>
    </g>
    <g stroke-miterlimit="1.45" font-family="'Inter'" transform="matrix(1.0811,0,0,1.0811,10.3365,10.5)" stroke-linecap="butt">
      <text x="387" xml:space="preserve" y="236.7473" clip-path="url(#clipPath2)" stroke="none">int4</text>
    </g>
    <g stroke-linecap="round" transform="matrix(0.7208,0,0,0.7208,483.8783,250.6468)" fill="silver" image-rendering="optimizeQuality" stroke-linejoin="round" stroke="silver" stroke-width="2" stroke-miterlimit="4">
      <path fill="none" d="M7 7 L17 7 L17 17" clip-path="url(#clipPath4)"/>
    </g>
    <g stroke-linecap="round" transform="matrix(0.7208,0,0,0.7208,483.8783,250.6468)" fill="silver" image-rendering="optimizeQuality" stroke-linejoin="round" stroke="silver" stroke-width="2" stroke-miterlimit="4">
      <path fill="none" d="M7 17 L17 7" clip-path="url(#clipPath4)"/>
    </g>
    <g stroke-miterlimit="1.45" font-weight="bold" font-family="'Inter'" transform="matrix(1.0811,0,0,1.0811,10.3365,10.5)" stroke-linecap="butt">
      <text x="273" xml:space="preserve" y="257.2696" clip-path="url(#clipPath2)" stroke="none">program_info</text>
    </g>
    <g stroke-miterlimit="1.45" font-family="'Inter'" transform="matrix(1.0811,0,0,1.0811,10.3365,10.5)" stroke-linecap="butt">
      <text x="387" xml:space="preserve" y="257.2696" clip-path="url(#clipPath2)" stroke="none">text</text>
      <text x="273" xml:space="preserve" y="277.792" clip-path="url(#clipPath2)" font-weight="bold" stroke="none">career_info</text>
      <text x="387" xml:space="preserve" y="277.792" clip-path="url(#clipPath2)" stroke="none">text</text>
    </g>
    <g fill="rgb(255,255,204)" transform="matrix(1.0811,0,0,1.0811,10.3365,10.5)" stroke="rgb(255,255,204)">
      <rect x="293" width="121" height="70.7777" y="0" clip-path="url(#clipPath2)" stroke="none"/>
    </g>
    <g fill="gray" stroke-miterlimit="1.45" transform="matrix(1.0811,0,0,1.0811,10.3365,10.5)" stroke-linecap="butt" stroke="gray">
      <rect fill="none" x="293" width="121" height="70.7777" y="0" clip-path="url(#clipPath2)"/>
    </g>
    <g stroke-miterlimit="1.45" font-size="13px" font-family="'Inter'" transform="matrix(1.0811,0,0,1.0811,10.3365,10.5)" stroke-linecap="butt">
      <text x="312.5" xml:space="preserve" y="18.5938" clip-path="url(#clipPath2)" stroke="none">contest_type</text>
    </g>
    <g fill="gray" transform="matrix(1.0811,0,0,1.0811,10.3365,10.5)" stroke="gray">
      <line y2="25" fill="none" x1="294" clip-path="url(#clipPath2)" x2="413" y1="25"/>
    </g>
    <g stroke-linecap="round" transform="matrix(0.7208,0,0,0.7208,331.4368,41.5646)" fill="silver" image-rendering="optimizeQuality" stroke-linejoin="round" stroke="silver" stroke-width="2" stroke-miterlimit="4">
      <path fill="none" d="M12.4 2.7 C13.3 1.8 14.9 1.8 15.8 2.7 L21.3 8.2 C22.2 9.1 22.2 10.7 21.3 11.6 L17.6 15.3 C16.7 16.2 15.1 16.2 14.2 15.3 L8.7 9.8 C7.8 8.9 7.8 7.3 8.7 6.4 Z" clip-path="url(#clipPath4)"/>
    </g>
    <g stroke-linecap="round" transform="matrix(0.7208,0,0,0.7208,331.4368,41.5646)" fill="silver" image-rendering="optimizeQuality" stroke-linejoin="round" stroke="silver" stroke-width="2" stroke-miterlimit="4">
      <path fill="none" d="M14 7 L17 10" clip-path="url(#clipPath4)"/>
    </g>
    <g stroke-linecap="round" transform="matrix(0.7208,0,0,0.7208,331.4368,41.5646)" fill="silver" image-rendering="optimizeQuality" stroke-linejoin="round" stroke="silver" stroke-width="2" stroke-miterlimit="4">
      <path fill="none" d="M9.4 10.6 L2 18 L2 21 C2 21.6 2.4 22 3 22 L7 22 L7 19 L10 19 L10 16 L12 16 L13.4 14.6" clip-path="url(#clipPath4)"/>
    </g>
    <g stroke-miterlimit="1.45" font-weight="bold" font-family="'Inter'" transform="matrix(1.0811,0,0,1.0811,10.3365,10.5)" stroke-linecap="butt">
      <text x="319" xml:space="preserve" y="43.3577" clip-path="url(#clipPath2)" stroke="none">id</text>
    </g>
    <g stroke-miterlimit="1.45" font-family="'Inter'" transform="matrix(1.0811,0,0,1.0811,10.3365,10.5)" stroke-linecap="butt">
      <text x="357" xml:space="preserve" y="43.3577" clip-path="url(#clipPath2)" stroke="none">serial</text>
      <text x="319" xml:space="preserve" y="63.8801" clip-path="url(#clipPath2)" font-weight="bold" stroke="none">name</text>
      <text x="357" xml:space="preserve" y="63.8801" clip-path="url(#clipPath2)" stroke="none">varchar</text>
    </g>
    <g fill="rgb(255,255,204)" transform="matrix(1.0811,0,0,1.0811,10.3365,10.5)" stroke="rgb(255,255,204)">
      <rect x="279" width="149" height="91.3001" y="304.6896" clip-path="url(#clipPath2)" stroke="none"/>
    </g>
    <g fill="gray" stroke-miterlimit="1.45" transform="matrix(1.0811,0,0,1.0811,10.3365,10.5)" stroke-linecap="butt" stroke="gray">
      <rect fill="none" x="279" width="149" height="91.3001" y="304.6896" clip-path="url(#clipPath2)"/>
    </g>
    <g stroke-miterlimit="1.45" font-size="13px" font-family="'Inter'" transform="matrix(1.0811,0,0,1.0811,10.3365,10.5)" stroke-linecap="butt">
      <text x="330.5" xml:space="preserve" y="323.2834" clip-path="url(#clipPath2)" stroke="none">subject</text>
    </g>
    <g fill="gray" transform="matrix(1.0811,0,0,1.0811,10.3365,10.5)" stroke="gray">
      <line y2="330" fill="none" x1="280" clip-path="url(#clipPath2)" x2="427" y1="330"/>
    </g>
    <g stroke-linecap="round" transform="matrix(0.7208,0,0,0.7208,316.3007,370.9784)" fill="silver" image-rendering="optimizeQuality" stroke-linejoin="round" stroke="silver" stroke-width="2" stroke-miterlimit="4">
      <path fill="none" d="M12.4 2.7 C13.3 1.8 14.9 1.8 15.8 2.7 L21.3 8.2 C22.2 9.1 22.2 10.7 21.3 11.6 L17.6 15.3 C16.7 16.2 15.1 16.2 14.2 15.3 L8.7 9.8 C7.8 8.9 7.8 7.3 8.7 6.4 Z" clip-path="url(#clipPath6)"/>
    </g>
    <g stroke-linecap="round" transform="matrix(0.7208,0,0,0.7208,316.3007,370.9784)" fill="silver" image-rendering="optimizeQuality" stroke-linejoin="round" stroke="silver" stroke-width="2" stroke-miterlimit="4">
      <path fill="none" d="M14 7 L17 10" clip-path="url(#clipPath6)"/>
    </g>
    <g stroke-linecap="round" transform="matrix(0.7208,0,0,0.7208,316.3007,370.9784)" fill="silver" image-rendering="optimizeQuality" stroke-linejoin="round" stroke="silver" stroke-width="2" stroke-miterlimit="4">
      <path fill="none" d="M9.4 10.6 L2 18 L2 21 C2 21.6 2.4 22 3 22 L7 22 L7 19 L10 19 L10 16 L12 16 L13.4 14.6" clip-path="url(#clipPath6)"/>
    </g>
    <g stroke-miterlimit="1.45" font-weight="bold" font-family="'Inter'" transform="matrix(1.0811,0,0,1.0811,10.3365,10.5)" stroke-linecap="butt">
      <text x="305" xml:space="preserve" y="348.0474" clip-path="url(#clipPath2)" stroke="none">id</text>
    </g>
    <g stroke-miterlimit="1.45" font-family="'Inter'" transform="matrix(1.0811,0,0,1.0811,10.3365,10.5)" stroke-linecap="butt">
      <text x="371" xml:space="preserve" y="348.0474" clip-path="url(#clipPath2)" stroke="none">serial</text>
      <text x="305" xml:space="preserve" y="368.5697" clip-path="url(#clipPath2)" font-weight="bold" stroke="none">name</text>
      <text x="371" xml:space="preserve" y="368.5697" clip-path="url(#clipPath2)" stroke="none">varchar</text>
      <text x="305" xml:space="preserve" y="389.0921" clip-path="url(#clipPath2)" font-weight="bold" stroke="none">popularity</text>
      <text x="371" xml:space="preserve" y="389.0921" clip-path="url(#clipPath2)" stroke="none">int4</text>
    </g>
    <g fill="rgb(255,255,204)" transform="matrix(1.0811,0,0,1.0811,10.3365,10.5)" stroke="rgb(255,255,204)">
      <rect x="10.5" width="166" height="91.3001" y="327.5147" clip-path="url(#clipPath2)" stroke="none"/>
    </g>
    <g fill="gray" stroke-miterlimit="1.45" transform="matrix(1.0811,0,0,1.0811,10.3365,10.5)" stroke-linecap="butt" stroke="gray">
      <rect fill="none" x="10.5" width="166" height="91.3001" y="327.5147" clip-path="url(#clipPath2)"/>
    </g>
    <g stroke-miterlimit="1.45" font-size="13px" font-family="'Inter'" transform="matrix(1.0811,0,0,1.0811,10.3365,10.5)" stroke-linecap="butt">
      <text x="54" xml:space="preserve" y="346.1085" clip-path="url(#clipPath2)" stroke="none">subject_alias</text>
    </g>
    <g fill="gray" transform="matrix(1.0811,0,0,1.0811,10.3365,10.5)" stroke="gray">
      <line y2="353" fill="none" x1="11" clip-path="url(#clipPath2)" x2="175" y1="353"/>
    </g>
    <g stroke-linecap="round" transform="matrix(0.7208,0,0,0.7208,26.0131,395.6556)" fill="silver" image-rendering="optimizeQuality" stroke-linejoin="round" stroke="silver" stroke-width="2" stroke-miterlimit="4">
      <path fill="none" d="M12.4 2.7 C13.3 1.8 14.9 1.8 15.8 2.7 L21.3 8.2 C22.2 9.1 22.2 10.7 21.3 11.6 L17.6 15.3 C16.7 16.2 15.1 16.2 14.2 15.3 L8.7 9.8 C7.8 8.9 7.8 7.3 8.7 6.4 Z" clip-path="url(#clipPath12)"/>
    </g>
    <g stroke-linecap="round" transform="matrix(0.7208,0,0,0.7208,26.0131,395.6556)" fill="silver" image-rendering="optimizeQuality" stroke-linejoin="round" stroke="silver" stroke-width="2" stroke-miterlimit="4">
      <path fill="none" d="M14 7 L17 10" clip-path="url(#clipPath12)"/>
    </g>
    <g stroke-linecap="round" transform="matrix(0.7208,0,0,0.7208,26.0131,395.6556)" fill="silver" image-rendering="optimizeQuality" stroke-linejoin="round" stroke="silver" stroke-width="2" stroke-miterlimit="4">
      <path fill="none" d="M9.4 10.6 L2 18 L2 21 C2 21.6 2.4 22 3 22 L7 22 L7 19 L10 19 L10 16 L12 16 L13.4 14.6" clip-path="url(#clipPath12)"/>
    </g>
    <g stroke-miterlimit="1.45" font-weight="bold" font-family="'Inter'" transform="matrix(1.0811,0,0,1.0811,10.3365,10.5)" stroke-linecap="butt">
      <text x="36.5" xml:space="preserve" y="370.8724" clip-path="url(#clipPath2)" stroke="none">id</text>
    </g>
    <g stroke-miterlimit="1.45" font-family="'Inter'" transform="matrix(1.0811,0,0,1.0811,10.3365,10.5)" stroke-linecap="butt">
      <text x="103.5" xml:space="preserve" y="370.8724" clip-path="url(#clipPath2)" stroke="none">serial</text>
      <text x="36.5" xml:space="preserve" y="391.3947" clip-path="url(#clipPath2)" font-weight="bold" stroke="none">alias</text>
      <text x="103.5" xml:space="preserve" y="391.3947" clip-path="url(#clipPath2)" stroke="none">varchar</text>
      <text x="36.5" xml:space="preserve" y="411.9171" clip-path="url(#clipPath2)" font-weight="bold" stroke="none">subject_id</text>
      <text x="103.5" xml:space="preserve" y="411.9171" clip-path="url(#clipPath2)" stroke="none">int4</text>
    </g>
    <g stroke-linecap="round" transform="matrix(0.7208,0,0,0.7208,177.3735,440.0309)" fill="silver" image-rendering="optimizeQuality" stroke-linejoin="round" stroke="silver" stroke-width="2" stroke-miterlimit="4">
      <path fill="none" d="M7 7 L17 7 L17 17" clip-path="url(#clipPath14)"/>
    </g>
    <g stroke-linecap="round" transform="matrix(0.7208,0,0,0.7208,177.3735,440.0309)" fill="silver" image-rendering="optimizeQuality" stroke-linejoin="round" stroke="silver" stroke-width="2" stroke-miterlimit="4">
      <path fill="none" d="M7 17 L17 7" clip-path="url(#clipPath14)"/>
    </g>
    <g fill="rgb(255,255,204)" transform="matrix(1.0811,0,0,1.0811,10.3365,10.5)" stroke="rgb(255,255,204)">
      <rect x="0" width="187" height="132.3448" y="121.5613" clip-path="url(#clipPath2)" stroke="none"/>
    </g>
    <g fill="gray" stroke-miterlimit="1.45" transform="matrix(1.0811,0,0,1.0811,10.3365,10.5)" stroke-linecap="butt" stroke="gray">
      <rect fill="none" x="0" width="187" height="132.3448" y="121.5613" clip-path="url(#clipPath2)"/>
    </g>
    <g stroke-miterlimit="1.45" font-size="13px" font-family="'Inter'" transform="matrix(1.0811,0,0,1.0811,10.3365,10.5)" stroke-linecap="butt">
      <text x="21" xml:space="preserve" y="140.1551" clip-path="url(#clipPath2)" stroke="none">program_contest_exam</text>
    </g>
    <g fill="gray" transform="matrix(1.0811,0,0,1.0811,10.3365,10.5)" stroke="gray">
      <line y2="147" fill="none" x1="1" clip-path="url(#clipPath2)" x2="186" y1="147"/>
    </g>
    <g stroke-linecap="round" transform="matrix(0.7208,0,0,0.7208,14.6611,172.99)" fill="silver" image-rendering="optimizeQuality" stroke-linejoin="round" stroke="silver" stroke-width="2" stroke-miterlimit="4">
      <path fill="none" d="M12.4 2.7 C13.3 1.8 14.9 1.8 15.8 2.7 L21.3 8.2 C22.2 9.1 22.2 10.7 21.3 11.6 L17.6 15.3 C16.7 16.2 15.1 16.2 14.2 15.3 L8.7 9.8 C7.8 8.9 7.8 7.3 8.7 6.4 Z" clip-path="url(#clipPath14)"/>
    </g>
    <g stroke-linecap="round" transform="matrix(0.7208,0,0,0.7208,14.6611,172.99)" fill="silver" image-rendering="optimizeQuality" stroke-linejoin="round" stroke="silver" stroke-width="2" stroke-miterlimit="4">
      <path fill="none" d="M14 7 L17 10" clip-path="url(#clipPath14)"/>
    </g>
    <g stroke-linecap="round" transform="matrix(0.7208,0,0,0.7208,14.6611,172.99)" fill="silver" image-rendering="optimizeQuality" stroke-linejoin="round" stroke="silver" stroke-width="2" stroke-miterlimit="4">
      <path fill="none" d="M9.4 10.6 L2 18 L2 21 C2 21.6 2.4 22 3 22 L7 22 L7 19 L10 19 L10 16 L12 16 L13.4 14.6" clip-path="url(#clipPath14)"/>
    </g>
    <g stroke-miterlimit="1.45" font-weight="bold" font-family="'Inter'" transform="matrix(1.0811,0,0,1.0811,10.3365,10.5)" stroke-linecap="butt">
      <text x="26" xml:space="preserve" y="164.919" clip-path="url(#clipPath2)" stroke="none">id</text>
    </g>
    <g stroke-miterlimit="1.45" font-family="'Inter'" transform="matrix(1.0811,0,0,1.0811,10.3365,10.5)" stroke-linecap="butt">
      <text x="127" xml:space="preserve" y="164.919" clip-path="url(#clipPath2)" stroke="none">serial</text>
      <text x="26" xml:space="preserve" y="185.4414" clip-path="url(#clipPath2)" font-weight="bold" stroke="none">program_id</text>
      <text x="127" xml:space="preserve" y="185.4414" clip-path="url(#clipPath2)" stroke="none">int4</text>
    </g>
    <g stroke-linecap="round" transform="matrix(0.7208,0,0,0.7208,188.7255,195.1777)" fill="silver" image-rendering="optimizeQuality" stroke-linejoin="round" stroke="silver" stroke-width="2" stroke-miterlimit="4">
      <path fill="none" d="M7 7 L17 7 L17 17" clip-path="url(#clipPath6)"/>
    </g>
    <g stroke-linecap="round" transform="matrix(0.7208,0,0,0.7208,188.7255,195.1777)" fill="silver" image-rendering="optimizeQuality" stroke-linejoin="round" stroke="silver" stroke-width="2" stroke-miterlimit="4">
      <path fill="none" d="M7 17 L17 7" clip-path="url(#clipPath6)"/>
    </g>
    <g stroke-miterlimit="1.45" font-weight="bold" font-family="'Inter'" transform="matrix(1.0811,0,0,1.0811,10.3365,10.5)" stroke-linecap="butt">
      <text x="26" xml:space="preserve" y="205.9637" clip-path="url(#clipPath2)" stroke="none">contest_type_id</text>
    </g>
    <g stroke-miterlimit="1.45" font-family="'Inter'" transform="matrix(1.0811,0,0,1.0811,10.3365,10.5)" stroke-linecap="butt">
      <text x="127" xml:space="preserve" y="205.9637" clip-path="url(#clipPath2)" stroke="none">int4</text>
    </g>
    <g stroke-linecap="round" transform="matrix(0.7208,0,0,0.7208,188.7255,217.3653)" fill="silver" image-rendering="optimizeQuality" stroke-linejoin="round" stroke="silver" stroke-width="2" stroke-miterlimit="4">
      <path fill="none" d="M7 7 L17 7 L17 17" clip-path="url(#clipPath4)"/>
    </g>
    <g stroke-linecap="round" transform="matrix(0.7208,0,0,0.7208,188.7255,217.3653)" fill="silver" image-rendering="optimizeQuality" stroke-linejoin="round" stroke="silver" stroke-width="2" stroke-miterlimit="4">
      <path fill="none" d="M7 17 L17 7" clip-path="url(#clipPath4)"/>
    </g>
    <g stroke-miterlimit="1.45" font-weight="bold" font-family="'Inter'" transform="matrix(1.0811,0,0,1.0811,10.3365,10.5)" stroke-linecap="butt">
      <text x="26" xml:space="preserve" y="226.4861" clip-path="url(#clipPath2)" stroke="none">subject_id</text>
    </g>
    <g stroke-miterlimit="1.45" font-family="'Inter'" transform="matrix(1.0811,0,0,1.0811,10.3365,10.5)" stroke-linecap="butt">
      <text x="127" xml:space="preserve" y="226.4861" clip-path="url(#clipPath2)" stroke="none">int4</text>
    </g>
    <g stroke-linecap="round" transform="matrix(0.7208,0,0,0.7208,188.7255,239.553)" fill="silver" image-rendering="optimizeQuality" stroke-linejoin="round" stroke="silver" stroke-width="2" stroke-miterlimit="4">
      <path fill="none" d="M7 7 L17 7 L17 17" clip-path="url(#clipPath4)"/>
    </g>
    <g stroke-linecap="round" transform="matrix(0.7208,0,0,0.7208,188.7255,239.553)" fill="silver" image-rendering="optimizeQuality" stroke-linejoin="round" stroke="silver" stroke-width="2" stroke-miterlimit="4">
      <path fill="none" d="M7 17 L17 7" clip-path="url(#clipPath4)"/>
    </g>
    <g stroke-miterlimit="1.45" font-weight="bold" font-family="'Inter'" transform="matrix(1.0811,0,0,1.0811,10.3365,10.5)" stroke-linecap="butt">
      <text x="26" xml:space="preserve" y="247.0085" clip-path="url(#clipPath2)" stroke="none">is_optional</text>
    </g>
    <g stroke-miterlimit="1.45" font-family="'Inter'" transform="matrix(1.0811,0,0,1.0811,10.3365,10.5)" stroke-linecap="butt">
      <text x="127" xml:space="preserve" y="247.0085" clip-path="url(#clipPath2)" stroke="none">bool</text>
    </g>
    <g fill="gray" stroke-miterlimit="1.45" transform="matrix(1.0811,0,0,1.0811,10.3365,10.5)" stroke-linecap="butt" stroke="gray">
      <path fill="none" d="M187.0293 187.7337 L238.9707 187.7337" clip-path="url(#clipPath2)"/>
    </g>
    <g fill="gray" stroke-miterlimit="1.45" transform="matrix(1.0811,0,0,1.0811,10.3365,10.5)" stroke-linecap="butt" stroke="gray">
      <path d="M246.9707 187.7337 L234.9707 182.7337 L237.9707 187.7337 L234.9707 192.7337 Z" stroke="none" clip-path="url(#clipPath2)"/>
      <path fill="none" d="M187.0293 143.6187 L217 143.6187 L217 35.3889 L284.9629 35.3889" clip-path="url(#clipPath2)"/>
      <path d="M292.9629 35.3889 L280.9629 30.3889 L283.9629 35.3889 L280.9629 40.3889 Z" clip-path="url(#clipPath2)" stroke="none"/>
      <path fill="none" d="M187.0293 231.8486 L217 231.8486 L217 327.5146 L270.9697 327.5146" clip-path="url(#clipPath2)"/>
      <path d="M278.9697 327.5146 L266.9697 322.5146 L269.9697 327.5146 L266.9697 332.5146 Z" clip-path="url(#clipPath2)" stroke="none"/>
      <path fill="none" d="M176.525 373.1647 L270.975 373.1647" clip-path="url(#clipPath2)"/>
      <path d="M278.975 373.1647 L266.975 368.1647 L269.975 373.1647 L266.975 378.1647 Z" clip-path="url(#clipPath2)" stroke="none"/>
    </g>
  </g>
</svg>
