<?xml version="1.0" encoding="UTF-8"?><svg xmlns="http://www.w3.org/2000/svg" xmlns:xlink="http://www.w3.org/1999/xlink" fill-opacity="1" color-rendering="auto" color-interpolation="auto" text-rendering="auto" stroke="black" stroke-linecap="square" width="641" stroke-miterlimit="10" shape-rendering="auto" stroke-opacity="1" fill="black" stroke-dasharray="none" font-weight="normal" stroke-width="1" height="463" font-family="'Dialog'" font-style="normal" stroke-linejoin="miter" font-size="12px" stroke-dashoffset="0" image-rendering="auto">
  <!--Generated by ySVG 2.5-->
  <defs id="genericDefs"/>
  <g>
    <defs id="defs1">
      <clipPath clipPathUnits="userSpaceOnUse" id="clipPath1">
        <path d="M0 0 L641 0 L641 463 L0 463 L0 0 Z"/>
      </clipPath>
      <clipPath clipPathUnits="userSpaceOnUse" id="clipPath2">
        <path d="M-9.6523 -10 L657.6523 -10 L657.6523 472 L-9.6523 472 L-9.6523 -10 Z"/>
      </clipPath>
      <clipPath clipPathUnits="userSpaceOnUse" id="clipPath3">
        <path d="M-9.6523 -10.4667 L657.6523 -10.4667 L657.6523 471.5333 L-9.6523 471.5333 L-9.6523 -10.4667 Z"/>
      </clipPath>
      <clipPath clipPathUnits="userSpaceOnUse" id="clipPath4">
        <path d="M0 -0 L0 24 L24 24 L24 -0 Z"/>
      </clipPath>
      <clipPath clipPathUnits="userSpaceOnUse" id="clipPath5">
        <path d="M-9.6523 -10.0338 L657.6523 -10.0338 L657.6523 471.9662 L-9.6523 471.9662 L-9.6523 -10.0338 Z"/>
      </clipPath>
      <clipPath clipPathUnits="userSpaceOnUse" id="clipPath6">
        <path d="M0 0 L0 24 L24 24 L24 0 Z"/>
      </clipPath>
      <clipPath clipPathUnits="userSpaceOnUse" id="clipPath7">
        <path d="M-9.6523 -10.5562 L657.6523 -10.5562 L657.6523 471.4438 L-9.6523 471.4438 L-9.6523 -10.5562 Z"/>
      </clipPath>
      <clipPath clipPathUnits="userSpaceOnUse" id="clipPath8">
        <path d="M-9.6523 -10.0785 L657.6523 -10.0785 L657.6523 471.9215 L-9.6523 471.9215 L-9.6523 -10.0785 Z"/>
      </clipPath>
      <clipPath clipPathUnits="userSpaceOnUse" id="clipPath9">
        <path d="M-10.1523 -10.6171 L657.1523 -10.6171 L657.1523 471.3829 L-10.1523 471.3829 L-10.1523 -10.6171 Z"/>
      </clipPath>
      <clipPath clipPathUnits="userSpaceOnUse" id="clipPath10">
        <path d="M-10.1523 -10.733 L657.1523 -10.733 L657.1523 471.267 L-10.1523 471.267 L-10.1523 -10.733 Z"/>
      </clipPath>
      <clipPath clipPathUnits="userSpaceOnUse" id="clipPath11">
        <path d="M-9.6523 -10.1171 L657.6523 -10.1171 L657.6523 471.8829 L-9.6523 471.8829 L-9.6523 -10.1171 Z"/>
      </clipPath>
      <clipPath clipPathUnits="userSpaceOnUse" id="clipPath12">
        <path d="M-0 0 L-0 24 L24 24 L24 0 Z"/>
      </clipPath>
      <clipPath clipPathUnits="userSpaceOnUse" id="clipPath13">
        <path d="M-9.6523 -10.5277 L657.6523 -10.5277 L657.6523 471.4723 L-9.6523 471.4723 L-9.6523 -10.5277 Z"/>
      </clipPath>
      <clipPath clipPathUnits="userSpaceOnUse" id="clipPath14">
        <path d="M-9.6523 -10.05 L657.6523 -10.05 L657.6523 471.95 L-9.6523 471.95 L-9.6523 -10.05 Z"/>
      </clipPath>
      <clipPath clipPathUnits="userSpaceOnUse" id="clipPath15">
        <path d="M-9.6523 -10.9172 L657.6523 -10.9172 L657.6523 471.0828 L-9.6523 471.0828 L-9.6523 -10.9172 Z"/>
      </clipPath>
      <clipPath clipPathUnits="userSpaceOnUse" id="clipPath16">
        <path d="M-9.6523 -10.4396 L657.6523 -10.4396 L657.6523 471.5605 L-9.6523 471.5605 L-9.6523 -10.4396 Z"/>
      </clipPath>
      <clipPath clipPathUnits="userSpaceOnUse" id="clipPath17">
        <path d="M-9.6523 -10.9619 L657.6523 -10.9619 L657.6523 471.0381 L-9.6523 471.0381 L-9.6523 -10.9619 Z"/>
      </clipPath>
      <clipPath clipPathUnits="userSpaceOnUse" id="clipPath18">
        <path d="M-9.6523 -10.4843 L657.6523 -10.4843 L657.6523 471.5157 L-9.6523 471.5157 L-9.6523 -10.4843 Z"/>
      </clipPath>
      <clipPath clipPathUnits="userSpaceOnUse" id="clipPath19">
        <path d="M-10.1523 -10.7052 L657.1523 -10.7052 L657.1523 471.2948 L-10.1523 471.2948 L-10.1523 -10.7052 Z"/>
      </clipPath>
      <clipPath clipPathUnits="userSpaceOnUse" id="clipPath20">
        <path d="M-10.1523 -10.2276 L657.1523 -10.2276 L657.1523 471.7724 L-10.1523 471.7724 L-10.1523 -10.2276 Z"/>
      </clipPath>
      <clipPath clipPathUnits="userSpaceOnUse" id="clipPath21">
        <path d="M-10.1523 -10.7499 L657.1523 -10.7499 L657.1523 471.2501 L-10.1523 471.2501 L-10.1523 -10.7499 Z"/>
      </clipPath>
      <clipPath clipPathUnits="userSpaceOnUse" id="clipPath22">
        <path d="M-10.1523 -10.2723 L657.1523 -10.2723 L657.1523 471.7277 L-10.1523 471.7277 L-10.1523 -10.2723 Z"/>
      </clipPath>
      <clipPath clipPathUnits="userSpaceOnUse" id="clipPath23">
        <path d="M-9.6523 -10.7052 L657.6523 -10.7052 L657.6523 471.2948 L-9.6523 471.2948 L-9.6523 -10.7052 Z"/>
      </clipPath>
      <clipPath clipPathUnits="userSpaceOnUse" id="clipPath24">
        <path d="M-0 -0 L-0 24 L24 24 L24 -0 Z"/>
      </clipPath>
      <clipPath clipPathUnits="userSpaceOnUse" id="clipPath25">
        <path d="M-9.6523 -10.2276 L657.6523 -10.2276 L657.6523 471.7724 L-9.6523 471.7724 L-9.6523 -10.2276 Z"/>
      </clipPath>
      <clipPath clipPathUnits="userSpaceOnUse" id="clipPath26">
        <path d="M-9.6523 -10.7499 L657.6523 -10.7499 L657.6523 471.2501 L-9.6523 471.2501 L-9.6523 -10.7499 Z"/>
      </clipPath>
    </defs>
    <g fill="white" stroke="white">
      <path d="M14.4375 443.4375 Q16.1094 443.4375 16.875 444.0938 Q17.6406 444.75 17.6406 445.9531 Q17.6406 446.6562 17.3281 447.2812 Q17.0156 447.8906 16.2656 448.2812 Q15.5156 448.6562 14.2344 448.6562 L13.25 448.6562 L13.25 452 L12.1562 452 L12.1562 443.4375 L14.4375 443.4375 ZM14.3438 444.3594 L13.25 444.3594 L13.25 447.7344 L14.1094 447.7344 Q15.3281 447.7344 15.9219 447.3438 Q16.5312 446.9531 16.5312 446 Q16.5312 445.1719 16 444.7656 Q15.4688 444.3594 14.3438 444.3594 ZM24.8694 448.7656 Q24.8694 450.375 24.0569 451.25 Q23.2444 452.125 21.8694 452.125 Q21.0257 452.125 20.3538 451.7344 Q19.6819 451.3438 19.2913 450.5938 Q18.9163 449.8438 18.9163 448.7656 Q18.9163 447.1719 19.7132 446.3125 Q20.5257 445.4531 21.9007 445.4531 Q22.7913 445.4531 23.4476 445.8438 Q24.1194 446.2344 24.4944 446.9688 Q24.8694 447.7031 24.8694 448.7656 ZM20.0101 448.7656 Q20.0101 449.9062 20.4632 450.5781 Q20.9163 451.25 21.9007 451.25 Q22.8694 451.25 23.3226 450.5781 Q23.7757 449.9062 23.7757 448.7656 Q23.7757 447.625 23.3226 446.9844 Q22.8694 446.3438 21.8851 446.3438 Q20.9007 446.3438 20.4476 446.9844 Q20.0101 447.625 20.0101 448.7656 ZM30.692 448.3594 Q30.5357 447.875 30.4107 447.4062 Q30.3014 446.9219 30.2545 446.6562 L30.2076 446.6562 Q30.1451 446.9219 30.0357 447.4062 Q29.942 447.875 29.7701 448.375 L28.6139 451.9844 L27.4107 451.9844 L25.6451 445.5625 L26.7389 445.5625 L27.6295 448.9844 Q27.7701 449.5 27.8795 450.0312 Q28.0045 450.5625 28.0514 450.9062 L28.0982 450.9062 Q28.1451 450.7031 28.2076 450.4062 Q28.2857 450.1094 28.3639 449.7812 Q28.442 449.4375 28.5357 449.1875 L29.6764 445.5625 L30.817 445.5625 L31.9264 449.1875 Q32.067 449.5938 32.192 450.0781 Q32.317 450.5469 32.3639 450.8906 L32.4107 450.8906 Q32.442 450.5938 32.567 450.0781 Q32.692 449.5469 32.8326 448.9844 L33.7389 445.5625 L34.817 445.5625 L33.0357 451.9844 L31.8014 451.9844 L30.692 448.3594 ZM38.4522 445.4531 Q39.2803 445.4531 39.8741 445.8125 Q40.4678 446.1719 40.7803 446.8281 Q41.1084 447.4688 41.1084 448.3594 L41.1084 448.9844 L36.7022 448.9844 Q36.7334 450.0781 37.2647 450.6562 Q37.7959 451.2188 38.7491 451.2188 Q39.3741 451.2188 39.8428 451.1094 Q40.3116 450.9844 40.8272 450.7812 L40.8272 451.7031 Q40.3272 451.9219 39.8428 452.0156 Q39.3741 452.125 38.7022 452.125 Q37.7959 452.125 37.0928 451.75 Q36.3897 451.375 35.9991 450.6406 Q35.6084 449.9062 35.6084 448.8281 Q35.6084 447.7812 35.9678 447.0312 Q36.3272 446.2656 36.9678 445.8594 Q37.6084 445.4531 38.4522 445.4531 ZM38.4366 446.3125 Q37.6866 446.3125 37.2491 446.7969 Q36.8116 447.2812 36.7334 448.1406 L39.9991 448.1406 Q39.9991 447.3281 39.6241 446.8281 Q39.2491 446.3125 38.4366 446.3125 ZM45.7359 445.4531 Q45.9234 445.4531 46.1265 445.4688 Q46.3452 445.4844 46.5015 445.5156 L46.3609 446.4844 Q46.2046 446.4531 46.0171 446.4375 Q45.8296 446.4062 45.6734 446.4062 Q45.1734 446.4062 44.7359 446.6875 Q44.314 446.9531 44.0484 447.4375 Q43.7984 447.9219 43.7984 448.5625 L43.7984 452 L42.7359 452 L42.7359 445.5625 L43.6109 445.5625 L43.7202 446.75 L43.7671 446.75 Q44.0796 446.2188 44.564 445.8438 Q45.064 445.4531 45.7359 445.4531 ZM50.1763 445.4531 Q51.0044 445.4531 51.5981 445.8125 Q52.1919 446.1719 52.5044 446.8281 Q52.8325 447.4688 52.8325 448.3594 L52.8325 448.9844 L48.4263 448.9844 Q48.4575 450.0781 48.9888 450.6562 Q49.52 451.2188 50.4731 451.2188 Q51.0981 451.2188 51.5669 451.1094 Q52.0356 450.9844 52.5513 450.7812 L52.5513 451.7031 Q52.0513 451.9219 51.5669 452.0156 Q51.0981 452.125 50.4263 452.125 Q49.52 452.125 48.8169 451.75 Q48.1138 451.375 47.7231 450.6406 Q47.3325 449.9062 47.3325 448.8281 Q47.3325 447.7812 47.6919 447.0312 Q48.0513 446.2656 48.6919 445.8594 Q49.3325 445.4531 50.1763 445.4531 ZM50.1606 446.3125 Q49.4106 446.3125 48.9731 446.7969 Q48.5356 447.2812 48.4575 448.1406 L51.7231 448.1406 Q51.7231 447.3281 51.3481 446.8281 Q50.9731 446.3125 50.1606 446.3125 ZM56.7412 452.125 Q55.5381 452.125 54.8193 451.2969 Q54.1006 450.4531 54.1006 448.7969 Q54.1006 447.1406 54.8193 446.2969 Q55.5537 445.4531 56.7568 445.4531 Q57.5068 445.4531 57.9756 445.7344 Q58.4443 446 58.7412 446.3906 L58.8193 446.3906 Q58.8037 446.2344 58.7724 445.9375 Q58.7412 445.625 58.7412 445.4531 L58.7412 442.875 L59.8037 442.875 L59.8037 452 L58.9599 452 L58.8037 451.1406 L58.7412 451.1406 Q58.4599 451.5469 57.9756 451.8438 Q57.5068 452.125 56.7412 452.125 ZM56.9131 451.25 Q57.9287 451.25 58.3349 450.6875 Q58.7568 450.125 58.7568 449 L58.7568 448.8125 Q58.7568 447.6094 58.3662 446.9688 Q57.9756 446.3281 56.8974 446.3281 Q56.0537 446.3281 55.6162 447.0156 Q55.1943 447.6875 55.1943 448.8125 Q55.1943 449.9688 55.6162 450.6094 Q56.0537 451.25 56.9131 451.25 ZM66.0225 445.0938 Q66.0225 445.5156 66.0069 445.875 Q65.9913 446.2188 65.96 446.4219 L66.0225 446.4219 Q66.3038 446.0156 66.7725 445.7344 Q67.2569 445.4531 68.0069 445.4531 Q69.21 445.4531 69.9288 446.2969 Q70.6631 447.125 70.6631 448.7812 Q70.6631 450.4375 69.9288 451.2812 Q69.1944 452.125 68.0069 452.125 Q67.2569 452.125 66.7725 451.8438 Q66.3038 451.5625 66.0225 451.1875 L65.9288 451.1875 L65.7256 452 L64.96 452 L64.96 442.875 L66.0225 442.875 L66.0225 445.0938 ZM67.835 446.3438 Q66.8194 446.3438 66.4131 446.9375 Q66.0225 447.5156 66.0225 448.75 L66.0225 448.7969 Q66.0225 449.9844 66.4131 450.625 Q66.8038 451.25 67.8506 451.25 Q68.7256 451.25 69.1475 450.6094 Q69.5694 449.9688 69.5694 448.7656 Q69.5694 446.3438 67.835 446.3438 ZM71.3401 445.5625 L72.4651 445.5625 L73.8557 449.2344 Q74.0432 449.7031 74.1838 450.1406 Q74.3244 450.5781 74.4026 450.9844 L74.4494 450.9844 Q74.5119 450.6875 74.6682 450.2031 Q74.8244 449.7031 74.9963 449.2188 L76.3088 445.5625 L77.4494 445.5625 L74.6682 452.8906 Q74.3401 453.7969 73.7932 454.3281 Q73.2619 454.875 72.3401 454.875 Q72.0432 454.875 71.8244 454.8438 Q71.6057 454.8125 71.4494 454.7812 L71.4494 453.9375 Q71.5901 453.9688 71.7776 453.9844 Q71.9651 454.0156 72.1682 454.0156 Q72.7151 454.0156 73.0588 453.7031 Q73.4026 453.3906 73.5901 452.875 L73.9338 452.0312 L71.3401 445.5625 ZM80.5801 445.5625 L81.7051 445.5625 L83.0958 449.2344 Q83.2833 449.7031 83.4239 450.1406 Q83.5645 450.5781 83.6426 450.9844 L83.6895 450.9844 Q83.752 450.6875 83.9083 450.2031 Q84.0645 449.7031 84.2364 449.2188 L85.5489 445.5625 L86.6895 445.5625 L83.9083 452.8906 Q83.5801 453.7969 83.0333 454.3281 Q82.502 454.875 81.5801 454.875 Q81.2833 454.875 81.0645 454.8438 Q80.8458 454.8125 80.6895 454.7812 L80.6895 453.9375 Q80.8301 453.9688 81.0176 453.9844 Q81.2051 454.0156 81.4083 454.0156 Q81.9551 454.0156 82.2989 453.7031 Q82.6426 453.3906 82.8301 452.875 L83.1739 452.0312 L80.5801 445.5625 ZM88.9346 452 L87.8408 452 L87.8408 443.4375 L92.6377 443.4375 L92.6377 444.375 L88.9346 444.375 L88.9346 447.4219 L92.4033 447.4219 L92.4033 448.3594 L88.9346 448.3594 L88.9346 452 ZM94.4751 443.1562 Q94.7095 443.1562 94.897 443.3281 Q95.0845 443.4844 95.0845 443.8281 Q95.0845 444.1562 94.897 444.3281 Q94.7095 444.5 94.4751 444.5 Q94.2095 444.5 94.022 444.3281 Q93.8501 444.1562 93.8501 443.8281 Q93.8501 443.4844 94.022 443.3281 Q94.2095 443.1562 94.4751 443.1562 ZM94.9907 445.5625 L94.9907 452 L93.9282 452 L93.9282 445.5625 L94.9907 445.5625 ZM98.0867 452 L97.0242 452 L97.0242 442.875 L98.0867 442.875 L98.0867 452 ZM102.6046 445.4531 Q103.4328 445.4531 104.0265 445.8125 Q104.6203 446.1719 104.9328 446.8281 Q105.2609 447.4688 105.2609 448.3594 L105.2609 448.9844 L100.8546 448.9844 Q100.8859 450.0781 101.4171 450.6562 Q101.9484 451.2188 102.9015 451.2188 Q103.5265 451.2188 103.9953 451.1094 Q104.464 450.9844 104.9796 450.7812 L104.9796 451.7031 Q104.4796 451.9219 103.9953 452.0156 Q103.5265 452.125 102.8546 452.125 Q101.9484 452.125 101.2453 451.75 Q100.5421 451.375 100.1515 450.6406 Q99.7609 449.9062 99.7609 448.8281 Q99.7609 447.7812 100.1203 447.0312 Q100.4796 446.2656 101.1203 445.8594 Q101.7609 445.4531 102.6046 445.4531 ZM102.589 446.3125 Q101.839 446.3125 101.4015 446.7969 Q100.964 447.2812 100.8859 448.1406 L104.1515 448.1406 Q104.1515 447.3281 103.7765 446.8281 Q103.4015 446.3125 102.589 446.3125 ZM111.0758 450.2188 Q111.0758 451.1562 110.3727 451.6406 Q109.6852 452.125 108.5133 452.125 Q107.8414 452.125 107.3571 452.0156 Q106.8727 451.9062 106.4977 451.7188 L106.4977 450.75 Q106.8883 450.9375 107.4196 451.1094 Q107.9664 451.2656 108.5289 451.2656 Q109.3414 451.2656 109.7008 451.0156 Q110.0602 450.75 110.0602 450.3125 Q110.0602 450.0781 109.9196 449.8906 Q109.7946 449.7031 109.4508 449.5156 Q109.1071 449.3125 108.4821 449.0781 Q107.8571 448.8281 107.4039 448.5938 Q106.9664 448.3594 106.7164 448.0312 Q106.4821 447.6875 106.4821 447.1562 Q106.4821 446.3438 107.1383 445.9062 Q107.8102 445.4531 108.9039 445.4531 Q109.4821 445.4531 109.9821 445.5625 Q110.4977 445.6719 110.9508 445.875 L110.5914 446.7188 Q110.1852 446.5469 109.7321 446.4375 Q109.2946 446.3125 108.8258 446.3125 Q108.1696 446.3125 107.8258 446.5312 Q107.4977 446.7344 107.4977 447.0938 Q107.4977 447.3594 107.6539 447.5469 Q107.8102 447.7344 108.1696 447.9062 Q108.5289 448.0781 109.1539 448.3125 Q109.7633 448.5469 110.1852 448.7969 Q110.6227 449.0312 110.8414 449.375 Q111.0758 449.7031 111.0758 450.2188 Z" stroke="none" clip-path="url(#clipPath1)"/>
    </g>
    <g fill="silver" stroke="silver">
      <path d="M13.4375 442.4375 Q15.1094 442.4375 15.875 443.0938 Q16.6406 443.75 16.6406 444.9531 Q16.6406 445.6562 16.3281 446.2812 Q16.0156 446.8906 15.2656 447.2812 Q14.5156 447.6562 13.2344 447.6562 L12.25 447.6562 L12.25 451 L11.1562 451 L11.1562 442.4375 L13.4375 442.4375 ZM13.3438 443.3594 L12.25 443.3594 L12.25 446.7344 L13.1094 446.7344 Q14.3281 446.7344 14.9219 446.3438 Q15.5312 445.9531 15.5312 445 Q15.5312 444.1719 15 443.7656 Q14.4688 443.3594 13.3438 443.3594 ZM23.8694 447.7656 Q23.8694 449.375 23.0569 450.25 Q22.2444 451.125 20.8694 451.125 Q20.0257 451.125 19.3538 450.7344 Q18.6819 450.3438 18.2913 449.5938 Q17.9163 448.8438 17.9163 447.7656 Q17.9163 446.1719 18.7132 445.3125 Q19.5257 444.4531 20.9007 444.4531 Q21.7913 444.4531 22.4476 444.8438 Q23.1194 445.2344 23.4944 445.9688 Q23.8694 446.7031 23.8694 447.7656 ZM19.0101 447.7656 Q19.0101 448.9062 19.4632 449.5781 Q19.9163 450.25 20.9007 450.25 Q21.8694 450.25 22.3226 449.5781 Q22.7757 448.9062 22.7757 447.7656 Q22.7757 446.625 22.3226 445.9844 Q21.8694 445.3438 20.8851 445.3438 Q19.9007 445.3438 19.4476 445.9844 Q19.0101 446.625 19.0101 447.7656 ZM29.692 447.3594 Q29.5357 446.875 29.4107 446.4062 Q29.3014 445.9219 29.2545 445.6562 L29.2076 445.6562 Q29.1451 445.9219 29.0357 446.4062 Q28.942 446.875 28.7701 447.375 L27.6139 450.9844 L26.4107 450.9844 L24.6451 444.5625 L25.7389 444.5625 L26.6295 447.9844 Q26.7701 448.5 26.8795 449.0312 Q27.0045 449.5625 27.0514 449.9062 L27.0982 449.9062 Q27.1451 449.7031 27.2076 449.4062 Q27.2857 449.1094 27.3639 448.7812 Q27.442 448.4375 27.5357 448.1875 L28.6764 444.5625 L29.817 444.5625 L30.9264 448.1875 Q31.067 448.5938 31.192 449.0781 Q31.317 449.5469 31.3639 449.8906 L31.4107 449.8906 Q31.442 449.5938 31.567 449.0781 Q31.692 448.5469 31.8326 447.9844 L32.7389 444.5625 L33.817 444.5625 L32.0357 450.9844 L30.8014 450.9844 L29.692 447.3594 ZM37.4522 444.4531 Q38.2803 444.4531 38.8741 444.8125 Q39.4678 445.1719 39.7803 445.8281 Q40.1084 446.4688 40.1084 447.3594 L40.1084 447.9844 L35.7022 447.9844 Q35.7334 449.0781 36.2647 449.6562 Q36.7959 450.2188 37.7491 450.2188 Q38.3741 450.2188 38.8428 450.1094 Q39.3116 449.9844 39.8272 449.7812 L39.8272 450.7031 Q39.3272 450.9219 38.8428 451.0156 Q38.3741 451.125 37.7022 451.125 Q36.7959 451.125 36.0928 450.75 Q35.3897 450.375 34.9991 449.6406 Q34.6084 448.9062 34.6084 447.8281 Q34.6084 446.7812 34.9678 446.0312 Q35.3272 445.2656 35.9678 444.8594 Q36.6084 444.4531 37.4522 444.4531 ZM37.4366 445.3125 Q36.6866 445.3125 36.2491 445.7969 Q35.8116 446.2812 35.7334 447.1406 L38.9991 447.1406 Q38.9991 446.3281 38.6241 445.8281 Q38.2491 445.3125 37.4366 445.3125 ZM44.7359 444.4531 Q44.9234 444.4531 45.1265 444.4688 Q45.3452 444.4844 45.5015 444.5156 L45.3609 445.4844 Q45.2046 445.4531 45.0171 445.4375 Q44.8296 445.4062 44.6734 445.4062 Q44.1734 445.4062 43.7359 445.6875 Q43.314 445.9531 43.0484 446.4375 Q42.7984 446.9219 42.7984 447.5625 L42.7984 451 L41.7359 451 L41.7359 444.5625 L42.6109 444.5625 L42.7202 445.75 L42.7671 445.75 Q43.0796 445.2188 43.564 444.8438 Q44.064 444.4531 44.7359 444.4531 ZM49.1763 444.4531 Q50.0044 444.4531 50.5981 444.8125 Q51.1919 445.1719 51.5044 445.8281 Q51.8325 446.4688 51.8325 447.3594 L51.8325 447.9844 L47.4263 447.9844 Q47.4575 449.0781 47.9888 449.6562 Q48.52 450.2188 49.4731 450.2188 Q50.0981 450.2188 50.5669 450.1094 Q51.0356 449.9844 51.5513 449.7812 L51.5513 450.7031 Q51.0513 450.9219 50.5669 451.0156 Q50.0981 451.125 49.4263 451.125 Q48.52 451.125 47.8169 450.75 Q47.1138 450.375 46.7231 449.6406 Q46.3325 448.9062 46.3325 447.8281 Q46.3325 446.7812 46.6919 446.0312 Q47.0513 445.2656 47.6919 444.8594 Q48.3325 444.4531 49.1763 444.4531 ZM49.1606 445.3125 Q48.4106 445.3125 47.9731 445.7969 Q47.5356 446.2812 47.4575 447.1406 L50.7231 447.1406 Q50.7231 446.3281 50.3481 445.8281 Q49.9731 445.3125 49.1606 445.3125 ZM55.7412 451.125 Q54.5381 451.125 53.8193 450.2969 Q53.1006 449.4531 53.1006 447.7969 Q53.1006 446.1406 53.8193 445.2969 Q54.5537 444.4531 55.7568 444.4531 Q56.5068 444.4531 56.9756 444.7344 Q57.4443 445 57.7412 445.3906 L57.8193 445.3906 Q57.8037 445.2344 57.7724 444.9375 Q57.7412 444.625 57.7412 444.4531 L57.7412 441.875 L58.8037 441.875 L58.8037 451 L57.9599 451 L57.8037 450.1406 L57.7412 450.1406 Q57.4599 450.5469 56.9756 450.8438 Q56.5068 451.125 55.7412 451.125 ZM55.9131 450.25 Q56.9287 450.25 57.3349 449.6875 Q57.7568 449.125 57.7568 448 L57.7568 447.8125 Q57.7568 446.6094 57.3662 445.9688 Q56.9756 445.3281 55.8974 445.3281 Q55.0537 445.3281 54.6162 446.0156 Q54.1943 446.6875 54.1943 447.8125 Q54.1943 448.9688 54.6162 449.6094 Q55.0537 450.25 55.9131 450.25 ZM65.0225 444.0938 Q65.0225 444.5156 65.0069 444.875 Q64.9913 445.2188 64.96 445.4219 L65.0225 445.4219 Q65.3038 445.0156 65.7725 444.7344 Q66.2569 444.4531 67.0069 444.4531 Q68.21 444.4531 68.9288 445.2969 Q69.6631 446.125 69.6631 447.7812 Q69.6631 449.4375 68.9288 450.2812 Q68.1944 451.125 67.0069 451.125 Q66.2569 451.125 65.7725 450.8438 Q65.3038 450.5625 65.0225 450.1875 L64.9288 450.1875 L64.7256 451 L63.96 451 L63.96 441.875 L65.0225 441.875 L65.0225 444.0938 ZM66.835 445.3438 Q65.8194 445.3438 65.4131 445.9375 Q65.0225 446.5156 65.0225 447.75 L65.0225 447.7969 Q65.0225 448.9844 65.4131 449.625 Q65.8038 450.25 66.8506 450.25 Q67.7256 450.25 68.1475 449.6094 Q68.5694 448.9688 68.5694 447.7656 Q68.5694 445.3438 66.835 445.3438 ZM70.3401 444.5625 L71.4651 444.5625 L72.8557 448.2344 Q73.0432 448.7031 73.1838 449.1406 Q73.3244 449.5781 73.4026 449.9844 L73.4494 449.9844 Q73.5119 449.6875 73.6682 449.2031 Q73.8244 448.7031 73.9963 448.2188 L75.3088 444.5625 L76.4494 444.5625 L73.6682 451.8906 Q73.3401 452.7969 72.7932 453.3281 Q72.2619 453.875 71.3401 453.875 Q71.0432 453.875 70.8244 453.8438 Q70.6057 453.8125 70.4494 453.7812 L70.4494 452.9375 Q70.5901 452.9688 70.7776 452.9844 Q70.9651 453.0156 71.1682 453.0156 Q71.7151 453.0156 72.0588 452.7031 Q72.4026 452.3906 72.5901 451.875 L72.9338 451.0312 L70.3401 444.5625 ZM79.5801 444.5625 L80.7051 444.5625 L82.0958 448.2344 Q82.2833 448.7031 82.4239 449.1406 Q82.5645 449.5781 82.6426 449.9844 L82.6895 449.9844 Q82.752 449.6875 82.9083 449.2031 Q83.0645 448.7031 83.2364 448.2188 L84.5489 444.5625 L85.6895 444.5625 L82.9083 451.8906 Q82.5801 452.7969 82.0333 453.3281 Q81.502 453.875 80.5801 453.875 Q80.2833 453.875 80.0645 453.8438 Q79.8458 453.8125 79.6895 453.7812 L79.6895 452.9375 Q79.8301 452.9688 80.0176 452.9844 Q80.2051 453.0156 80.4083 453.0156 Q80.9551 453.0156 81.2989 452.7031 Q81.6426 452.3906 81.8301 451.875 L82.1739 451.0312 L79.5801 444.5625 ZM87.9346 451 L86.8408 451 L86.8408 442.4375 L91.6377 442.4375 L91.6377 443.375 L87.9346 443.375 L87.9346 446.4219 L91.4033 446.4219 L91.4033 447.3594 L87.9346 447.3594 L87.9346 451 ZM93.4751 442.1562 Q93.7095 442.1562 93.897 442.3281 Q94.0845 442.4844 94.0845 442.8281 Q94.0845 443.1562 93.897 443.3281 Q93.7095 443.5 93.4751 443.5 Q93.2095 443.5 93.022 443.3281 Q92.8501 443.1562 92.8501 442.8281 Q92.8501 442.4844 93.022 442.3281 Q93.2095 442.1562 93.4751 442.1562 ZM93.9907 444.5625 L93.9907 451 L92.9282 451 L92.9282 444.5625 L93.9907 444.5625 ZM97.0867 451 L96.0242 451 L96.0242 441.875 L97.0867 441.875 L97.0867 451 ZM101.6046 444.4531 Q102.4328 444.4531 103.0265 444.8125 Q103.6203 445.1719 103.9328 445.8281 Q104.2609 446.4688 104.2609 447.3594 L104.2609 447.9844 L99.8546 447.9844 Q99.8859 449.0781 100.4171 449.6562 Q100.9484 450.2188 101.9015 450.2188 Q102.5265 450.2188 102.9953 450.1094 Q103.464 449.9844 103.9796 449.7812 L103.9796 450.7031 Q103.4796 450.9219 102.9953 451.0156 Q102.5265 451.125 101.8546 451.125 Q100.9484 451.125 100.2453 450.75 Q99.5421 450.375 99.1515 449.6406 Q98.7609 448.9062 98.7609 447.8281 Q98.7609 446.7812 99.1203 446.0312 Q99.4796 445.2656 100.1203 444.8594 Q100.7609 444.4531 101.6046 444.4531 ZM101.589 445.3125 Q100.839 445.3125 100.4015 445.7969 Q99.964 446.2812 99.8859 447.1406 L103.1515 447.1406 Q103.1515 446.3281 102.7765 445.8281 Q102.4015 445.3125 101.589 445.3125 ZM110.0758 449.2188 Q110.0758 450.1562 109.3727 450.6406 Q108.6852 451.125 107.5133 451.125 Q106.8414 451.125 106.3571 451.0156 Q105.8727 450.9062 105.4977 450.7188 L105.4977 449.75 Q105.8883 449.9375 106.4196 450.1094 Q106.9664 450.2656 107.5289 450.2656 Q108.3414 450.2656 108.7008 450.0156 Q109.0602 449.75 109.0602 449.3125 Q109.0602 449.0781 108.9196 448.8906 Q108.7946 448.7031 108.4508 448.5156 Q108.1071 448.3125 107.4821 448.0781 Q106.8571 447.8281 106.4039 447.5938 Q105.9664 447.3594 105.7164 447.0312 Q105.4821 446.6875 105.4821 446.1562 Q105.4821 445.3438 106.1383 444.9062 Q106.8102 444.4531 107.9039 444.4531 Q108.4821 444.4531 108.9821 444.5625 Q109.4977 444.6719 109.9508 444.875 L109.5914 445.7188 Q109.1852 445.5469 108.7321 445.4375 Q108.2946 445.3125 107.8258 445.3125 Q107.1696 445.3125 106.8258 445.5312 Q106.4977 445.7344 106.4977 446.0938 Q106.4977 446.3594 106.6539 446.5469 Q106.8102 446.7344 107.1696 446.9062 Q107.5289 447.0781 108.1539 447.3125 Q108.7633 447.5469 109.1852 447.7969 Q109.6227 448.0312 109.8414 448.375 Q110.0758 448.7031 110.0758 449.2188 Z" stroke="none" clip-path="url(#clipPath1)"/>
    </g>
    <g fill="rgb(255,255,204)" transform="matrix(0.9606,0,0,0.9606,9.2718,9.6058)" stroke="rgb(255,255,204)">
      <rect x="253" width="213" height="193.9119" y="197.7337" clip-path="url(#clipPath2)" stroke="none"/>
    </g>
    <g fill="gray" stroke-miterlimit="1.45" transform="matrix(0.9606,0,0,0.9606,9.2718,9.6058)" stroke-linecap="butt" stroke="gray">
      <rect fill="none" x="253" width="213" height="193.9119" y="197.7337" clip-path="url(#clipPath2)"/>
    </g>
    <g stroke-miterlimit="1.45" font-size="13px" font-family="'Inter'" transform="matrix(0.9606,0,0,0.9606,9.2718,9.6058)" stroke-linecap="butt">
      <text x="333.5" xml:space="preserve" y="216.3275" clip-path="url(#clipPath2)" stroke="none">program</text>
    </g>
    <g fill="gray" transform="matrix(0.9606,0,0,0.9606,9.2718,9.6058)" stroke="gray">
      <line y2="223" fill="none" x1="254" clip-path="url(#clipPath2)" x2="465" y1="223"/>
    </g>
    <g stroke-linecap="round" transform="matrix(0.6404,0,0,0.6404,256.1411,227.1454)" fill="silver" image-rendering="optimizeQuality" stroke-linejoin="round" stroke="silver" stroke-width="2" stroke-miterlimit="4">
      <path fill="none" d="M12.4 2.7 C13.3 1.8 14.9 1.8 15.8 2.7 L21.3 8.2 C22.2 9.1 22.2 10.7 21.3 11.6 L17.6 15.3 C16.7 16.2 15.1 16.2 14.2 15.3 L8.7 9.8 C7.8 8.9 7.8 7.3 8.7 6.4 Z" clip-path="url(#clipPath4)"/>
    </g>
    <g stroke-linecap="round" transform="matrix(0.6404,0,0,0.6404,256.1411,227.1454)" fill="silver" image-rendering="optimizeQuality" stroke-linejoin="round" stroke="silver" stroke-width="2" stroke-miterlimit="4">
      <path fill="none" d="M14 7 L17 10" clip-path="url(#clipPath4)"/>
    </g>
    <g stroke-linecap="round" transform="matrix(0.6404,0,0,0.6404,256.1411,227.1454)" fill="silver" image-rendering="optimizeQuality" stroke-linejoin="round" stroke="silver" stroke-width="2" stroke-miterlimit="4">
      <path fill="none" d="M9.4 10.6 L2 18 L2 21 C2 21.6 2.4 22 3 22 L7 22 L7 19 L10 19 L10 16 L12 16 L13.4 14.6" clip-path="url(#clipPath4)"/>
    </g>
    <g stroke-miterlimit="1.45" font-weight="bold" font-family="'Inter'" transform="matrix(0.9606,0,0,0.9606,9.2718,9.6058)" stroke-linecap="butt">
      <text x="279" xml:space="preserve" y="241.0914" clip-path="url(#clipPath2)" stroke="none">id</text>
    </g>
    <g stroke-miterlimit="1.45" font-family="'Inter'" transform="matrix(0.9606,0,0,0.9606,9.2718,9.6058)" stroke-linecap="butt">
      <text x="393" xml:space="preserve" y="241.0914" clip-path="url(#clipPath2)" stroke="none">serial</text>
      <text x="279" xml:space="preserve" y="261.6138" clip-path="url(#clipPath2)" font-weight="bold" stroke="none">title</text>
      <text x="393" xml:space="preserve" y="261.6138" clip-path="url(#clipPath2)" stroke="none">varchar</text>
      <text x="279" xml:space="preserve" y="282.1361" clip-path="url(#clipPath2)" font-weight="bold" stroke="none">url</text>
      <text x="393" xml:space="preserve" y="282.1361" clip-path="url(#clipPath2)" stroke="none">varchar</text>
      <text x="279" xml:space="preserve" y="302.6585" clip-path="url(#clipPath2)" font-weight="bold" stroke="none">education_level_id</text>
      <text x="393" xml:space="preserve" y="302.6585" clip-path="url(#clipPath2)" stroke="none">int4</text>
    </g>
    <g stroke-linecap="round" transform="matrix(0.6404,0,0,0.6404,435.7697,286.2856)" fill="silver" image-rendering="optimizeQuality" stroke-linejoin="round" stroke="silver" stroke-width="2" stroke-miterlimit="4">
      <path fill="none" d="M7 7 L17 7 L17 17" clip-path="url(#clipPath6)"/>
    </g>
    <g stroke-linecap="round" transform="matrix(0.6404,0,0,0.6404,435.7697,286.2856)" fill="silver" image-rendering="optimizeQuality" stroke-linejoin="round" stroke="silver" stroke-width="2" stroke-miterlimit="4">
      <path fill="none" d="M7 17 L17 7" clip-path="url(#clipPath6)"/>
    </g>
    <g stroke-miterlimit="1.45" font-weight="bold" font-family="'Inter'" transform="matrix(0.9606,0,0,0.9606,9.2718,9.6058)" stroke-linecap="butt">
      <text x="279" xml:space="preserve" y="323.1808" clip-path="url(#clipPath2)" stroke="none">study_form_id</text>
    </g>
    <g stroke-miterlimit="1.45" font-family="'Inter'" transform="matrix(0.9606,0,0,0.9606,9.2718,9.6058)" stroke-linecap="butt">
      <text x="393" xml:space="preserve" y="323.1808" clip-path="url(#clipPath2)" stroke="none">int4</text>
    </g>
    <g stroke-linecap="round" transform="matrix(0.6404,0,0,0.6404,435.7697,305.999)" fill="silver" image-rendering="optimizeQuality" stroke-linejoin="round" stroke="silver" stroke-width="2" stroke-miterlimit="4">
      <path fill="none" d="M7 7 L17 7 L17 17" clip-path="url(#clipPath6)"/>
    </g>
    <g stroke-linecap="round" transform="matrix(0.6404,0,0,0.6404,435.7697,305.999)" fill="silver" image-rendering="optimizeQuality" stroke-linejoin="round" stroke="silver" stroke-width="2" stroke-miterlimit="4">
      <path fill="none" d="M7 17 L17 7" clip-path="url(#clipPath6)"/>
    </g>
    <g stroke-miterlimit="1.45" font-weight="bold" font-family="'Inter'" transform="matrix(0.9606,0,0,0.9606,9.2718,9.6058)" stroke-linecap="butt">
      <text x="279" xml:space="preserve" y="343.7032" clip-path="url(#clipPath2)" stroke="none">study_duration_id</text>
    </g>
    <g stroke-miterlimit="1.45" font-family="'Inter'" transform="matrix(0.9606,0,0,0.9606,9.2718,9.6058)" stroke-linecap="butt">
      <text x="393" xml:space="preserve" y="343.7032" clip-path="url(#clipPath2)" stroke="none">int4</text>
    </g>
    <g stroke-linecap="round" transform="matrix(0.6404,0,0,0.6404,435.7697,325.7123)" fill="silver" image-rendering="optimizeQuality" stroke-linejoin="round" stroke="silver" stroke-width="2" stroke-miterlimit="4">
      <path fill="none" d="M7 7 L17 7 L17 17" clip-path="url(#clipPath4)"/>
    </g>
    <g stroke-linecap="round" transform="matrix(0.6404,0,0,0.6404,435.7697,325.7123)" fill="silver" image-rendering="optimizeQuality" stroke-linejoin="round" stroke="silver" stroke-width="2" stroke-miterlimit="4">
      <path fill="none" d="M7 17 L17 7" clip-path="url(#clipPath4)"/>
    </g>
    <g stroke-miterlimit="1.45" font-weight="bold" font-family="'Inter'" transform="matrix(0.9606,0,0,0.9606,9.2718,9.6058)" stroke-linecap="butt">
      <text x="279" xml:space="preserve" y="364.2256" clip-path="url(#clipPath2)" stroke="none">program_info</text>
    </g>
    <g stroke-miterlimit="1.45" font-family="'Inter'" transform="matrix(0.9606,0,0,0.9606,9.2718,9.6058)" stroke-linecap="butt">
      <text x="393" xml:space="preserve" y="364.2256" clip-path="url(#clipPath2)" stroke="none">text</text>
      <text x="279" xml:space="preserve" y="384.7479" clip-path="url(#clipPath2)" font-weight="bold" stroke="none">career_info</text>
      <text x="393" xml:space="preserve" y="384.7479" clip-path="url(#clipPath2)" stroke="none">text</text>
    </g>
    <g fill="rgb(255,255,204)" transform="matrix(0.9606,0,0,0.9606,9.2718,9.6058)" stroke="rgb(255,255,204)">
      <rect x="526.5" width="121" height="70.7777" y="217.8841" clip-path="url(#clipPath2)" stroke="none"/>
    </g>
    <g fill="gray" stroke-miterlimit="1.45" transform="matrix(0.9606,0,0,0.9606,9.2718,9.6058)" stroke-linecap="butt" stroke="gray">
      <rect fill="none" x="526.5" width="121" height="70.7777" y="217.8841" clip-path="url(#clipPath2)"/>
    </g>
    <g stroke-miterlimit="1.45" font-size="13px" font-family="'Inter'" transform="matrix(0.9606,0,0,0.9606,9.2718,9.6058)" stroke-linecap="butt">
      <text x="552" xml:space="preserve" y="236.4779" clip-path="url(#clipPath2)" stroke="none">study_form</text>
    </g>
    <g fill="gray" transform="matrix(0.9606,0,0,0.9606,9.2718,9.6058)" stroke="gray">
      <line y2="243" fill="none" x1="527" clip-path="url(#clipPath2)" x2="646" y1="243"/>
    </g>
    <g stroke-linecap="round" transform="matrix(0.6404,0,0,0.6404,518.86,246.5015)" fill="silver" image-rendering="optimizeQuality" stroke-linejoin="round" stroke="silver" stroke-width="2" stroke-miterlimit="4">
      <path fill="none" d="M12.4 2.7 C13.3 1.8 14.9 1.8 15.8 2.7 L21.3 8.2 C22.2 9.1 22.2 10.7 21.3 11.6 L17.6 15.3 C16.7 16.2 15.1 16.2 14.2 15.3 L8.7 9.8 C7.8 8.9 7.8 7.3 8.7 6.4 Z" clip-path="url(#clipPath4)"/>
    </g>
    <g stroke-linecap="round" transform="matrix(0.6404,0,0,0.6404,518.86,246.5015)" fill="silver" image-rendering="optimizeQuality" stroke-linejoin="round" stroke="silver" stroke-width="2" stroke-miterlimit="4">
      <path fill="none" d="M14 7 L17 10" clip-path="url(#clipPath4)"/>
    </g>
    <g stroke-linecap="round" transform="matrix(0.6404,0,0,0.6404,518.86,246.5015)" fill="silver" image-rendering="optimizeQuality" stroke-linejoin="round" stroke="silver" stroke-width="2" stroke-miterlimit="4">
      <path fill="none" d="M9.4 10.6 L2 18 L2 21 C2 21.6 2.4 22 3 22 L7 22 L7 19 L10 19 L10 16 L12 16 L13.4 14.6" clip-path="url(#clipPath4)"/>
    </g>
    <g stroke-miterlimit="1.45" font-weight="bold" font-family="'Inter'" transform="matrix(0.9606,0,0,0.9606,9.2718,9.6058)" stroke-linecap="butt">
      <text x="552.5" xml:space="preserve" y="261.2418" clip-path="url(#clipPath2)" stroke="none">id</text>
    </g>
    <g stroke-miterlimit="1.45" font-family="'Inter'" transform="matrix(0.9606,0,0,0.9606,9.2718,9.6058)" stroke-linecap="butt">
      <text x="590.5" xml:space="preserve" y="261.2418" clip-path="url(#clipPath2)" stroke="none">serial</text>
      <text x="552.5" xml:space="preserve" y="281.7642" clip-path="url(#clipPath2)" font-weight="bold" stroke="none">name</text>
      <text x="590.5" xml:space="preserve" y="281.7642" clip-path="url(#clipPath2)" stroke="none">varchar</text>
    </g>
    <g fill="rgb(255,255,204)" transform="matrix(0.9606,0,0,0.9606,9.2718,9.6058)" stroke="rgb(255,255,204)">
      <rect x="526.5" width="121" height="70.7777" y="0" clip-path="url(#clipPath2)" stroke="none"/>
    </g>
    <g fill="gray" stroke-miterlimit="1.45" transform="matrix(0.9606,0,0,0.9606,9.2718,9.6058)" stroke-linecap="butt" stroke="gray">
      <rect fill="none" x="526.5" width="121" height="70.7777" y="0" clip-path="url(#clipPath2)"/>
    </g>
    <g stroke-miterlimit="1.45" font-size="13px" font-family="'Inter'" transform="matrix(0.9606,0,0,0.9606,9.2718,9.6058)" stroke-linecap="butt">
      <text x="538.5" xml:space="preserve" y="18.5938" clip-path="url(#clipPath2)" stroke="none">education_level</text>
    </g>
    <g fill="gray" transform="matrix(0.9606,0,0,0.9606,9.2718,9.6058)" stroke="gray">
      <line y2="25" fill="none" x1="527" clip-path="url(#clipPath2)" x2="646" y1="25"/>
    </g>
    <g stroke-linecap="round" transform="matrix(0.6404,0,0,0.6404,518.86,37.2062)" fill="silver" image-rendering="optimizeQuality" stroke-linejoin="round" stroke="silver" stroke-width="2" stroke-miterlimit="4">
      <path fill="none" d="M12.4 2.7 C13.3 1.8 14.9 1.8 15.8 2.7 L21.3 8.2 C22.2 9.1 22.2 10.7 21.3 11.6 L17.6 15.3 C16.7 16.2 15.1 16.2 14.2 15.3 L8.7 9.8 C7.8 8.9 7.8 7.3 8.7 6.4 Z" clip-path="url(#clipPath4)"/>
    </g>
    <g stroke-linecap="round" transform="matrix(0.6404,0,0,0.6404,518.86,37.2062)" fill="silver" image-rendering="optimizeQuality" stroke-linejoin="round" stroke="silver" stroke-width="2" stroke-miterlimit="4">
      <path fill="none" d="M14 7 L17 10" clip-path="url(#clipPath4)"/>
    </g>
    <g stroke-linecap="round" transform="matrix(0.6404,0,0,0.6404,518.86,37.2062)" fill="silver" image-rendering="optimizeQuality" stroke-linejoin="round" stroke="silver" stroke-width="2" stroke-miterlimit="4">
      <path fill="none" d="M9.4 10.6 L2 18 L2 21 C2 21.6 2.4 22 3 22 L7 22 L7 19 L10 19 L10 16 L12 16 L13.4 14.6" clip-path="url(#clipPath4)"/>
    </g>
    <g stroke-miterlimit="1.45" font-weight="bold" font-family="'Inter'" transform="matrix(0.9606,0,0,0.9606,9.2718,9.6058)" stroke-linecap="butt">
      <text x="552.5" xml:space="preserve" y="43.3577" clip-path="url(#clipPath2)" stroke="none">id</text>
    </g>
    <g stroke-miterlimit="1.45" font-family="'Inter'" transform="matrix(0.9606,0,0,0.9606,9.2718,9.6058)" stroke-linecap="butt">
      <text x="590.5" xml:space="preserve" y="43.3577" clip-path="url(#clipPath2)" stroke="none">serial</text>
      <text x="552.5" xml:space="preserve" y="63.8801" clip-path="url(#clipPath2)" font-weight="bold" stroke="none">name</text>
      <text x="590.5" xml:space="preserve" y="63.8801" clip-path="url(#clipPath2)" stroke="none">varchar</text>
    </g>
    <g fill="rgb(255,255,204)" transform="matrix(0.9606,0,0,0.9606,9.2718,9.6058)" stroke="rgb(255,255,204)">
      <rect x="526" width="122" height="70.7777" y="332.3841" clip-path="url(#clipPath2)" stroke="none"/>
    </g>
    <g fill="gray" stroke-miterlimit="1.45" transform="matrix(0.9606,0,0,0.9606,9.2718,9.6058)" stroke-linecap="butt" stroke="gray">
      <rect fill="none" x="526" width="122" height="70.7777" y="332.3841" clip-path="url(#clipPath2)"/>
    </g>
    <g stroke-miterlimit="1.45" font-size="13px" font-family="'Inter'" transform="matrix(0.9606,0,0,0.9606,9.2718,9.6058)" stroke-linecap="butt">
      <text x="540.5" xml:space="preserve" y="350.9779" clip-path="url(#clipPath2)" stroke="none">study_duration</text>
    </g>
    <g fill="gray" transform="matrix(0.9606,0,0,0.9606,9.2718,9.6058)" stroke="gray">
      <line y2="358" fill="none" x1="527" clip-path="url(#clipPath2)" x2="647" y1="358"/>
    </g>
    <g stroke-linecap="round" transform="matrix(0.6404,0,0,0.6404,518.3797,356.488)" fill="silver" image-rendering="optimizeQuality" stroke-linejoin="round" stroke="silver" stroke-width="2" stroke-miterlimit="4">
      <path fill="none" d="M12.4 2.7 C13.3 1.8 14.9 1.8 15.8 2.7 L21.3 8.2 C22.2 9.1 22.2 10.7 21.3 11.6 L17.6 15.3 C16.7 16.2 15.1 16.2 14.2 15.3 L8.7 9.8 C7.8 8.9 7.8 7.3 8.7 6.4 Z" clip-path="url(#clipPath12)"/>
    </g>
    <g stroke-linecap="round" transform="matrix(0.6404,0,0,0.6404,518.3797,356.488)" fill="silver" image-rendering="optimizeQuality" stroke-linejoin="round" stroke="silver" stroke-width="2" stroke-miterlimit="4">
      <path fill="none" d="M14 7 L17 10" clip-path="url(#clipPath12)"/>
    </g>
    <g stroke-linecap="round" transform="matrix(0.6404,0,0,0.6404,518.3797,356.488)" fill="silver" image-rendering="optimizeQuality" stroke-linejoin="round" stroke="silver" stroke-width="2" stroke-miterlimit="4">
      <path fill="none" d="M9.4 10.6 L2 18 L2 21 C2 21.6 2.4 22 3 22 L7 22 L7 19 L10 19 L10 16 L12 16 L13.4 14.6" clip-path="url(#clipPath12)"/>
    </g>
    <g stroke-miterlimit="1.45" font-weight="bold" font-family="'Inter'" transform="matrix(0.9606,0,0,0.9606,9.2718,9.6058)" stroke-linecap="butt">
      <text x="552" xml:space="preserve" y="375.7418" clip-path="url(#clipPath2)" stroke="none">id</text>
    </g>
    <g stroke-miterlimit="1.45" font-family="'Inter'" transform="matrix(0.9606,0,0,0.9606,9.2718,9.6058)" stroke-linecap="butt">
      <text x="591" xml:space="preserve" y="375.7418" clip-path="url(#clipPath2)" stroke="none">serial</text>
      <text x="552" xml:space="preserve" y="396.2642" clip-path="url(#clipPath2)" font-weight="bold" stroke="none">years</text>
      <text x="591" xml:space="preserve" y="396.2642" clip-path="url(#clipPath2)" stroke="none">varchar</text>
    </g>
    <g fill="rgb(255,255,204)" transform="matrix(0.9606,0,0,0.9606,9.2718,9.6058)" stroke="rgb(255,255,204)">
      <rect x="0" width="193" height="173.3895" y="135.7946" clip-path="url(#clipPath2)" stroke="none"/>
    </g>
    <g fill="gray" stroke-miterlimit="1.45" transform="matrix(0.9606,0,0,0.9606,9.2718,9.6058)" stroke-linecap="butt" stroke="gray">
      <rect fill="none" x="0" width="193" height="173.3895" y="135.7946" clip-path="url(#clipPath2)"/>
    </g>
    <g stroke-miterlimit="1.45" font-size="13px" font-family="'Inter'" transform="matrix(0.9606,0,0,0.9606,9.2718,9.6058)" stroke-linecap="butt">
      <text x="64" xml:space="preserve" y="154.3884" clip-path="url(#clipPath2)" stroke="none">score_stat</text>
    </g>
    <g fill="gray" transform="matrix(0.9606,0,0,0.9606,9.2718,9.6058)" stroke="gray">
      <line y2="161" fill="none" x1="1" clip-path="url(#clipPath2)" x2="192" y1="161"/>
    </g>
    <g stroke-linecap="round" transform="matrix(0.6404,0,0,0.6404,13.1141,167.6479)" fill="silver" image-rendering="optimizeQuality" stroke-linejoin="round" stroke="silver" stroke-width="2" stroke-miterlimit="4">
      <path fill="none" d="M12.4 2.7 C13.3 1.8 14.9 1.8 15.8 2.7 L21.3 8.2 C22.2 9.1 22.2 10.7 21.3 11.6 L17.6 15.3 C16.7 16.2 15.1 16.2 14.2 15.3 L8.7 9.8 C7.8 8.9 7.8 7.3 8.7 6.4 Z" clip-path="url(#clipPath6)"/>
    </g>
    <g stroke-linecap="round" transform="matrix(0.6404,0,0,0.6404,13.1141,167.6479)" fill="silver" image-rendering="optimizeQuality" stroke-linejoin="round" stroke="silver" stroke-width="2" stroke-miterlimit="4">
      <path fill="none" d="M14 7 L17 10" clip-path="url(#clipPath6)"/>
    </g>
    <g stroke-linecap="round" transform="matrix(0.6404,0,0,0.6404,13.1141,167.6479)" fill="silver" image-rendering="optimizeQuality" stroke-linejoin="round" stroke="silver" stroke-width="2" stroke-miterlimit="4">
      <path fill="none" d="M9.4 10.6 L2 18 L2 21 C2 21.6 2.4 22 3 22 L7 22 L7 19 L10 19 L10 16 L12 16 L13.4 14.6" clip-path="url(#clipPath6)"/>
    </g>
    <g stroke-miterlimit="1.45" font-weight="bold" font-family="'Inter'" transform="matrix(0.9606,0,0,0.9606,9.2718,9.6058)" stroke-linecap="butt">
      <text x="26" xml:space="preserve" y="179.1524" clip-path="url(#clipPath2)" stroke="none">id</text>
    </g>
    <g stroke-miterlimit="1.45" font-family="'Inter'" transform="matrix(0.9606,0,0,0.9606,9.2718,9.6058)" stroke-linecap="butt">
      <text x="120" xml:space="preserve" y="179.1524" clip-path="url(#clipPath2)" stroke="none">serial</text>
      <text x="26" xml:space="preserve" y="199.6747" clip-path="url(#clipPath2)" font-weight="bold" stroke="none">program_id</text>
      <text x="120" xml:space="preserve" y="199.6747" clip-path="url(#clipPath2)" stroke="none">int4</text>
    </g>
    <g stroke-linecap="round" transform="matrix(0.6404,0,0,0.6404,173.5311,187.3613)" fill="silver" image-rendering="optimizeQuality" stroke-linejoin="round" stroke="silver" stroke-width="2" stroke-miterlimit="4">
      <path fill="none" d="M7 7 L17 7 L17 17" clip-path="url(#clipPath4)"/>
    </g>
    <g stroke-linecap="round" transform="matrix(0.6404,0,0,0.6404,173.5311,187.3613)" fill="silver" image-rendering="optimizeQuality" stroke-linejoin="round" stroke="silver" stroke-width="2" stroke-miterlimit="4">
      <path fill="none" d="M7 17 L17 7" clip-path="url(#clipPath4)"/>
    </g>
    <g stroke-miterlimit="1.45" font-weight="bold" font-family="'Inter'" transform="matrix(0.9606,0,0,0.9606,9.2718,9.6058)" stroke-linecap="butt">
      <text x="26" xml:space="preserve" y="220.1971" clip-path="url(#clipPath2)" stroke="none">stat_type</text>
    </g>
    <g stroke-miterlimit="1.45" font-family="'Inter'" transform="matrix(0.9606,0,0,0.9606,9.2718,9.6058)" stroke-linecap="butt">
      <text x="120" xml:space="preserve" y="220.1971" clip-path="url(#clipPath2)" stroke="none">varchar</text>
      <text x="26" xml:space="preserve" y="240.7194" clip-path="url(#clipPath2)" font-weight="bold" stroke="none">budget_places</text>
      <text x="120" xml:space="preserve" y="240.7194" clip-path="url(#clipPath2)" stroke="none">varchar</text>
      <text x="26" xml:space="preserve" y="261.2418" clip-path="url(#clipPath2)" font-weight="bold" stroke="none">target_places</text>
      <text x="120" xml:space="preserve" y="261.2418" clip-path="url(#clipPath2)" stroke="none">varchar</text>
      <text x="26" xml:space="preserve" y="281.7642" clip-path="url(#clipPath2)" font-weight="bold" stroke="none">quota_places</text>
      <text x="120" xml:space="preserve" y="281.7642" clip-path="url(#clipPath2)" stroke="none">varchar</text>
      <text x="26" xml:space="preserve" y="302.2865" clip-path="url(#clipPath2)" font-weight="bold" stroke="none">paid_places</text>
      <text x="120" xml:space="preserve" y="302.2865" clip-path="url(#clipPath2)" stroke="none">varchar</text>
    </g>
    <g fill="rgb(255,255,204)" transform="matrix(0.9606,0,0,0.9606,9.2718,9.6058)" stroke="rgb(255,255,204)">
      <rect x="3" width="187" height="132.3448" y="329.1842" clip-path="url(#clipPath2)" stroke="none"/>
    </g>
    <g fill="gray" stroke-miterlimit="1.45" transform="matrix(0.9606,0,0,0.9606,9.2718,9.6058)" stroke-linecap="butt" stroke="gray">
      <rect fill="none" x="3" width="187" height="132.3448" y="329.1842" clip-path="url(#clipPath2)"/>
    </g>
    <g stroke-miterlimit="1.45" font-size="13px" font-family="'Inter'" transform="matrix(0.9606,0,0,0.9606,9.2718,9.6058)" stroke-linecap="butt">
      <text x="24" xml:space="preserve" y="347.778" clip-path="url(#clipPath2)" stroke="none">program_contest_exam</text>
    </g>
    <g fill="gray" transform="matrix(0.9606,0,0,0.9606,9.2718,9.6058)" stroke="gray">
      <line y2="354" fill="none" x1="4" clip-path="url(#clipPath2)" x2="189" y1="354"/>
    </g>
    <g stroke-linecap="round" transform="matrix(0.6404,0,0,0.6404,15.9959,353.4142)" fill="silver" image-rendering="optimizeQuality" stroke-linejoin="round" stroke="silver" stroke-width="2" stroke-miterlimit="4">
      <path fill="none" d="M12.4 2.7 C13.3 1.8 14.9 1.8 15.8 2.7 L21.3 8.2 C22.2 9.1 22.2 10.7 21.3 11.6 L17.6 15.3 C16.7 16.2 15.1 16.2 14.2 15.3 L8.7 9.8 C7.8 8.9 7.8 7.3 8.7 6.4 Z" clip-path="url(#clipPath12)"/>
    </g>
    <g stroke-linecap="round" transform="matrix(0.6404,0,0,0.6404,15.9959,353.4142)" fill="silver" image-rendering="optimizeQuality" stroke-linejoin="round" stroke="silver" stroke-width="2" stroke-miterlimit="4">
      <path fill="none" d="M14 7 L17 10" clip-path="url(#clipPath12)"/>
    </g>
    <g stroke-linecap="round" transform="matrix(0.6404,0,0,0.6404,15.9959,353.4142)" fill="silver" image-rendering="optimizeQuality" stroke-linejoin="round" stroke="silver" stroke-width="2" stroke-miterlimit="4">
      <path fill="none" d="M9.4 10.6 L2 18 L2 21 C2 21.6 2.4 22 3 22 L7 22 L7 19 L10 19 L10 16 L12 16 L13.4 14.6" clip-path="url(#clipPath12)"/>
    </g>
    <g stroke-miterlimit="1.45" font-weight="bold" font-family="'Inter'" transform="matrix(0.9606,0,0,0.9606,9.2718,9.6058)" stroke-linecap="butt">
      <text x="29" xml:space="preserve" y="372.5419" clip-path="url(#clipPath2)" stroke="none">id</text>
    </g>
    <g stroke-miterlimit="1.45" font-family="'Inter'" transform="matrix(0.9606,0,0,0.9606,9.2718,9.6058)" stroke-linecap="butt">
      <text x="130" xml:space="preserve" y="372.5419" clip-path="url(#clipPath2)" stroke="none">serial</text>
      <text x="29" xml:space="preserve" y="393.0643" clip-path="url(#clipPath2)" font-weight="bold" stroke="none">program_id</text>
      <text x="130" xml:space="preserve" y="393.0643" clip-path="url(#clipPath2)" stroke="none">int4</text>
    </g>
    <g stroke-linecap="round" transform="matrix(0.6404,0,0,0.6404,170.6494,373.1276)" fill="silver" image-rendering="optimizeQuality" stroke-linejoin="round" stroke="silver" stroke-width="2" stroke-miterlimit="4">
      <path fill="none" d="M7 7 L17 7 L17 17" clip-path="url(#clipPath6)"/>
    </g>
    <g stroke-linecap="round" transform="matrix(0.6404,0,0,0.6404,170.6494,373.1276)" fill="silver" image-rendering="optimizeQuality" stroke-linejoin="round" stroke="silver" stroke-width="2" stroke-miterlimit="4">
      <path fill="none" d="M7 17 L17 7" clip-path="url(#clipPath6)"/>
    </g>
    <g stroke-miterlimit="1.45" font-weight="bold" font-family="'Inter'" transform="matrix(0.9606,0,0,0.9606,9.2718,9.6058)" stroke-linecap="butt">
      <text x="29" xml:space="preserve" y="413.5866" clip-path="url(#clipPath2)" stroke="none">contest_type_id</text>
    </g>
    <g stroke-miterlimit="1.45" font-family="'Inter'" transform="matrix(0.9606,0,0,0.9606,9.2718,9.6058)" stroke-linecap="butt">
      <text x="130" xml:space="preserve" y="413.5866" clip-path="url(#clipPath2)" stroke="none">int4</text>
    </g>
    <g stroke-linecap="round" transform="matrix(0.6404,0,0,0.6404,170.6494,392.841)" fill="silver" image-rendering="optimizeQuality" stroke-linejoin="round" stroke="silver" stroke-width="2" stroke-miterlimit="4">
      <path fill="none" d="M7 7 L17 7 L17 17" clip-path="url(#clipPath4)"/>
    </g>
    <g stroke-linecap="round" transform="matrix(0.6404,0,0,0.6404,170.6494,392.841)" fill="silver" image-rendering="optimizeQuality" stroke-linejoin="round" stroke="silver" stroke-width="2" stroke-miterlimit="4">
      <path fill="none" d="M7 17 L17 7" clip-path="url(#clipPath4)"/>
    </g>
    <g stroke-miterlimit="1.45" font-weight="bold" font-family="'Inter'" transform="matrix(0.9606,0,0,0.9606,9.2718,9.6058)" stroke-linecap="butt">
      <text x="29" xml:space="preserve" y="434.109" clip-path="url(#clipPath2)" stroke="none">subject_id</text>
    </g>
    <g stroke-miterlimit="1.45" font-family="'Inter'" transform="matrix(0.9606,0,0,0.9606,9.2718,9.6058)" stroke-linecap="butt">
      <text x="130" xml:space="preserve" y="434.109" clip-path="url(#clipPath2)" stroke="none">int4</text>
    </g>
    <g stroke-linecap="round" transform="matrix(0.6404,0,0,0.6404,170.6494,412.5544)" fill="silver" image-rendering="optimizeQuality" stroke-linejoin="round" stroke="silver" stroke-width="2" stroke-miterlimit="4">
      <path fill="none" d="M7 7 L17 7 L17 17" clip-path="url(#clipPath4)"/>
    </g>
    <g stroke-linecap="round" transform="matrix(0.6404,0,0,0.6404,170.6494,412.5544)" fill="silver" image-rendering="optimizeQuality" stroke-linejoin="round" stroke="silver" stroke-width="2" stroke-miterlimit="4">
      <path fill="none" d="M7 17 L17 7" clip-path="url(#clipPath4)"/>
    </g>
    <g stroke-miterlimit="1.45" font-weight="bold" font-family="'Inter'" transform="matrix(0.9606,0,0,0.9606,9.2718,9.6058)" stroke-linecap="butt">
      <text x="29" xml:space="preserve" y="454.6313" clip-path="url(#clipPath2)" stroke="none">is_optional</text>
    </g>
    <g stroke-miterlimit="1.45" font-family="'Inter'" transform="matrix(0.9606,0,0,0.9606,9.2718,9.6058)" stroke-linecap="butt">
      <text x="130" xml:space="preserve" y="454.6313" clip-path="url(#clipPath2)" stroke="none">bool</text>
    </g>
    <g fill="rgb(255,255,204)" transform="matrix(0.9606,0,0,0.9606,9.2718,9.6058)" stroke="rgb(255,255,204)">
      <rect x="259.5" width="200" height="111.8225" y="3.9722" clip-path="url(#clipPath2)" stroke="none"/>
    </g>
    <g fill="gray" stroke-miterlimit="1.45" transform="matrix(0.9606,0,0,0.9606,9.2718,9.6058)" stroke-linecap="butt" stroke="gray">
      <rect fill="none" x="259.5" width="200" height="111.8225" y="3.9722" clip-path="url(#clipPath2)"/>
    </g>
    <g stroke-miterlimit="1.45" font-size="13px" font-family="'Inter'" transform="matrix(0.9606,0,0,0.9606,9.2718,9.6058)" stroke-linecap="butt">
      <text x="280" xml:space="preserve" y="22.566" clip-path="url(#clipPath2)" stroke="none">program_timeline_binding</text>
    </g>
    <g fill="gray" transform="matrix(0.9606,0,0,0.9606,9.2718,9.6058)" stroke="gray">
      <line y2="29" fill="none" x1="260" clip-path="url(#clipPath2)" x2="458" y1="29"/>
    </g>
    <g stroke-linecap="round" transform="matrix(0.6404,0,0,0.6404,262.3849,41.0218)" fill="silver" image-rendering="optimizeQuality" stroke-linejoin="round" stroke="silver" stroke-width="2" stroke-miterlimit="4">
      <path fill="none" d="M12.4 2.7 C13.3 1.8 14.9 1.8 15.8 2.7 L21.3 8.2 C22.2 9.1 22.2 10.7 21.3 11.6 L17.6 15.3 C16.7 16.2 15.1 16.2 14.2 15.3 L8.7 9.8 C7.8 8.9 7.8 7.3 8.7 6.4 Z" clip-path="url(#clipPath4)"/>
    </g>
    <g stroke-linecap="round" transform="matrix(0.6404,0,0,0.6404,262.3849,41.0218)" fill="silver" image-rendering="optimizeQuality" stroke-linejoin="round" stroke="silver" stroke-width="2" stroke-miterlimit="4">
      <path fill="none" d="M14 7 L17 10" clip-path="url(#clipPath4)"/>
    </g>
    <g stroke-linecap="round" transform="matrix(0.6404,0,0,0.6404,262.3849,41.0218)" fill="silver" image-rendering="optimizeQuality" stroke-linejoin="round" stroke="silver" stroke-width="2" stroke-miterlimit="4">
      <path fill="none" d="M9.4 10.6 L2 18 L2 21 C2 21.6 2.4 22 3 22 L7 22 L7 19 L10 19 L10 16 L12 16 L13.4 14.6" clip-path="url(#clipPath4)"/>
    </g>
    <g stroke-miterlimit="1.45" font-weight="bold" font-family="'Inter'" transform="matrix(0.9606,0,0,0.9606,9.2718,9.6058)" stroke-linecap="butt">
      <text x="285.5" xml:space="preserve" y="47.3299" clip-path="url(#clipPath2)" stroke="none">id</text>
    </g>
    <g stroke-miterlimit="1.45" font-family="'Inter'" transform="matrix(0.9606,0,0,0.9606,9.2718,9.6058)" stroke-linecap="butt">
      <text x="399.5" xml:space="preserve" y="47.3299" clip-path="url(#clipPath2)" stroke="none">serial</text>
      <text x="285.5" xml:space="preserve" y="67.8523" clip-path="url(#clipPath2)" font-weight="bold" stroke="none">education_level_id</text>
      <text x="399.5" xml:space="preserve" y="67.8523" clip-path="url(#clipPath2)" stroke="none">int4</text>
    </g>
    <g stroke-linecap="round" transform="matrix(0.6404,0,0,0.6404,429.5259,60.7352)" fill="silver" image-rendering="optimizeQuality" stroke-linejoin="round" stroke="silver" stroke-width="2" stroke-miterlimit="4">
      <path fill="none" d="M7 7 L17 7 L17 17" clip-path="url(#clipPath6)"/>
    </g>
    <g stroke-linecap="round" transform="matrix(0.6404,0,0,0.6404,429.5259,60.7352)" fill="silver" image-rendering="optimizeQuality" stroke-linejoin="round" stroke="silver" stroke-width="2" stroke-miterlimit="4">
      <path fill="none" d="M7 17 L17 7" clip-path="url(#clipPath6)"/>
    </g>
    <g stroke-miterlimit="1.45" font-weight="bold" font-family="'Inter'" transform="matrix(0.9606,0,0,0.9606,9.2718,9.6058)" stroke-linecap="butt">
      <text x="285.5" xml:space="preserve" y="88.3746" clip-path="url(#clipPath2)" stroke="none">study_form_id</text>
    </g>
    <g stroke-miterlimit="1.45" font-family="'Inter'" transform="matrix(0.9606,0,0,0.9606,9.2718,9.6058)" stroke-linecap="butt">
      <text x="399.5" xml:space="preserve" y="88.3746" clip-path="url(#clipPath2)" stroke="none">int4</text>
    </g>
    <g stroke-linecap="round" transform="matrix(0.6404,0,0,0.6404,429.5259,80.4486)" fill="silver" image-rendering="optimizeQuality" stroke-linejoin="round" stroke="silver" stroke-width="2" stroke-miterlimit="4">
      <path fill="none" d="M7 7 L17 7 L17 17" clip-path="url(#clipPath6)"/>
    </g>
    <g stroke-linecap="round" transform="matrix(0.6404,0,0,0.6404,429.5259,80.4486)" fill="silver" image-rendering="optimizeQuality" stroke-linejoin="round" stroke="silver" stroke-width="2" stroke-miterlimit="4">
      <path fill="none" d="M7 17 L17 7" clip-path="url(#clipPath6)"/>
    </g>
    <g stroke-miterlimit="1.45" font-weight="bold" font-family="'Inter'" transform="matrix(0.9606,0,0,0.9606,9.2718,9.6058)" stroke-linecap="butt">
      <text x="285.5" xml:space="preserve" y="108.897" clip-path="url(#clipPath2)" stroke="none">type_id</text>
    </g>
    <g stroke-miterlimit="1.45" font-family="'Inter'" transform="matrix(0.9606,0,0,0.9606,9.2718,9.6058)" stroke-linecap="butt">
      <text x="399.5" xml:space="preserve" y="108.897" clip-path="url(#clipPath2)" stroke="none">int4</text>
    </g>
    <g stroke-linecap="round" transform="matrix(0.6404,0,0,0.6404,429.5259,100.162)" fill="silver" image-rendering="optimizeQuality" stroke-linejoin="round" stroke="silver" stroke-width="2" stroke-miterlimit="4">
      <path fill="none" d="M7 7 L17 7 L17 17" clip-path="url(#clipPath6)"/>
    </g>
    <g stroke-linecap="round" transform="matrix(0.6404,0,0,0.6404,429.5259,100.162)" fill="silver" image-rendering="optimizeQuality" stroke-linejoin="round" stroke="silver" stroke-width="2" stroke-miterlimit="4">
      <path fill="none" d="M7 17 L17 7" clip-path="url(#clipPath6)"/>
    </g>
    <g fill="rgb(255,255,204)" transform="matrix(0.9606,0,0,0.9606,9.2718,9.6058)" stroke="rgb(255,255,204)">
      <rect x="20" width="153" height="111.8225" y="3.9722" clip-path="url(#clipPath2)" stroke="none"/>
    </g>
    <g fill="gray" stroke-miterlimit="1.45" transform="matrix(0.9606,0,0,0.9606,9.2718,9.6058)" stroke-linecap="butt" stroke="gray">
      <rect fill="none" x="20" width="153" height="111.8225" y="3.9722" clip-path="url(#clipPath2)"/>
    </g>
    <g stroke-miterlimit="1.45" font-size="13px" font-family="'Inter'" transform="matrix(0.9606,0,0,0.9606,9.2718,9.6058)" stroke-linecap="butt">
      <text x="51" xml:space="preserve" y="22.566" clip-path="url(#clipPath2)" stroke="none">timeline_event</text>
    </g>
    <g fill="gray" transform="matrix(0.9606,0,0,0.9606,9.2718,9.6058)" stroke="gray">
      <line y2="29" fill="none" x1="21" clip-path="url(#clipPath2)" x2="172" y1="29"/>
    </g>
    <g stroke-linecap="round" transform="matrix(0.6404,0,0,0.6404,32.3257,41.0218)" fill="silver" image-rendering="optimizeQuality" stroke-linejoin="round" stroke="silver" stroke-width="2" stroke-miterlimit="4">
      <path fill="none" d="M12.4 2.7 C13.3 1.8 14.9 1.8 15.8 2.7 L21.3 8.2 C22.2 9.1 22.2 10.7 21.3 11.6 L17.6 15.3 C16.7 16.2 15.1 16.2 14.2 15.3 L8.7 9.8 C7.8 8.9 7.8 7.3 8.7 6.4 Z" clip-path="url(#clipPath24)"/>
    </g>
    <g stroke-linecap="round" transform="matrix(0.6404,0,0,0.6404,32.3257,41.0218)" fill="silver" image-rendering="optimizeQuality" stroke-linejoin="round" stroke="silver" stroke-width="2" stroke-miterlimit="4">
      <path fill="none" d="M14 7 L17 10" clip-path="url(#clipPath24)"/>
    </g>
    <g stroke-linecap="round" transform="matrix(0.6404,0,0,0.6404,32.3257,41.0218)" fill="silver" image-rendering="optimizeQuality" stroke-linejoin="round" stroke="silver" stroke-width="2" stroke-miterlimit="4">
      <path fill="none" d="M9.4 10.6 L2 18 L2 21 C2 21.6 2.4 22 3 22 L7 22 L7 19 L10 19 L10 16 L12 16 L13.4 14.6" clip-path="url(#clipPath24)"/>
    </g>
    <g stroke-miterlimit="1.45" font-weight="bold" font-family="'Inter'" transform="matrix(0.9606,0,0,0.9606,9.2718,9.6058)" stroke-linecap="butt">
      <text x="46" xml:space="preserve" y="47.3299" clip-path="url(#clipPath2)" stroke="none">id</text>
    </g>
    <g stroke-miterlimit="1.45" font-family="'Inter'" transform="matrix(0.9606,0,0,0.9606,9.2718,9.6058)" stroke-linecap="butt">
      <text x="113" xml:space="preserve" y="47.3299" clip-path="url(#clipPath2)" stroke="none">serial</text>
      <text x="46" xml:space="preserve" y="67.8523" clip-path="url(#clipPath2)" font-weight="bold" stroke="none">binding_id</text>
      <text x="113" xml:space="preserve" y="67.8523" clip-path="url(#clipPath2)" stroke="none">int4</text>
    </g>
    <g stroke-linecap="round" transform="matrix(0.6404,0,0,0.6404,154.3195,60.7352)" fill="silver" image-rendering="optimizeQuality" stroke-linejoin="round" stroke="silver" stroke-width="2" stroke-miterlimit="4">
      <path fill="none" d="M7 7 L17 7 L17 17" clip-path="url(#clipPath6)"/>
    </g>
    <g stroke-linecap="round" transform="matrix(0.6404,0,0,0.6404,154.3195,60.7352)" fill="silver" image-rendering="optimizeQuality" stroke-linejoin="round" stroke="silver" stroke-width="2" stroke-miterlimit="4">
      <path fill="none" d="M7 17 L17 7" clip-path="url(#clipPath6)"/>
    </g>
    <g stroke-miterlimit="1.45" font-weight="bold" font-family="'Inter'" transform="matrix(0.9606,0,0,0.9606,9.2718,9.6058)" stroke-linecap="butt">
      <text x="46" xml:space="preserve" y="88.3746" clip-path="url(#clipPath2)" stroke="none">name_id</text>
    </g>
    <g stroke-miterlimit="1.45" font-family="'Inter'" transform="matrix(0.9606,0,0,0.9606,9.2718,9.6058)" stroke-linecap="butt">
      <text x="113" xml:space="preserve" y="88.3746" clip-path="url(#clipPath2)" stroke="none">int4</text>
    </g>
    <g stroke-linecap="round" transform="matrix(0.6404,0,0,0.6404,154.3195,80.4486)" fill="silver" image-rendering="optimizeQuality" stroke-linejoin="round" stroke="silver" stroke-width="2" stroke-miterlimit="4">
      <path fill="none" d="M7 7 L17 7 L17 17" clip-path="url(#clipPath6)"/>
    </g>
    <g stroke-linecap="round" transform="matrix(0.6404,0,0,0.6404,154.3195,80.4486)" fill="silver" image-rendering="optimizeQuality" stroke-linejoin="round" stroke="silver" stroke-width="2" stroke-miterlimit="4">
      <path fill="none" d="M7 17 L17 7" clip-path="url(#clipPath6)"/>
    </g>
    <g stroke-miterlimit="1.45" font-weight="bold" font-family="'Inter'" transform="matrix(0.9606,0,0,0.9606,9.2718,9.6058)" stroke-linecap="butt">
      <text x="46" xml:space="preserve" y="108.897" clip-path="url(#clipPath2)" stroke="none">deadline</text>
    </g>
    <g stroke-miterlimit="1.45" font-family="'Inter'" transform="matrix(0.9606,0,0,0.9606,9.2718,9.6058)" stroke-linecap="butt">
      <text x="113" xml:space="preserve" y="108.897" clip-path="url(#clipPath2)" stroke="none">date</text>
    </g>
    <g fill="gray" stroke-miterlimit="1.45" transform="matrix(0.9606,0,0,0.9606,9.2718,9.6058)" stroke-linecap="butt" stroke="gray">
      <path fill="none" d="M190.0322 395.3566 L223 395.3566 L223 343.1676 L244.9707 343.1676" clip-path="url(#clipPath2)"/>
    </g>
    <g fill="gray" stroke-miterlimit="1.45" transform="matrix(0.9606,0,0,0.9606,9.2718,9.6058)" stroke-linecap="butt" stroke="gray">
      <path d="M252.9707 343.1676 L240.9707 338.1676 L243.9707 343.1676 L240.9707 348.1676 Z" stroke="none" clip-path="url(#clipPath2)"/>
      <path fill="none" d="M193.0293 222.4894 L223 222.4894 L223 246.2117 L244.9707 246.2117" clip-path="url(#clipPath2)"/>
      <path d="M252.9707 246.2117 L240.9707 241.2117 L243.9707 246.2117 L240.9707 251.2117 Z" clip-path="url(#clipPath2)" stroke="none"/>
      <path fill="none" d="M466.0488 294.6896 L491 294.6896 L491 270.9674 L518.4653 270.9674" clip-path="url(#clipPath2)"/>
      <path d="M526.4653 270.9674 L514.4653 265.9674 L517.4653 270.9674 L514.4653 275.9674 Z" clip-path="url(#clipPath2)" stroke="none"/>
      <path fill="none" d="M459.5405 87.839 L501 87.839 L501 235.5785 L518.4502 235.5785" clip-path="url(#clipPath2)"/>
      <path d="M526.4502 235.5785 L514.4502 230.5785 L517.4502 235.5785 L514.4502 240.5785 Z" clip-path="url(#clipPath2)" stroke="none"/>
      <path fill="none" d="M466.0488 230.0523 L491 230.0523 L491 92.839 Q496 92.839 496 87.839 Q496 82.839 491 82.839 L491 53.0833 L518.4653 53.0833" clip-path="url(#clipPath2)"/>
      <path d="M526.4653 53.0833 L514.4653 48.0833 L517.4653 53.0833 L514.4653 58.0833 Z" clip-path="url(#clipPath2)" stroke="none"/>
      <path fill="none" d="M459.5308 31.9278 L491 31.9278 L491 17.6944 L518.4653 17.6944" clip-path="url(#clipPath2)"/>
      <path d="M526.4653 17.6944 L514.4653 12.6944 L517.4653 17.6944 L514.4653 22.6944 Z" clip-path="url(#clipPath2)" stroke="none"/>
      <path fill="none" d="M466.0488 359.3269 L491 359.3269 L491 367.7729 L517.9658 367.7729" clip-path="url(#clipPath2)"/>
      <path d="M525.9658 367.7729 L513.9658 362.7729 L516.9658 367.7729 L513.9658 372.7729 Z" clip-path="url(#clipPath2)" stroke="none"/>
      <path fill="none" d="M173.0422 59.8834 L251.4578 59.8834" clip-path="url(#clipPath2)"/>
      <path d="M259.4578 59.8834 L247.4578 54.8834 L250.4578 59.8834 L247.4578 64.8834 Z" clip-path="url(#clipPath2)" stroke="none"/>
    </g>
  </g>
</svg>
